<svg width="197" height="125" viewBox="0 0 197 125" fill="none" xmlns="http://www.w3.org/2000/svg">
<g clip-path="url(#clip0_2317_18986)">
<rect width="195.699" height="125" transform="translate(0.650391)" fill="white"/>
<path fill-rule="evenodd" clip-rule="evenodd" d="M91.1963 146.304C87.5406 146.316 83.9885 146.441 80.3226 146.453C65.4207 146.503 50.3818 146.431 35.4258 145.826C31.1987 145.655 30.1436 145.66 25.9347 145.395C23.4496 145.386 15.9849 145.18 16.3586 141.794C16.5236 135.488 18.0844 129.208 18.576 122.919C19.5195 111.096 20.323 98.9032 25.0608 87.8449C26.1575 85.204 28.5127 83.477 30.8442 81.9241C33.1824 80.2488 33.7562 78.3887 35.9142 76.4961C36.3705 76.0959 38.9616 75.933 40.3557 74.918C42.3849 73.4405 43.3912 71.0216 44.1483 70.6098C44.7054 70.3069 44.6952 68.2165 45.8118 67.4767C47.3101 66.4839 52.0849 65.7457 53.8221 65.6076C55.4895 65.4751 58.3896 65.7534 59.9539 66.3642C62.5627 67.3827 63.6033 69.3255 64.7522 71.8285C79.931 76.5212 93.8048 84.4676 98.1134 100.496C101.829 113.939 101.965 128.351 100.53 142.138C100.243 143.146 100.444 144.726 99.5729 145.395C102.6 145.568 91.6069 146.193 91.1963 146.304Z" fill="white"/>
<path fill-rule="evenodd" clip-rule="evenodd" d="M22.1577 133.03C22.4449 132.887 22.7443 132.723 23.0724 132.711C23.6357 132.692 23.6365 131.815 23.0724 131.835C22.5803 131.852 22.1482 132.057 21.7153 132.273C21.2101 132.525 21.6545 133.281 22.1577 133.03ZM23.0724 108.352C22.6879 108.352 22.3004 108.401 22.0052 108.67C21.8296 108.83 21.8436 109.128 22.0052 109.29C22.1781 109.462 22.4501 109.449 22.625 109.29C22.568 109.341 22.6245 109.29 22.6452 109.279C22.6501 109.276 22.6529 109.274 22.6542 109.273C22.6586 109.272 22.6629 109.271 22.6701 109.269C22.7159 109.258 22.7611 109.246 22.8074 109.238C22.8082 109.24 22.9053 109.231 22.9281 109.231C22.9763 109.229 23.0243 109.229 23.0724 109.229C23.3101 109.229 23.5106 109.028 23.5106 108.79C23.5106 108.554 23.3092 108.352 23.0724 108.352ZM27.1934 118.186C27.3189 118.737 28.1637 118.502 28.0385 117.953C27.8564 117.155 27.8896 116.336 28.0385 115.535C28.141 114.983 27.2962 114.748 27.1934 115.302C27.0148 116.263 26.9748 117.228 27.1934 118.186ZM28.3003 86.6772C28.953 86.5221 29.5986 86.5037 30.2663 86.5035C30.8312 86.5033 30.8303 85.6265 30.2663 85.6267C29.5216 85.627 28.7947 85.659 28.0672 85.8318C27.5179 85.9623 27.7519 86.8074 28.3003 86.6772ZM30.4875 108.033C30.866 107.843 31.2448 107.654 31.6233 107.464C32.1286 107.212 31.6841 106.456 31.181 106.707L30.0451 107.276C29.5401 107.528 29.9844 108.284 30.4875 108.033ZM30.6451 125.298C31.1253 125.99 31.8005 126.421 32.6108 126.636C33.1575 126.781 33.3887 125.935 32.8438 125.79C32.2644 125.637 31.7496 125.357 31.4019 124.855C31.0824 124.394 30.3229 124.833 30.6451 125.298ZM33.6736 94.4295C33.8036 94.1866 33.9991 94.084 34.2419 94.0786C34.8059 94.0656 34.806 93.1889 34.2419 93.2018C33.6887 93.2143 33.1813 93.4922 32.9169 93.9871C32.6508 94.4849 33.4077 94.9274 33.6736 94.4295ZM39.2328 100.389C39.3899 100.56 39.6945 100.556 39.8525 100.389C39.9493 100.287 40.0306 100.173 40.0945 100.048C40.1189 100 40.1418 99.9518 40.1685 99.9057C40.1804 99.8852 40.1937 99.8648 40.2073 99.8451C40.2119 99.841 40.2214 99.8312 40.2313 99.8208C40.3997 99.6427 40.3954 99.3797 40.2313 99.2008C40.0741 99.0296 39.7694 99.0339 39.6114 99.2008C39.5148 99.3029 39.4334 99.417 39.3695 99.5421C39.3452 99.5895 39.3223 99.6378 39.2954 99.6841C39.2835 99.7046 39.2702 99.7249 39.2566 99.7446C39.252 99.7486 39.2426 99.7585 39.2328 99.7689C39.0643 99.947 39.0685 100.21 39.2328 100.389ZM39.7001 113.335C40.2709 113.596 40.8969 113.596 41.4677 113.335C41.6839 113.236 41.7352 112.924 41.6248 112.735C41.4971 112.517 41.2404 112.48 41.0253 112.578C40.7664 112.696 40.401 112.696 40.1424 112.578C39.9264 112.479 39.6722 112.514 39.5429 112.735C39.4319 112.925 39.4849 113.236 39.7001 113.335ZM41.2571 122.499C41.3551 122.731 41.5669 122.854 41.8145 122.864C42.0598 122.873 42.2424 122.655 42.2527 122.425C42.2593 122.277 42.179 122.15 42.0636 122.071C42.0635 122.063 42.0633 122.055 42.0633 122.047C42.0632 121.801 41.8626 121.619 41.6251 121.608C41.3885 121.598 41.1867 121.817 41.1868 122.047C41.1869 122.201 41.1965 122.355 41.2571 122.499ZM43.5184 137.067C44.2178 137.078 44.9012 137.245 45.6007 137.256C46.1659 137.265 46.1642 136.389 45.6007 136.38C44.9013 136.368 44.2179 136.202 43.5184 136.19C42.9532 136.181 42.9549 137.058 43.5184 137.067ZM46.4269 80.8831C46.8363 81.2733 47.342 81.4655 47.8407 81.7092C48.346 81.9562 48.7898 81.1998 48.2831 80.9522C47.8606 80.7457 47.3929 80.5931 47.0465 80.2633C46.6379 79.8739 46.0174 80.4932 46.4269 80.8831ZM47.5258 90.9887C47.8131 90.8453 48.1125 90.6812 48.4404 90.6698C49.0039 90.6501 49.0046 89.7733 48.4404 89.7931C47.9485 89.8102 47.5164 90.0154 47.0834 90.2316C46.578 90.4839 47.0225 91.2399 47.5258 90.9887ZM52.7945 131.547C52.9243 131.304 53.1198 131.202 53.3626 131.196C53.9267 131.183 53.9269 130.307 53.3626 130.32C52.8093 130.332 52.302 130.61 52.0376 131.105C51.7716 131.603 52.5284 132.045 52.7945 131.547ZM54.6191 112.509C54.7935 112.349 54.7814 112.051 54.6191 111.889C54.4298 111.7 54.2405 111.51 54.0511 111.321C53.878 111.148 53.6064 111.16 53.4314 111.321C53.257 111.481 53.2692 111.778 53.4314 111.941C53.6208 112.13 53.81 112.32 53.9994 112.509C54.1727 112.682 54.4442 112.67 54.6191 112.509ZM56.7704 142.18C57.4026 142.165 57.9953 141.984 58.5907 141.786C59.1241 141.608 58.894 140.762 58.3576 140.94C57.8402 141.112 57.3204 141.291 56.7704 141.303C56.2063 141.316 56.206 142.193 56.7704 142.18ZM59.6101 123.432C60.1813 123.416 60.6552 123.125 61.0558 122.735C61.4611 122.341 60.8407 121.722 60.4361 122.115C60.2068 122.338 59.9422 122.546 59.6101 122.555C59.0462 122.571 59.0458 123.448 59.6101 123.432ZM57.8467 99.3214C57.8398 99.5549 57.7412 99.8049 57.5963 99.9584C57.2091 100.369 57.8281 100.989 58.2161 100.578C58.5362 100.239 58.7097 99.7854 58.7231 99.3214C58.7394 98.7561 57.8628 98.7586 57.8467 99.3214ZM64.5319 80.2264C64.7153 79.8671 64.9557 79.4458 65.3213 79.2474C65.8178 78.9779 65.3749 78.2211 64.8789 78.4903C64.382 78.7601 64.0263 79.2919 63.7751 79.7838C63.5187 80.2859 64.2753 80.729 64.5319 80.2264ZM65.6681 89.3441C65.8714 89.3383 66.0732 89.3035 66.2693 89.2503C66.3531 89.2275 66.436 89.2013 66.5199 89.1786C66.5558 89.1688 66.7084 89.1497 66.6147 89.1548C66.852 89.1421 67.0529 88.9643 67.0529 88.7164C67.0529 88.4886 66.8513 88.2653 66.6147 88.278C66.2894 88.2955 65.9936 88.4582 65.6681 88.4674C65.1044 88.4833 65.104 89.36 65.6681 89.3441ZM68.5078 103.358H69.4543C70.0192 103.358 70.0182 102.481 69.4543 102.481H68.5078C67.9429 102.481 67.9439 103.358 68.5078 103.358ZM69.6119 142.12C69.899 142.264 70.2373 142.4 70.4698 142.62C70.8797 143.008 71.5002 142.388 71.0895 142C70.7934 141.72 70.4148 141.544 70.0542 141.363C69.8418 141.257 69.5806 141.305 69.4546 141.52C69.3408 141.715 69.4003 142.014 69.6119 142.12ZM71.7269 131.042C71.7636 131.032 71.8024 131.025 71.8395 131.02C71.9885 131 72.1444 131.007 72.2941 131.007C72.859 131.007 72.8581 130.13 72.2941 130.13C71.8496 130.13 71.3871 130.137 71.0376 130.448C70.8602 130.606 70.8774 130.908 71.0376 131.068C71.2118 131.242 71.4807 131.225 71.6574 131.068C71.6387 131.085 71.7026 131.049 71.7269 131.042ZM72.2939 116.144C72.1665 115.881 72.1646 115.71 72.1644 115.418C72.1639 114.853 71.2875 114.854 71.2879 115.418C71.2881 115.842 71.3511 116.203 71.537 116.587C71.6408 116.8 71.9445 116.856 72.1365 116.744C72.3519 116.618 72.3969 116.357 72.2939 116.144ZM74.828 95.5779C75.3364 95.7508 75.7902 95.9957 76.2378 96.2912C76.7103 96.6031 77.1489 95.8435 76.6802 95.5342C76.1693 95.1969 75.6409 94.9298 75.0611 94.7324C74.5249 94.55 74.2969 95.3972 74.828 95.5779ZM77.7842 80.8222C78.1619 80.8327 78.5517 80.9776 78.8882 81.1411C79.3941 81.3868 79.8379 80.6305 79.3305 80.384C78.8498 80.1504 78.3238 79.9606 77.7842 79.9454C77.219 79.9296 77.2214 80.8064 77.7842 80.8222ZM79.1094 120.212C79.258 120.219 79.3849 120.139 79.4636 120.023C79.4718 120.023 79.4799 120.023 79.488 120.023C79.7337 120.023 79.9155 119.822 79.9263 119.585C79.9369 119.348 79.7172 119.146 79.488 119.146C79.3333 119.146 79.1798 119.156 79.0361 119.217C78.804 119.315 78.6806 119.526 78.6712 119.774C78.6619 120.02 78.8794 120.202 79.1094 120.212ZM81.2648 89.8966C81.803 90.0725 82.0315 89.2257 81.4978 89.0512C80.8712 88.8464 80.231 88.6878 79.6045 88.483C79.0663 88.3071 78.8377 89.154 79.3716 89.3285C79.9979 89.5332 80.6383 89.6918 81.2648 89.8966ZM83.2303 106.445C83.3972 106.983 84.2429 106.752 84.0755 106.212C83.9138 105.69 83.9022 105.166 83.9019 104.624C83.9015 104.059 83.0251 104.06 83.0254 104.624C83.0257 105.241 83.0464 105.851 83.2303 106.445ZM89.0902 126.265C89.1221 126.484 89.2952 126.641 89.5217 126.651C89.7524 126.662 89.9683 126.442 89.96 126.213C89.9439 125.772 89.5842 125.412 89.1431 125.396C88.8977 125.387 88.7152 125.604 88.7049 125.834C88.6948 126.058 88.8817 126.233 89.0902 126.265ZM92.0557 101.07C92.5188 101.224 93.0137 101.372 93.3767 101.715C93.787 102.102 94.4076 101.483 93.9965 101.095C93.5177 100.643 92.9019 100.429 92.2886 100.224C91.7516 100.045 91.5234 100.892 92.0557 101.07ZM94.0655 118.102C94.1928 118.319 94.4506 118.359 94.665 118.259C94.9525 118.125 95.2699 118.13 95.5798 118.129C96.1446 118.129 96.1437 117.252 95.5798 117.252C95.1017 117.253 94.6606 117.298 94.2226 117.502C94.0071 117.602 93.9546 117.912 94.0655 118.102ZM95.2012 138.771C95.4466 138.78 95.6291 138.563 95.6394 138.333C95.6495 138.109 95.4627 137.934 95.254 137.902C95.2222 137.683 95.049 137.526 94.8226 137.516C94.5918 137.505 94.3759 137.725 94.3843 137.954C94.4004 138.396 94.7599 138.755 95.2012 138.771ZM15.3531 142.086C15.5019 141.55 15.8427 141.118 16.1001 140.635C16.1864 140.473 16.2165 140.372 16.2632 140.253C16.3268 140.38 16.4501 140.476 16.6356 140.476C16.9915 140.476 17.4077 140.453 17.7397 140.605C17.9557 140.704 18.2101 140.669 18.3392 140.448C18.4502 140.258 18.3972 139.947 18.182 139.848C17.6926 139.624 17.1665 139.599 16.6356 139.599C16.5045 139.599 16.4052 139.647 16.3351 139.72C16.1322 136.94 16.1373 134.159 16.3292 131.378C16.534 128.406 17.0052 125.493 17.4982 122.559C17.7369 121.137 18.0469 119.7 17.9867 118.251C17.9264 116.812 17.3096 115.471 17.7468 114.027C17.9221 113.449 18.2222 112.918 18.4173 112.346C18.6265 111.73 18.6079 111.122 18.5126 110.484C18.3165 109.185 17.9912 107.902 18.5116 106.634C18.7415 106.072 19.1141 105.57 19.2937 104.989C19.5172 104.267 19.4865 103.468 19.5238 102.719C19.5994 101.209 19.6191 99.6892 19.7441 98.1823C19.7999 97.5072 19.9215 96.8672 20.1986 96.248C20.465 95.6518 20.8604 95.1093 21.0368 94.4769C21.2121 93.8544 21.2274 93.198 21.3216 92.5613C21.4202 91.8883 21.5747 91.2253 21.7828 90.5787C22.587 88.0756 24.0605 85.8268 25.8014 83.8771C27.6518 81.8047 29.8638 80.2441 32.2116 78.7898C33.4462 78.0251 34.6807 77.2603 35.9144 76.4956C35.9407 76.639 36.0322 76.7709 36.2078 76.8296C36.6711 76.9844 37.1658 77.1314 37.529 77.4743C37.9391 77.8617 38.5598 77.2426 38.1487 76.8545C37.7199 76.4494 37.181 76.2363 36.6326 76.049C37.1947 75.6946 37.7629 75.3275 38.3972 75.1228C38.9528 74.9431 39.7721 75.0998 40.2225 74.6921C40.5763 74.371 40.6881 73.7759 40.8239 73.3397C40.9937 72.7983 41.1405 72.2274 41.3563 71.7013C41.5031 71.3419 41.7168 70.9966 41.9863 70.7183C42.1046 70.2624 42.3216 69.8459 42.7051 69.5927C43.7085 68.9286 44.9411 69.5884 45.3826 70.5352C45.7474 70.5342 46.1319 70.6142 46.4869 70.6361C47.2165 70.6821 47.9473 70.7029 48.678 70.7007C50.1078 70.6964 51.5386 70.6032 52.9563 70.4136C55.4914 70.0739 57.951 69.3889 60.4434 68.8552C60.4576 68.8223 60.4741 68.7894 60.4938 68.7566C61.0306 67.8557 62.3683 68.008 63.2109 68.3489C63.5723 68.4946 63.9405 68.6787 64.1475 69.0207C64.3666 69.1686 64.5562 69.3484 64.6822 69.538C64.9429 69.9292 65.1445 70.7183 65.6736 70.784C66.022 70.8268 66.3759 70.7599 66.7298 70.8103C67.1724 70.8717 67.569 71.0273 67.9776 71.2049C71.0891 72.5561 74.3057 74.0587 77.6823 74.5825C78.4743 74.7053 79.2807 74.8324 79.9687 75.2762C80.5274 75.6368 80.9592 76.1322 81.4203 76.6023C81.8695 77.0604 82.2398 77.2632 82.8807 77.3454C83.6586 77.4451 84.3323 77.6599 84.9009 78.2254C85.3731 78.6955 85.681 79.2961 86.0513 79.8419C86.4283 80.3986 86.9814 80.7121 87.5555 81.0354C88.9129 81.8003 90.1772 82.7242 91.2783 83.8322C93.5976 86.1687 95.0021 89.1715 96.4176 92.0977C97.9481 95.2627 99.3789 98.4661 100.372 101.846C101.344 105.164 101.923 108.578 102.19 112.024C102.472 115.639 102.511 119.269 102.746 122.887C102.863 124.694 102.952 126.503 103.041 128.312C103.129 130.098 103.257 131.888 103.237 133.676C103.197 137.134 102.506 140.602 101.297 143.84C100.996 144.645 100.662 145.44 100.306 146.222C99.9935 146.91 98.9254 146.833 98.5901 146.222C98.5134 146.082 98.4532 145.937 98.4028 145.791C97.5263 145.798 96.6411 145.73 95.7701 145.811C94.2319 145.955 92.6906 146.035 91.148 146.13C88.0956 146.32 85.0379 146.446 81.9845 146.62C81.6883 146.637 81.392 146.654 81.0959 146.672C83.2718 139.935 82.9896 132.651 83.3339 125.645C83.3617 125.08 82.485 125.083 82.4575 125.645C82.1117 132.681 82.4061 139.983 80.1533 146.731C79.2792 146.79 78.4064 146.863 77.5365 146.969C76.8333 147.053 76.1265 147.153 75.4166 147.118C74.6113 147.079 73.8247 146.895 73.0392 146.735C71.6117 146.445 70.2367 146.576 68.8037 146.755C67.271 146.947 65.7328 147.053 64.1902 147.12C58.0134 147.391 51.7949 147.637 45.6203 147.224C44.1259 147.124 42.6349 146.984 41.1504 146.793C39.621 146.597 38.108 146.267 36.5798 146.08C35.0733 145.896 33.6884 146.401 32.1995 146.494C30.6812 146.59 29.1221 146.273 27.6179 146.091C27.1272 146.031 26.6359 145.973 26.1445 145.916C26.7771 141.579 27.1368 137.209 27.4862 132.841C27.5312 132.278 26.6544 132.282 26.6097 132.841C26.2632 137.175 25.9115 141.512 25.2799 145.815C22.6752 145.512 20.0679 145.205 17.4904 144.733C16.7564 144.599 16.0267 144.381 15.5874 143.726C15.2621 143.24 15.1963 142.645 15.3531 142.086Z" fill="#343840"/>
<path fill-rule="evenodd" clip-rule="evenodd" d="M35.0359 50.1093C35.2717 48.0363 34.9665 43.7035 34.9461 43.4402C34.8168 41.7761 35.5963 35.2045 37.0698 35.81C39.5417 33.8526 42.834 33.4204 45.9125 33.2139C52.3071 32.7849 59.1098 33.7696 64.0475 38.0744C66.4894 40.31 68.8668 43.5615 68.6757 46.9471C70.8943 50.1562 74.0221 54.5582 71.2578 58.3099C70.3181 59.5085 68.8247 59.9549 67.6443 60.8627C65.27 62.7783 63.7804 65.5276 61.3836 67.4319C55.0336 73.1398 44.2513 74.3322 38.0125 67.8399C33.1881 63.1379 33.9682 56.1036 34.8168 50.1093C35.3873 46.0793 34.5758 54.1534 35.0359 50.1093Z" fill="white"/>
<path fill-rule="evenodd" clip-rule="evenodd" d="M54.4551 24.4228C52.7449 24.0776 50.9888 23.8628 49.2424 23.9275L49.1077 23.9327C47.7937 23.9852 46.1295 24.1015 44.9832 24.8658C44.9173 24.7996 44.8112 24.7656 44.715 24.8116C43.3528 25.462 41.8545 25.9323 40.4202 26.3996C38.9924 26.8646 37.5112 27.1715 36.0148 27.2953C35.4517 27.3418 34.9699 27.95 35.3264 28.4954C35.4112 28.6254 35.4938 28.7567 35.5761 28.8883C35.4385 28.874 35.3009 28.8592 35.1633 28.8452C34.7105 28.7997 34.2581 29.2831 34.285 29.7241C34.3017 30.0015 34.3316 30.2755 34.3759 30.5463C34.2034 30.5427 34.032 30.5686 33.8663 30.6386C33.0276 30.9929 33.086 31.9923 33.1487 32.7527C33.2357 33.8078 33.6302 34.9255 34.3627 35.7152C33.8158 36.2834 33.4287 36.962 33.1977 37.768C33.0302 38.3565 32.937 38.9834 32.983 39.596L32.9976 39.7794C33.0546 40.4442 33.1677 41.1803 33.6458 41.6585C33.8912 41.9051 34.1936 41.995 34.4818 41.9665C34.3075 43.4986 34.1958 45.0395 34.0906 46.5749L34.0413 47.3087C33.8067 50.8573 33.6304 54.429 33.6765 57.9835C33.7193 61.3053 34.3755 64.5295 36.4121 67.2266C38.267 69.6826 40.9303 71.493 43.9431 72.1813C45.5667 72.5528 47.2243 72.5791 48.8677 72.3424C49.6643 72.2273 50.4661 72.0509 51.2222 71.7725C52.0591 71.4634 52.6605 71.0086 53.2237 70.327C53.49 70.0037 53.3618 69.3154 52.8315 69.3801C52.0293 69.4774 51.2971 69.5946 50.5281 69.8319L50.418 69.8667C49.6521 70.1122 48.8589 70.2952 48.0582 70.373C46.418 70.5319 44.7528 70.3719 43.1817 69.8743C40.6235 69.0634 38.4203 67.2562 37.0081 64.9854C35.3319 62.2938 35.1423 59.2383 35.1666 56.1434C35.1925 52.7473 35.3029 49.3492 35.4832 45.9566L35.5139 45.3913C35.6092 43.6455 35.7012 41.8985 35.7822 40.1516C35.8074 39.6037 35.8457 39.0513 35.9148 38.5044C36.5469 38.134 37.1133 37.6233 37.4825 36.9932C38.2242 37.3 39.0042 37.5214 39.722 37.6978C41.3844 38.1068 43.1103 38.2061 44.8024 37.95C45.2589 38.1386 45.7244 38.3044 46.197 38.4471C46.3247 38.5038 46.4525 38.5595 46.5801 38.614C47.7196 39.1017 48.8755 39.5149 50.0783 39.8174L50.3738 39.8911C51.0068 40.0472 51.6943 40.2009 52.368 40.2492C52.4787 40.2919 52.5981 40.3281 52.7286 40.3599C53.342 40.5089 53.9786 40.556 54.6074 40.5034C55.2199 40.4519 55.6625 39.8327 55.3251 39.253C55.0786 38.8299 54.8298 38.408 54.5789 37.9872C55.4521 38.351 56.3537 38.6535 57.263 38.9099C58.1811 39.1686 59.1124 39.3867 60.0448 39.5872C60.5433 39.6935 61.0439 39.7878 61.5412 39.8941C61.8973 39.9697 62.444 40.0092 62.7344 40.2437C63.0553 40.5012 63.1463 41.1018 63.268 41.4722C63.4279 41.9533 63.578 42.4366 63.715 42.9254C63.9877 43.9008 64.2112 44.8904 64.3843 45.8899C64.5574 46.8905 64.6736 47.9009 64.7382 48.9147C64.8028 49.9273 64.7744 50.9465 64.8784 51.9548C64.9343 52.4896 65.5083 52.7647 65.9323 52.391C65.982 52.3471 66.0322 52.3028 66.0818 52.258L66.1558 52.1904C66.5185 51.8616 66.8702 51.5131 67.1604 51.1208C67.213 51.0485 67.2634 50.9728 67.3105 50.8961C67.3182 50.8961 67.3248 50.8939 67.3324 50.8885L67.4129 50.8279C68.299 50.1681 69.7793 49.308 70.6433 50.4041C70.9186 50.7532 71.0595 51.1978 71.1765 51.6267L71.3818 52.3943C71.5146 52.8955 71.6395 53.3994 71.7126 53.9121C71.8781 55.0607 71.7948 56.3845 71.0048 57.3051C70.6893 57.6734 70.2543 57.9364 69.7691 58.0054C69.4984 58.0427 69.2311 57.9967 68.9627 57.9627C68.6899 57.9287 68.427 57.9835 68.1541 57.9572C67.7203 57.9145 67.5307 58.4339 67.6929 58.7605C67.7805 58.9359 67.8836 59.0871 68.0007 59.2153C67.9066 59.2964 67.8167 59.3841 67.7301 59.4762C67.4738 59.5584 67.2438 59.7348 67.0717 59.9682C66.9326 60.1567 66.8604 60.3617 66.8482 60.5776C66.833 60.6313 66.8198 60.6861 66.8077 60.742L66.5726 61.1236C66.5209 61.2072 66.4694 61.2899 66.4177 61.371C65.8196 62.3135 65.1555 63.1114 64.3306 63.8632C63.5363 64.5865 62.6742 65.2342 61.928 66.0101L61.8401 66.1022C61.1444 66.8355 60.4112 67.7232 60.6834 68.7894C60.7535 69.0634 61.136 69.2606 61.3857 69.0754C62.1887 68.4792 62.5931 67.5345 63.2744 66.8112C63.9757 66.066 64.7525 65.3964 65.4557 64.6533C66.1208 63.9519 66.6456 63.1574 67.041 62.2828C67.1989 62.4571 67.4289 62.5809 67.7477 62.6292C68.2954 62.7113 68.8061 62.3902 69.0448 61.9157C69.1983 61.9837 69.3549 62.045 69.5127 62.0932C70.3432 62.3475 70.8657 61.4236 70.5523 60.7409C70.3848 60.3748 70.1756 60.057 69.9158 59.7896C70.7277 59.6778 71.5538 59.2581 72.0873 58.7342C73.426 57.418 73.6101 55.4399 73.3088 53.6809C73.1488 52.7482 72.8729 51.8046 72.5145 50.929C72.4522 50.7767 72.3852 50.6232 72.3119 50.472C72.3525 50.4709 72.3941 50.4534 72.4204 50.4194C72.6625 50.0884 72.9571 49.8177 73.1369 49.4473C73.3023 49.1076 73.4863 48.7634 73.6168 48.4095C73.8851 47.6851 74.0165 46.8675 74.1042 46.1014C74.2849 44.5332 74.2149 42.9747 73.9749 41.4163C73.5664 38.762 72.5795 36.2218 71.1255 33.9929C71.2047 33.9513 71.2806 33.9011 71.3513 33.8417L71.3862 33.8112L71.4429 33.7599C71.8578 33.3844 71.822 32.6805 71.4429 32.3001L71.3232 32.18C71.1716 32.0294 71.0409 31.91 70.796 31.746C70.7598 31.7217 70.7229 31.6989 70.6855 31.6777C70.8137 31.4407 70.8582 31.1637 70.7689 30.858C70.4578 29.7932 68.9262 29.8309 67.9554 30.2953C66.8814 29.3364 65.6905 28.5041 64.3997 27.8301C61.3254 26.2256 57.8493 25.1067 54.4551 24.4228ZM70.3463 52.4677C69.7722 52.2803 69.0097 52.6737 68.4937 52.9104C67.8397 53.2107 67.2831 53.6546 66.7441 54.1236C66.4757 54.3582 66.4276 54.7417 66.4943 55.0694C66.501 55.1023 66.5074 55.1363 66.5152 55.1702C66.5864 55.5198 66.9765 55.7949 67.3216 55.7851C68.0435 55.7653 68.3874 55.1418 68.7962 54.6135C68.8443 54.699 68.9046 54.7779 68.9792 54.8371L69.0295 54.8765C69.1991 55.0057 69.3861 55.109 69.6102 55.099C69.7691 55.0913 69.9212 55.0508 70.0616 54.9774C70.4122 54.7922 70.5665 54.3384 70.4713 53.9691C70.4122 53.7368 70.2763 53.5548 70.0988 53.4288L70.165 53.3836C70.3065 53.285 70.4357 53.1811 70.5363 53.0278L70.559 52.9915H70.5502C70.6598 52.803 70.5884 52.5466 70.3463 52.4677Z" fill="#343840"/>
<path fill-rule="evenodd" clip-rule="evenodd" d="M43.3057 63.4966C44.1127 63.7304 44.979 63.7513 45.8017 63.5099C46.5479 63.2908 47.314 62.8087 47.8632 62.1709C48.351 61.6042 48.667 60.9156 48.6546 60.1805C48.6532 60.0966 48.6232 60.0265 48.577 59.9721C48.5273 59.9136 48.4579 59.8734 48.3835 59.8559C48.3071 59.838 48.2262 59.8443 48.1574 59.8756C48.0951 59.9039 48.0417 59.952 48.0083 60.0223C47.9239 60.1332 47.8398 60.2425 47.7554 60.3487C47.0769 61.1869 46.4197 61.8133 45.3993 62.038C44.8456 62.1599 44.2927 62.1058 43.7853 61.9198C43.2423 61.7207 42.7513 61.3706 42.3666 60.9225C42.1928 60.7201 41.9875 60.6374 41.7868 60.636C41.5593 60.6345 41.3345 60.7402 41.1652 60.9091C40.9987 61.0752 40.8872 61.301 40.8771 61.5371C40.8683 61.7443 40.9358 61.9607 41.1156 62.1539C41.7078 62.79 42.4753 63.256 43.3057 63.4966ZM43.3306 52.9984C42.5033 53.5015 41.2427 54.6744 42.1327 55.9215C43.1803 57.0211 44.6886 55.7604 45.4319 55.1902C46.1211 54.7483 46.8954 55.8848 46.256 56.4008C40.8851 60.3785 38.7055 53.13 42.9121 52.407C43.3753 52.3273 43.5473 52.8428 43.3306 52.9984ZM51.0696 50.785C51.3355 50.6149 51.6483 50.5565 51.995 50.7143C52.2659 50.8375 52.741 51.2483 53.0717 51.7883C53.2979 52.1578 53.4583 52.5912 53.4249 53.0427C53.4172 53.1475 53.4559 53.2249 53.517 53.282C53.5652 53.3272 53.6349 53.3603 53.7168 53.3707C53.7863 53.3795 53.864 53.3716 53.9273 53.3518C54.0476 53.3143 54.1113 53.2362 54.1353 53.1724C54.3668 52.5574 54.2671 51.871 54.0076 51.2518C53.6574 50.4162 53.0215 49.7162 52.6048 49.4905C51.8919 49.1042 51.0508 49.0864 50.3368 49.48C49.729 49.815 49.349 50.3557 48.9711 50.907C48.8907 51.0242 48.811 51.1405 48.7285 51.2548C48.5634 51.4838 48.5469 51.7109 48.6109 51.9056C48.6818 52.1214 48.8624 52.3034 49.0884 52.3987C49.2972 52.4868 49.5396 52.4992 49.7541 52.4087C49.9352 52.3323 50.1015 52.1833 50.2067 51.9304C50.3839 51.5046 50.6791 51.0348 51.0696 50.785ZM37.565 51.7324C37.7471 51.8273 37.8896 51.8559 38.0916 51.7954C38.2033 51.7618 38.3137 51.6975 38.4001 51.611C38.4858 51.5253 38.5476 51.4188 38.5716 51.3005C38.6307 51.0088 38.7903 50.7357 39.0177 50.5576C39.2121 50.4054 39.4574 50.3248 39.7296 50.3703C40.0233 50.4193 40.303 50.6077 40.4957 50.8298C40.5601 50.9042 40.6106 50.9886 40.6614 51.0724C40.7563 51.2292 40.8486 51.375 40.9795 51.4901C41.0292 51.5339 41.104 51.5643 41.1764 51.5643C41.2058 51.5643 41.2357 51.5595 41.2642 51.5506C41.5565 51.2571 41.6127 51.0345 41.6033 50.8137C41.5934 50.5822 41.5021 50.3477 41.3547 50.129C41.0087 49.6159 40.3519 49.1952 39.9087 49.0999C39.3017 48.9694 38.6988 49.126 38.2155 49.4652C37.7182 49.8141 37.3497 50.3559 37.2348 50.9664C37.2072 51.1135 37.2189 51.2722 37.2749 51.4098C37.3296 51.5443 37.425 51.6595 37.565 51.7324ZM49.7309 45.3144C50.0952 45.6695 50.5263 45.7245 50.9625 45.7734C51.2049 45.8008 51.3983 45.8229 51.5887 45.8659C52.112 45.9841 52.6292 46.162 53.1011 46.4183C53.5944 46.6862 54.132 47.0094 54.5188 47.4233C54.6107 47.5218 54.6974 47.6252 54.7842 47.7288C54.8634 47.8232 54.9397 47.9141 55.02 48.0018C55.1123 48.1025 55.2 48.2081 55.2872 48.3134C55.3411 48.4022 55.3517 48.424 55.3626 48.4468C55.3789 48.481 55.3979 48.5192 55.4196 48.5602C55.4493 48.6164 55.4841 48.6779 55.5206 48.7337C55.5813 48.8357 55.6138 48.8637 55.642 48.8763C55.6886 48.8971 55.7329 48.9073 55.7758 48.9018C55.8161 48.8966 55.854 48.8772 55.8915 48.8456C56.0785 48.6875 56.1337 48.4281 56.128 48.1527C56.1195 47.7349 55.9654 47.2723 55.8234 46.9879C55.4931 46.3271 55.0351 45.6401 54.4844 45.1469C53.856 44.5839 53.1684 44.1577 52.3788 43.864C51.888 43.6815 51.3198 43.5139 50.7852 43.5351C50.4003 43.5503 50.0329 43.6647 49.7295 43.9505C49.5432 44.1259 49.4538 44.3754 49.4538 44.6248C49.4538 44.8791 49.5467 45.1349 49.7309 45.3144ZM36.8241 48.5655C36.8473 48.6034 36.8793 48.6296 36.915 48.6453C36.9524 48.6618 36.9942 48.6666 37.0342 48.6598C37.0741 48.6531 37.112 48.635 37.1421 48.6074C37.171 48.5809 37.1929 48.5457 37.2027 48.5027C37.4446 47.4401 37.9142 46.6495 38.9165 46.1397C39.4096 45.889 39.9765 45.7296 40.5133 45.6026C40.6692 45.5657 40.834 45.5417 41 45.5175C41.5202 45.4415 42.0441 45.3545 42.3832 44.9339C42.5875 44.6806 42.6733 44.3566 42.6248 44.0602C42.5791 43.7812 42.4161 43.5254 42.1199 43.3721C41.3823 42.9906 40.4657 43.365 39.7208 43.6838C39.6656 43.7075 39.6113 43.7307 39.5583 43.7531C38.8299 44.0607 38.1655 44.4667 37.6194 45.0473C37.1861 45.5079 36.7847 46.1888 36.623 46.8893C36.4884 47.4721 36.5201 48.067 36.8241 48.5655Z" fill="#343840"/>
<path fill-rule="evenodd" clip-rule="evenodd" d="M41.0104 65.2667C42.0307 64.3574 43.1744 62.5294 44.6401 63.9758C45.0027 64.3845 45.1495 65.3007 45.7038 65.4804C46.4401 65.7193 47.1697 64.9401 47.4206 64.3418C48.4471 61.017 44.2036 60.1051 41.7861 60.6422C40.605 61.1274 39.7352 63.0803 39.6826 64.0996C39.6486 64.7845 40.2282 65.7917 41.0104 65.2667ZM33.3129 60.1421C33.3229 60.098 33.3368 60.0581 33.3536 60.0218C33.8048 59.8512 34.1619 60.0252 34.3825 60.3503C34.3753 60.431 34.3512 60.5129 34.336 60.593C34.5062 60.9518 34.6598 61.3958 34.8906 61.7058C34.9361 61.7093 34.9833 61.7045 35.0287 61.6914C38.8537 62.0909 36.9863 58.0876 40.8658 57.0933C43.8647 56.5983 49.2849 57.1653 50.6997 60.2877C51.8154 65.275 57.4886 61.7998 59.3513 59.2061C61.3388 56.8456 62.6239 53.9611 63.863 51.1621C64.1248 50.5697 64.942 50.9933 64.8531 51.5617C65.9984 53.8599 65.9603 56.6206 66.244 59.1384C66.7265 64.1616 67.1966 71.206 62.5308 74.2732C56.4518 81.1465 41.2718 83.572 34.2604 77.2566C31.8332 72.0367 32.1324 65.6686 33.3129 60.1421Z" fill="#343840"/>
<path fill-rule="evenodd" clip-rule="evenodd" d="M37.3056 44.8496C34.734 44.8496 33.2665 45.4028 32.7288 45.4459L32.7126 45.447C32.4889 45.4614 32.2883 45.4801 32.0778 45.5615C31.3037 45.8597 31.1776 46.6718 31.6293 47.1837C31.661 48.2427 31.5218 49.4802 31.7607 50.5427C32.0554 55.0219 34.1612 55.7778 35.3582 56.0536C35.9591 56.1922 36.6714 56.2473 37.3097 56.1011C38.3987 56.0605 39.4753 55.7194 40.3964 55.1256C41.6792 54.298 42.632 53.0259 42.9412 51.5161C43.0878 50.7965 43.1562 50.0475 43.0765 49.316L43.0647 49.2152C43.4816 49.0157 43.9648 48.978 44.4629 48.9603C44.7009 48.9519 44.9354 48.9443 45.1632 48.9544C45.3859 48.9793 45.606 49.0124 45.8267 49.0575C46.0677 49.1303 46.2953 49.2503 46.5055 49.4405L46.52 49.718C46.5594 50.4113 46.6504 51.1067 46.7908 51.7869C46.998 52.7905 47.3313 53.749 48.0407 54.4608C48.2808 54.8196 48.578 55.1398 48.9387 55.4171C50.249 56.4264 52.0293 56.7969 53.6632 56.6573C56.9802 56.3742 58.8976 53.7402 59.3394 52.6143L59.3658 52.5461C59.685 51.7091 59.9394 50.623 60.948 50.4432L61.1625 50.4047C61.6228 50.3182 62.0475 50.1979 62.3173 49.7487C62.4356 49.5526 62.4965 49.3333 62.5114 49.1097C62.6689 49.1218 62.8261 49.1333 62.9828 49.1446C64.2326 49.409 71.7294 49.6332 72.3278 49.6332C72.3278 49.6332 73.478 50.1175 73.9636 49.7422C74.3002 49.4813 74.411 49.1336 74.2257 48.7396C73.9461 48.1468 72.6562 47.7903 72.0835 47.6774C72.0835 47.6774 62.8407 47.7542 62.1755 47.628C61.7639 47.2035 61.0276 47.2616 60.4124 47.1945C59.9031 46.8312 59.1906 46.5879 58.6278 46.425C58.5132 46.3815 58.3996 46.3395 58.2892 46.2999C57.2574 45.9323 56.185 45.7377 55.0962 45.6331C53.9735 45.5264 52.8475 45.5747 51.7313 45.7277C51.2609 45.7915 50.7949 45.874 50.3323 45.982C49.5038 46.0912 48.6801 46.2712 47.8513 46.4847L47.6855 46.5278C46.8127 46.7567 45.9158 46.9547 45.0124 46.7995C44.2768 46.674 43.5695 46.3908 42.8914 46.0846L42.8031 46.0446C41.3119 45.3635 38.9832 44.8496 37.3056 44.8496ZM50.422 47.3398C50.9721 47.2188 51.2071 48.0673 50.6552 48.1887C50.2643 48.2747 49.9331 48.4718 49.7093 48.8058L49.6857 48.8422C49.3854 49.3202 48.626 48.8789 48.9284 48.3978C49.2686 47.8564 49.7973 47.4772 50.422 47.3398ZM34.3076 46.8137C34.5016 46.6771 34.7951 46.7785 34.9077 46.9716C35.0316 47.1843 34.9504 47.4211 34.7687 47.5602L34.7502 47.5738C34.5836 47.6913 34.4213 47.9019 34.4009 48.1176L34.3991 48.1446C34.3773 48.7093 33.5001 48.7121 33.522 48.1446C33.5434 47.5894 33.8647 47.1256 34.3076 46.8137Z" fill="#343840"/>
<path fill-rule="evenodd" clip-rule="evenodd" d="M170.681 92.1146C169.726 88.4103 168.848 86.8398 167.151 85.5523C165.565 84.348 163.248 83.3366 159.869 82.5977C156.349 81.9822 156.249 80.1525 155.366 77.2116C155.109 76.3276 153.833 76.0923 153.282 76.7295C153.205 76.6457 153.124 76.569 153.04 76.4996C153.115 76.078 152.501 74.8695 152.522 74.4662C152.736 70.2564 151.359 68.1424 147.923 67.3566C147.175 67.1856 142.099 67.085 141.371 67.2864C138.185 68.1673 135.049 70.9639 135.529 74.3329C134.529 75.6398 133.551 76.4375 132.008 76.8586C128.575 77.2946 125.142 77.6822 121.708 78.0141C114.986 79.0685 108.683 82.6271 104.376 87.8169C103.979 88.2959 103.864 88.9462 104.214 89.4571C103.94 90.6337 102.394 93.4879 103.61 94.2946C101.61 99.0801 97.0065 108.33 96.9978 110.972C96.9616 122.074 98.1606 136.523 109.114 142.667C109.552 143.098 109.615 143.575 109.805 144.217C110.286 146.238 112.035 147.682 113.95 147.564C123.379 147.774 132.512 146.623 141.942 146.568C146.101 146.543 151.102 147.164 154.714 147.577C158.327 147.991 161.973 147.625 165.44 146.568C165.733 147.028 166.324 147.296 166.923 147.164C170.517 146.45 173.423 144.235 175.955 141.814C176.728 140.406 179.749 136.397 178.548 135.001C179.637 130.399 179.58 125.454 177.646 121.072C177.92 120.268 177.42 119.385 177.646 118.556C177.809 117.956 178.227 117.707 178.438 117.113C178.734 116.276 178.412 115.154 178.078 114.301C177.942 113.875 178.33 113.417 178.438 112.983C178.949 110.936 177.778 111.116 176.933 109.747C176.946 109.743 177.166 108.766 177.165 108.771C177.294 108.073 176.97 107.179 176.687 106.597C176.496 106.203 176.087 105.957 175.681 106.002C176.09 104.613 176.608 103.456 177.165 102.117C178.149 99.757 179.395 97.497 180.809 95.3606C181.388 94.4859 180.61 93.4724 179.673 93.4128C176.641 93.2201 173.642 92.7835 170.681 92.1146Z" fill="white"/>
<path fill-rule="evenodd" clip-rule="evenodd" d="M161.831 109.963C160.619 109.487 159.313 109.224 158 109.122C158.707 108.998 159.415 108.879 160.13 108.817C160.628 108.775 161.091 108.779 161.465 109.157C161.715 109.409 161.832 109.733 161.997 110.032C161.943 110.007 161.887 109.984 161.831 109.963ZM174.849 105.515C172.863 105.616 170.874 106.089 169.077 106.944C168.342 107.295 167.676 107.801 167.481 108.634C167.383 109.06 167.407 109.499 167.459 109.929C167.499 110.254 167.509 110.669 167.791 110.89C167.839 110.927 167.891 110.955 167.945 110.976C167.282 111.275 166.651 111.635 166.09 112.005C165.577 112.344 165.05 112.866 164.813 113.454C164.794 113.387 164.774 113.325 164.754 113.266C164.351 112.073 163.73 111.097 162.752 110.44C162.925 110.363 163.044 110.178 162.988 109.924C162.756 108.862 161.775 107.939 160.668 108.005C159.455 108.076 158.152 108.518 157.056 109.076C156.656 109.067 156.257 109.073 155.863 109.09C155.795 109.092 155.798 109.185 155.863 109.192C156.183 109.233 156.502 109.278 156.822 109.33C157.583 109.452 158.341 109.606 159.082 109.798C159.972 110.028 160.892 110.26 161.724 110.662C163.336 111.443 164.335 113.486 164.13 115.264C164.096 115.555 163.983 116.436 163.579 116.345C163.237 116.269 163.101 115.555 162.982 115.291C162.662 114.59 162.085 114.131 161.394 113.821C160.582 113.456 159.714 113.21 158.872 112.923C158.396 112.759 157.919 112.596 157.441 112.434C156.953 112.266 156.488 112.035 155.968 112.152C155.653 112.223 155.617 112.598 155.794 112.813C156.062 113.141 156.461 113.237 156.848 113.372C157.358 113.55 157.868 113.727 158.377 113.905C159.165 114.179 159.99 114.41 160.758 114.745L160.734 114.8C160.671 114.782 160.598 114.845 160.61 114.922C160.725 115.631 160.885 116.45 160.707 117.161C160.567 117.724 160.073 118.348 159.431 118.182C159.532 118.09 159.569 117.931 159.501 117.784C159.247 117.241 155.916 115.095 155.619 115.892C155.61 115.92 155.64 115.941 155.664 115.937C155.917 115.884 156.341 116.316 156.544 116.453C156.836 116.65 157.133 116.843 157.423 117.046C157.739 117.267 158.048 117.499 158.35 117.739C158.586 117.928 158.765 118.124 159.036 118.219C158.894 118.287 158.781 118.413 158.733 118.574C158.61 118.994 158.374 119.35 157.963 119.536C157.532 119.728 157.047 119.607 156.593 119.654C155.975 119.716 155.436 120.01 154.986 120.43C154.041 121.313 153.566 122.869 152.244 123.287C151.454 123.536 150.578 123.379 149.778 123.266C148.885 123.14 148.015 123.04 147.116 123.172C146.254 123.298 145.44 123.596 144.654 123.96C143.916 124.301 143.101 124.686 142.447 125.195C142.313 124.78 142.177 124.369 142.074 123.944C141.831 122.942 141.699 121.92 141.667 120.89C141.638 119.909 141.692 118.924 141.777 117.947C141.818 117.46 141.884 116.974 141.926 116.487C141.937 116.364 141.959 116.232 141.975 116.101C143.143 115.411 144.37 114.883 145.607 114.34C145.61 114.339 145.614 114.336 145.617 114.335C145.655 114.318 145.692 114.301 145.731 114.285C145.73 114.283 145.729 114.281 145.726 114.278C145.868 114.192 145.966 114.077 146.025 113.947C147.808 112.765 149.298 111.151 150.409 109.268C150.874 108.479 151.323 107.66 151.932 106.969C152.58 106.231 153.35 105.793 154.304 105.565C155.418 105.297 156.566 105.137 157.708 105.046C158.331 104.997 159.028 104.92 159.707 104.924C160.18 104.927 160.644 104.967 161.069 105.085C161.699 105.258 162.067 105.737 162.462 106.221C162.84 106.686 163.216 107.152 163.569 107.636C163.903 108.095 164.219 108.57 164.492 109.067C164.657 109.365 164.809 109.672 164.937 109.989C164.982 110.101 165.041 110.228 165.069 110.344C165.096 110.461 165.046 110.585 165.177 110.585C164.635 110.593 164.64 111.46 165.179 111.428C167.289 111.305 164.267 107.184 163.825 106.61C163.2 105.797 162.554 104.736 161.553 104.358C161.539 104.352 161.523 104.347 161.509 104.343C161.801 104.066 162.031 103.736 162.251 103.399C162.478 103.053 162.748 102.656 162.823 102.245C162.87 101.983 162.545 101.834 162.39 102.063C162.165 102.397 162.057 102.82 161.889 103.188C161.718 103.56 161.51 103.912 161.346 104.288C160.95 104.166 160.523 104.11 160.088 104.092C160.637 103.349 161.575 101.915 161.688 101.731C162.207 100.878 162.701 99.9995 163.173 99.1194C163.684 98.1659 164.121 97.173 164.61 96.2086C164.887 95.6619 165.166 95.1105 165.474 94.5801C165.58 94.3981 165.694 94.2162 165.824 94.0507C165.849 94.018 165.881 93.9906 165.91 93.9598C165.944 93.9411 165.979 93.9203 165.999 93.9095C166.176 93.8075 166.239 93.5708 166.364 93.4206C166.563 93.1785 166.798 93.15 167.098 93.1466C167.737 93.14 168.38 93.1652 169.018 93.1828C169.957 93.2091 170.895 93.2463 171.833 93.2956C172.117 93.311 172.399 93.3263 172.683 93.3439C174.047 93.4251 175.41 93.5313 176.769 93.6618C177.972 93.7767 179.175 93.9643 180.379 94.0541C178.749 97.9282 176.941 101.732 174.895 105.404C174.874 105.441 174.859 105.478 174.849 105.515ZM165.804 115.496C165.541 115.617 165.286 115.767 165.048 115.938C165.087 115.671 165.097 115.391 165.086 115.109C165.282 115.319 165.533 115.44 165.804 115.496ZM177.028 108.832C177.009 108.834 176.992 108.844 176.983 108.862C176.619 109.613 176.771 110.451 177.365 111.04C177.677 111.347 178.355 111.693 178.333 112.197C178.314 112.605 177.87 112.947 177.681 113.283C177.505 113.597 177.439 113.941 177.58 114.281C177.761 114.716 178.266 114.889 178.439 115.316C178.658 115.859 178.302 116.513 178.052 116.985C177.82 117.422 177.52 117.86 177.32 118.322C175.985 119.014 174.79 120.075 173.762 121.152C172.637 122.33 171.672 123.716 169.885 123.681C169.706 123.678 169.57 123.772 169.489 123.903C168.992 123.926 168.493 123.936 167.996 123.938C167.122 123.942 166.248 123.933 165.374 123.906C165.313 123.694 165.358 123.407 165.355 123.229C165.344 122.653 165.338 122.079 165.314 121.504C165.308 121.344 165.301 121.183 165.294 121.023C165.609 121.591 166.222 121.85 166.921 121.811C168.045 121.745 169.176 121.561 170.289 121.395C170.875 121.309 171.46 121.21 172.044 121.105C172.524 121.019 173.201 121.041 173.536 120.657C173.615 120.567 173.62 120.402 173.496 120.342C173.164 120.179 172.955 120.27 172.59 120.34C172.145 120.426 171.699 120.509 171.252 120.585C170.394 120.734 169.534 120.872 168.672 120.994C168.181 121.063 167.689 121.131 167.197 121.185C166.768 121.231 166.284 121.293 165.937 120.97C165.24 120.317 165.631 119.222 166.072 118.562C166.081 118.549 166.081 118.537 166.078 118.526C166.494 118.429 166.909 118.315 167.323 118.235C168.12 118.081 168.922 117.952 169.725 117.837C171.375 117.601 173.036 117.445 174.694 117.289C175.105 117.249 175.109 116.603 174.694 116.641C172.311 116.859 169.917 117.066 167.565 117.526C166.976 117.639 166.391 117.769 165.809 117.915C165.534 117.983 165.24 118.089 164.951 118.092C164.934 118.092 164.916 118.092 164.899 118.091C164.335 118.074 164.252 117.59 164.563 117.188C164.601 117.139 164.64 117.089 164.681 117.042C165.229 116.389 165.911 115.953 166.614 115.501C167.402 115.394 168.188 115.155 168.959 114.98C170.863 114.546 172.767 114.112 174.672 113.679C175.046 113.593 174.887 113.019 174.514 113.103C173.067 113.431 171.621 113.759 170.175 114.086L168.059 114.567C167.636 114.662 167.107 114.854 166.61 114.923C166.365 114.957 166.127 114.961 165.912 114.911C165.219 114.746 165.184 113.879 165.483 113.364C165.818 112.786 166.451 112.424 167.013 112.096C167.987 111.527 169.024 111.119 170.036 110.647C170.216 110.608 170.395 110.569 170.575 110.529C171.62 110.299 172.814 110.186 173.798 109.764C174.093 109.639 173.932 109.174 173.64 109.181C172.877 109.198 172.078 109.469 171.332 109.63C170.525 109.806 169.716 109.98 168.909 110.154C168.828 110.172 168.348 110.325 168.275 110.291C168.229 110.269 168.213 110.109 168.198 110.004C168.148 109.658 168.112 109.294 168.166 108.947C168.284 108.167 168.934 107.801 169.591 107.502C171.055 106.837 172.66 106.421 174.257 106.254C174.625 106.215 174.993 106.191 175.364 106.179C175.799 106.166 176.157 106.089 176.377 106.518C176.723 107.193 176.914 108.061 177.028 108.832ZM174.995 133.309C174.676 132.205 174.763 131.027 174.545 129.902C174.432 129.321 174.278 128.745 174.11 128.178C173.974 127.72 173.748 127.233 173.722 126.755C173.721 126.724 173.758 126.705 173.784 126.72C174.234 126.978 174.58 127.535 174.836 127.972C175.144 128.495 175.378 129.043 175.567 129.62C175.944 130.767 176.254 132.152 175.768 133.309C175.623 133.653 175.115 133.722 174.995 133.309ZM165.139 118.694C165.408 118.668 165.678 118.616 165.947 118.556C165.646 118.849 165.368 119.203 165.213 119.596C165.189 119.294 165.158 118.994 165.118 118.695C165.125 118.695 165.132 118.695 165.139 118.694ZM162.549 141.661C162.073 141.33 161.727 140.866 161.324 140.456C160.928 140.054 161.547 139.434 161.944 139.837C162.288 140.186 162.586 140.622 162.991 140.904C163.186 141.04 163.276 141.286 163.148 141.504C163.035 141.697 162.743 141.797 162.549 141.661ZM159.898 128.91C160.766 128.535 161.619 128.127 162.527 127.856C163.07 127.695 163.299 128.541 162.76 128.702C161.924 128.951 161.139 129.322 160.341 129.667C159.828 129.889 159.382 129.134 159.898 128.91ZM150.736 128.648C150.524 128.124 151.372 127.899 151.581 128.415C151.822 129.009 152.098 129.588 152.338 130.182C152.55 130.706 151.702 130.932 151.493 130.415C151.253 129.821 150.977 129.242 150.736 128.648ZM141.693 139.105C141.551 139.294 141.316 139.396 141.093 139.263C140.907 139.151 140.793 138.854 140.936 138.663C141.354 138.106 141.777 137.556 142.266 137.059C142.663 136.656 143.283 137.277 142.886 137.679C142.449 138.122 142.066 138.608 141.693 139.105ZM140.4 80.43C140.802 80.7049 141.154 81.0388 141.498 81.3824C141.897 81.7819 141.278 82.4017 140.878 82.0023C140.588 81.7127 140.296 81.4188 139.957 81.1871C139.761 81.0532 139.673 80.8041 139.8 80.5873C139.914 80.3931 140.204 80.2966 140.4 80.43ZM153.556 94.5387C153.329 94.9943 153.124 95.4409 153.111 95.9587C153.097 96.5228 152.221 96.5231 152.235 95.9587C152.252 95.2811 152.501 94.6934 152.8 94.0962C153.052 93.5906 153.807 94.0352 153.556 94.5387ZM158.384 83.2075C158.855 82.8933 159.293 83.6531 158.826 83.9646C158.448 84.217 158.069 84.4696 157.69 84.7221C157.219 85.0362 156.781 84.2765 157.248 83.965C157.626 83.7125 158.005 83.46 158.384 83.2075ZM137.446 103.019C137.365 103.576 136.521 103.338 136.6 102.786C136.724 101.933 136.874 101.092 137.105 100.261C137.257 99.7173 138.102 99.9496 137.95 100.494C137.719 101.325 137.569 102.166 137.446 103.019ZM134.373 113.062C133.809 113.05 133.808 112.173 134.373 112.185C134.883 112.196 135.385 112.331 135.877 112.454C136.425 112.59 136.192 113.436 135.644 113.299C135.228 113.195 134.804 113.071 134.373 113.062ZM133.238 133.293C133.044 133.387 132.846 133.472 132.65 133.562C132.257 133.741 131.865 133.921 131.473 134.101C130.657 134.476 129.84 134.852 129.025 135.23C127.393 135.986 125.748 136.715 124.111 137.463C122.443 138.225 120.778 138.998 119.116 139.774C118.333 140.14 117.544 140.492 116.756 140.849C116.083 141.153 115.251 141.685 114.512 141.735C114.474 141.738 114.461 141.69 114.483 141.665C114.762 141.348 115.207 141.163 115.574 140.956C115.949 140.745 116.331 140.547 116.711 140.345C117.504 139.925 118.297 139.509 119.098 139.103C120.698 138.293 122.302 137.489 123.906 136.685C125.542 135.866 127.176 135.041 128.826 134.251C129.603 133.879 130.381 133.508 131.159 133.138C131.58 132.937 132.002 132.737 132.424 132.538C132.606 132.451 132.787 132.358 132.973 132.281C133.22 132.179 133.408 132.2 133.664 132.137C134.08 132.034 134.26 132.563 133.941 132.794C133.677 132.984 133.539 133.146 133.238 133.293ZM127.387 142.283C127.297 142.064 127.486 141.799 127.693 141.744C127.942 141.678 128.142 141.829 128.232 142.05C128.473 142.635 128.815 143.171 129.255 143.624C129.649 144.029 129.03 144.649 128.636 144.244C128.084 143.676 127.687 143.013 127.387 142.283ZM123.083 128.21C122.683 127.81 123.303 127.191 123.702 127.59L124.838 128.726C125.238 129.126 124.618 129.746 124.218 129.346L123.083 128.21ZM111.429 126.358C110.612 126.597 109.66 126.817 109.103 127.514C109.076 127.548 109.03 127.505 109.047 127.471C109.759 125.993 111.803 125.474 113.219 124.956C114.22 124.59 115.247 124.286 116.283 124.015C116.179 122.833 116.465 121.566 116.564 120.39C116.67 119.134 116.756 117.875 116.8 116.615C116.845 115.33 116.856 114.037 116.814 112.752C116.772 111.471 116.606 110.206 116.533 108.93C116.526 108.806 116.698 108.8 116.735 108.902C117.165 110.087 117.349 111.399 117.489 112.648C117.633 113.934 117.681 115.217 117.662 116.511C117.643 117.841 117.566 119.169 117.46 120.495C117.41 121.123 117.351 121.751 117.296 122.379C117.254 122.859 117.234 123.334 117.137 123.798C117.761 123.645 118.388 123.5 119.012 123.359C121.002 122.91 123 122.493 124.982 122.007C125.955 121.769 126.914 121.483 127.883 121.229C128.795 120.991 129.757 120.701 130.693 120.594C131.028 120.556 131.07 121.014 130.849 121.169C130.088 121.703 129.077 122.075 128.198 122.375C127.316 122.675 126.399 122.891 125.495 123.113C123.609 123.577 121.706 123.956 119.805 124.351C117.907 124.746 116.006 125.138 114.129 125.625C113.225 125.859 112.325 126.095 111.429 126.358ZM106.954 102.902C106.466 103.189 106.025 102.431 106.512 102.145C107.148 101.772 107.826 101.491 108.509 101.217C109.034 101.007 109.26 101.855 108.742 102.063C108.128 102.309 107.526 102.567 106.954 102.902ZM105.187 135.475C104.698 135.759 104.257 135.001 104.745 134.718C105.43 134.321 106.18 134.056 106.89 133.708C107.395 133.46 107.839 134.217 107.333 134.465C106.623 134.813 105.872 135.078 105.187 135.475ZM104.392 116.985C104.865 117.435 105.497 117.646 106.092 117.883C106.611 118.088 106.383 118.936 105.859 118.728C105.117 118.434 104.362 118.165 103.772 117.605C103.362 117.216 103.983 116.597 104.392 116.985ZM109.626 91.8747C110.146 92.0787 109.918 92.9263 109.393 92.7202C108.81 92.4916 108.208 92.3175 107.626 92.0889C107.106 91.8849 107.334 91.0374 107.859 91.2434C108.442 91.472 109.043 91.6461 109.626 91.8747ZM118.859 81.9008C119.411 81.8076 119.646 82.6526 119.092 82.7463C118.403 82.8626 117.725 82.9986 117.072 83.2513C116.545 83.4554 116.319 82.6073 116.839 82.4059C117.492 82.1532 118.17 82.0171 118.859 81.9008ZM121.909 106.185C121.402 105.936 121.847 105.18 122.351 105.428C122.883 105.689 123.434 105.891 124.014 106.015C124.566 106.133 124.331 106.978 123.781 106.86C123.128 106.721 122.507 106.479 121.909 106.185ZM124.79 92.5059C125.336 92.3564 125.567 93.2024 125.023 93.3514C124.068 93.6134 123.083 93.7496 122.121 93.9827C121.572 94.1155 121.34 93.2699 121.888 93.1373C122.85 92.9041 123.835 92.7681 124.79 92.5059ZM137.013 88.2133C137.568 88.316 137.332 89.1608 136.78 89.0588C136.193 88.9502 135.599 88.9485 135.004 88.9481C134.439 88.9479 134.44 88.0712 135.004 88.0714C135.68 88.0717 136.347 88.09 137.013 88.2133ZM176.877 92.7936C175.445 92.6566 174.011 92.547 172.574 92.4648C172.508 92.4614 172.442 92.4572 172.375 92.4538C172.367 92.4385 172.358 92.4242 172.348 92.4088C171.879 91.7206 171.534 91.0324 171.235 90.2542C170.949 89.5134 170.671 88.7496 170.231 88.0811C169.729 87.3194 169.051 86.7235 168.307 86.207C167.857 86.5102 167.438 86.8653 167.055 87.2416C166.652 87.6376 166.033 87.0177 166.436 86.6217C166.776 86.2872 167.139 85.9782 167.523 85.6991C167.079 85.4297 166.627 85.1766 166.186 84.9247C164.533 83.9812 162.84 83.1088 161.113 82.311C160.31 81.9394 159.497 81.6095 158.678 81.2753C158.238 81.0956 157.803 80.8643 157.362 80.6562C157.394 80.3448 157.301 79.9963 157.062 79.7914C156.886 79.6412 156.749 79.5853 156.539 79.4792C156.492 79.4626 156.463 79.4527 156.45 79.4473C156.46 79.4495 156.488 79.4582 156.535 79.4736C156.647 79.5252 156.656 79.5097 156.562 79.4286C156.556 79.2512 156.207 78.8764 156.127 78.6934C155.848 78.0653 155.762 77.4012 155.351 76.8291C154.785 76.0411 153.834 75.7431 152.947 76.0104C152.855 75.0624 152.831 74.0729 152.474 73.2268C152.464 73.2039 152.432 73.1939 152.418 73.2191C152.046 73.8537 152.014 74.5605 151.985 75.2926C151.958 75.9797 151.984 76.6822 152.074 77.365C152.017 77.4088 151.959 77.4506 151.899 77.491C151.616 77.6773 151.312 77.8209 150.992 77.9273C150.383 78.1289 149.744 78.2165 149.105 78.2472C147.456 78.3261 145.757 78.1595 144.136 77.8768C142.496 77.5908 139.981 77.1612 138.522 76.3403C137.559 75.799 136.67 75.1381 135.77 74.498C136.096 73.4459 136.18 72.3149 135.851 71.4262C135.811 71.3198 135.645 71.3001 135.613 71.4262C135.407 72.2744 135.347 73.127 135.073 73.9654C135.069 73.9775 135.064 73.9907 135.06 74.0027C134.974 73.9447 134.889 73.8876 134.804 73.8306C134.606 73.7002 134.338 73.7979 134.22 73.9841C132.327 76.9661 129.331 77.137 126.185 77.6698C122.741 78.2527 119.28 78.8818 115.97 80.0226C112.803 81.1143 109.777 82.7034 107.38 85.0772C106.838 85.6146 106.33 86.1872 105.851 86.7851C106.315 86.8435 106.774 86.9344 107.228 87.077C107.765 87.2458 107.534 88.092 106.995 87.9224C106.412 87.7392 105.822 87.6485 105.227 87.6034C103.598 89.8323 102.328 92.3596 101.23 94.8473C99.1233 99.6169 97.7522 104.696 97.1213 109.868C97.4677 109.66 97.8203 109.462 98.1818 109.278C98.684 109.023 99.1269 109.779 98.6242 110.035C98.0659 110.319 97.5235 110.632 96.9981 110.972C96.7686 113.236 96.6796 115.514 96.7335 117.788C96.8617 123.211 97.5936 128.793 99.249 133.966C100.061 136.506 101.137 139.024 102.739 141.17C103.465 142.142 104.289 143.019 105.259 143.75C105.729 144.105 106.227 144.422 106.751 144.689C107.427 145.035 108.308 145.149 108.891 145.639C109.083 145.8 109.231 146.013 109.342 146.253C109.278 146.709 109.27 147.166 109.395 147.622C109.434 147.764 109.542 147.88 109.674 147.936C109.677 147.976 109.677 148.014 109.677 148.051C109.677 148.069 109.703 148.073 109.706 148.056C109.712 148.022 109.717 147.988 109.723 147.953C109.765 147.967 109.81 147.974 109.856 147.974C111.52 147.98 113.187 147.939 114.853 147.883C114.724 147.488 114.585 147.096 114.451 146.702C114.269 146.165 115.115 145.937 115.296 146.469C115.453 146.93 115.616 147.388 115.762 147.851C117.548 147.785 119.333 147.705 121.114 147.646C124.904 147.52 128.692 147.478 132.483 147.398C138.37 147.273 144.299 147.018 150.195 147.268C150.399 146.835 150.627 146.412 150.843 145.985C151.099 145.481 151.854 145.925 151.6 146.428C151.45 146.724 151.294 147.017 151.146 147.313C152.34 147.375 153.533 147.457 154.723 147.569C156.754 147.76 158.766 148.099 160.795 148.309C162.858 148.524 164.876 148.485 166.922 148.145C167.291 148.083 167.507 147.861 167.597 147.585C167.6 147.583 167.603 147.581 167.605 147.578C167.71 147.455 167.809 147.353 167.911 147.265C168.032 147.186 168.164 147.119 168.318 147.06C168.606 146.95 168.907 146.883 169.211 146.838C169.546 146.788 169.886 146.783 170.221 146.742C170.504 146.706 170.78 146.652 171.056 146.586C171.552 146.468 172.023 146.313 172.492 146.108C172.901 145.93 173.27 145.673 173.619 145.394C174.339 144.867 174.964 144.194 175.51 143.495C175.827 143.086 176.126 142.662 176.398 142.22C176.871 141.455 177.274 140.66 177.682 139.859C177.83 139.622 177.965 139.379 178.088 139.131C177.292 138.896 176.488 138.705 175.643 138.691C175.079 138.682 175.079 137.805 175.643 137.814C176.612 137.83 177.528 138.056 178.438 138.326C178.482 138.208 178.525 138.089 178.564 137.969C178.672 137.718 178.762 137.46 178.837 137.199C178.881 137.081 178.924 136.963 178.968 136.844C179.067 136.435 179.165 136.024 179.265 135.613C179.463 134.955 179.62 134.288 179.735 133.611C179.832 133.166 179.906 132.718 179.956 132.265C180.11 131.165 180.235 130.068 180.243 128.957C180.23 128.272 180.187 127.588 180.112 126.908C180.08 126.445 180.027 125.985 179.954 125.528C179.86 124.848 179.767 124.176 179.61 123.505C179.493 123.051 179.376 122.597 179.259 122.144C178.966 121.198 178.621 120.271 178.223 119.364C178.201 119.307 178.091 119.182 178.024 119.181C177.973 119.18 177.903 119.226 177.926 119.288C177.929 119.293 177.931 119.3 177.933 119.305C177.91 119.254 177.888 119.201 177.865 119.15C177.845 119.101 177.769 119.005 177.709 119.006C177.706 119.006 177.703 119.006 177.698 119.007C177.714 118.996 177.728 118.982 177.742 118.966C178.136 118.5 178.391 117.887 178.672 117.348C178.906 116.903 179.126 116.434 179.19 115.931C179.245 115.489 179.17 115.054 178.893 114.697C178.577 114.29 177.983 114.099 178.313 113.512C178.688 112.844 179.239 112.264 178.69 111.504C178.411 111.117 177.968 110.905 177.639 110.568C177.261 110.179 177.082 109.659 177.092 109.127C177.115 109.14 177.145 109.134 177.156 109.101C177.474 108.141 177.244 107.087 176.918 106.152C176.741 105.644 176.365 105.505 175.928 105.48C177.821 101.781 179.593 98.0233 181.171 94.1788C181.224 94.0527 181.276 93.9268 181.327 93.8007C181.404 93.6122 181.242 93.3613 181.054 93.3195C179.689 93.0204 178.267 92.925 176.877 92.7936Z" fill="#343840"/>
<path fill-rule="evenodd" clip-rule="evenodd" d="M161.083 46.9826C160.823 43.6133 161.227 40.0818 159.928 36.8793C157.664 31.5656 151.314 29.794 146.392 27.771C144.419 27.1881 137.784 27.1066 135.475 26.3352C130.249 24.5891 129 22.5088 124.848 25.8333C124.147 26.4012 123.708 27.0184 123.388 27.8617L123.401 27.8653C123.31 28.2169 123.408 28.5677 123.614 28.8357C121.813 30.6766 121.06 33.4366 121.984 35.8872C124.998 42.2643 124.857 45.7125 123.885 52.5682C122.617 58.9684 125.515 61.3063 130.316 64.7888C130.12 65.1678 130.08 65.6716 130.335 66.0061C135.886 73.809 146.352 77.5346 155.32 73.5741C158.96 71.9534 160.585 68.0757 161.512 64.5767C162.592 60.6589 162.924 56.5305 162.045 52.5396C161.69 50.6938 161.228 48.8614 161.083 46.9826Z" fill="white"/>
<path fill-rule="evenodd" clip-rule="evenodd" d="M129.065 9.6538C129.738 9.55259 130.247 9.97077 130.489 10.5602L130.502 10.5919C130.58 10.7925 130.666 10.9875 130.759 11.1793C132.446 10.3519 134.851 10.5645 135.918 12.2402C136.68 13.437 136.215 14.8573 135.928 16.1264L135.74 16.9626C136.104 17.1944 136.379 17.6097 136.366 18.0396L136.364 18.0727L136.288 19.2388C136.531 18.9922 136.753 18.7237 136.952 18.4377C137.089 18.1867 137.236 17.9401 137.395 17.7012C138.33 16.2951 140.428 17.5171 139.657 19.0229C139.509 19.3133 139.342 19.5884 139.164 19.8536C138.962 20.2449 138.797 20.6471 138.669 21.0602C139.034 21.2192 139.315 21.572 139.344 22.1047C139.413 23.3485 138.76 24.3864 137.722 25.0385C137.416 25.2303 137.101 25.2675 136.815 25.1963C136.764 25.2642 136.714 25.3322 136.666 25.4012C137.08 25.7377 137.453 26.1212 137.774 26.5465C138.741 26.4018 139.712 26.3339 140.684 26.3317C141.872 25.7497 143.294 25.7618 144.57 25.9799C145.392 26.1201 146.181 26.393 146.989 26.5892C147.842 26.7952 148.707 26.8029 149.569 26.9432C150.656 27.1196 151.609 27.6216 152.209 28.4227C152.867 28.4424 153.559 28.712 154.133 29.0781C155.47 29.9307 156.799 30.7954 158.132 31.6535C158.644 31.9829 158.835 32.5089 158.741 33.0955L158.735 33.133L158.69 33.3763L158.795 33.5261C159.203 34.1024 159.647 34.7062 159.912 35.3424C160.4 36.0471 160.842 36.7857 161.233 37.5474C161.76 38.571 162.195 39.656 162.489 40.7694C162.563 41.0511 162.636 41.3349 162.684 41.6221C162.753 42.0276 162.647 42.3421 162.589 42.7312C162.517 43.2243 162.49 43.7241 162.414 44.2183C162.362 44.546 162.084 44.7071 161.793 44.7159C161.902 45.5499 161.981 46.3894 162.057 47.2223C162.163 48.4125 162.235 49.6059 162.298 50.7994C162.62 51.2674 163.278 51.6378 163.754 51.766C164.412 51.9425 165.102 51.7507 165.725 51.526C166.116 51.3846 166.437 51.8767 166.246 52.2055C165.647 53.2378 164.365 53.2335 163.394 52.7765C162.983 52.5836 162.623 52.3041 162.356 51.9403C162.372 52.2866 162.39 52.6329 162.407 52.9803L162.424 53.295C162.621 56.9698 163.047 60.7711 162.357 64.4098C161.162 70.7124 155.947 75.5115 149.578 75.8841C146.236 76.0797 143.452 75.0922 142.068 74.5413C140.684 73.9904 141.222 72.8671 142.183 73.1882C143.838 73.7413 146.879 74.5654 149.6 74.2096C156.013 73.3709 161.452 70.1643 160.893 56.3536C160.814 54.3951 160.57 52.4356 160.517 50.4772C160.467 48.5626 160.486 46.6469 160.401 44.7334L160.373 44.0806C160.34 43.3177 160.305 42.5513 160.248 41.7876C160.179 41.4917 160.122 41.1914 160.037 40.901C159.809 40.1108 159.509 39.3425 159.138 38.6094C159.056 38.6718 158.964 38.7168 158.864 38.7343C158.107 38.8702 157.397 38.8318 156.688 38.5162C156.357 38.3705 156.066 38.1765 155.794 37.9365C155.665 37.8236 155.579 37.714 155.511 37.6C155.168 37.6055 154.825 37.5025 154.61 37.2559C154.365 36.9748 154.324 36.6846 154.42 36.4158L154.43 36.389L154.406 36.3802C154.117 37.1288 153.541 37.7874 152.909 38.2324C151.909 38.9381 150.659 39.142 149.461 39.1606C148.137 39.1803 146.742 38.9765 145.436 38.7683C145.091 38.7135 144.748 38.651 144.411 38.5666C144.398 38.5798 144.385 38.5951 144.371 38.6083C143.25 39.6812 141.674 39.9574 140.251 39.3447C139.43 38.9908 138.741 38.4209 138.132 37.7677C138.123 38.1096 138.105 38.4516 138.076 38.7902L138.063 38.9247C138.003 39.5554 137.886 40.2244 137.41 40.6796C136.639 41.4171 135.522 41.1212 134.633 40.6412C134.634 40.6642 134.634 40.6883 134.634 40.7125C134.874 41.5278 135.115 42.3443 135.356 43.1608L135.408 43.3347C135.584 43.9144 135.776 44.4949 135.829 45.1017C135.929 46.2612 135.158 47.4064 133.87 47.0173C133.194 46.814 132.653 46.2456 132.133 45.7903L131.806 45.5071C132.653 48.2766 133.24 51.1446 133.295 54.0346C133.298 54.1913 133.163 54.3097 133.014 54.3151C132.666 54.3294 132.291 54.2603 131.94 54.1212C131.921 54.1201 131.901 54.119 131.88 54.1157C131.282 54.0291 130.727 53.8132 130.237 53.4943C130.35 53.8527 130.4 54.2373 130.371 54.6395C130.363 54.7371 130.211 54.771 130.189 54.6636C129.906 53.2729 128.279 52.2219 126.877 52.4882C125.371 52.7743 124.263 54.0697 123.991 55.5437C123.7 57.1273 124.257 58.9586 125.29 60.1806C125.766 60.7439 126.391 61.214 127.134 61.3324C127.474 61.3861 127.827 61.3674 128.156 61.271C128.297 61.2294 128.428 61.1713 128.562 61.1165C128.757 61.0376 128.985 61.0255 129.169 60.9422C129.586 60.7548 130.006 61.1395 129.794 61.568C129.61 61.9417 129.445 62.1938 129.139 62.3867C129.387 62.6891 129.611 63.11 129.695 63.2229C130.12 63.7971 130.551 64.3396 131.036 64.8646C131.529 65.3972 132.066 65.8838 132.635 66.3342L132.874 66.5231C133.422 66.9576 133.899 67.3603 134.285 67.9836C134.59 68.4757 134.195 69.1431 133.624 69.1354C131.839 69.1102 130.54 67.5408 129.616 66.1698C129.484 65.9736 129.36 65.7665 129.245 65.5539C129.204 65.6208 129.158 65.6832 129.106 65.7402L129.208 66.0142C129.51 66.8208 128.208 67.3479 127.83 66.595C127.555 66.0493 127.236 65.5298 126.881 65.0388C126.672 65.0092 126.467 64.8821 126.353 64.7177C126.065 64.3002 125.742 63.8782 125.469 63.4333C125.318 63.2897 125.162 63.1516 125.003 63.0168C124.957 63.0574 124.91 63.0979 124.865 63.1407C124.666 63.5955 124.419 64.0108 124.114 64.4021L124.048 64.4855C123.463 65.2238 122.7 65.9794 121.756 66.16C121.468 66.2147 121.191 65.8564 121.446 65.6273C122.107 65.0333 122.888 64.6289 123.497 63.9659C123.797 63.6392 124.073 63.2795 124.309 62.9025L124.363 62.8152C124.403 62.7505 124.443 62.6859 124.485 62.6201C124.21 62.4327 123.935 62.2442 123.66 62.0557C122.903 62.7026 121.917 62.9986 121.08 63.5345L120.997 63.5889C120.24 64.0952 119.442 62.9752 120.049 62.3604C120.718 61.6852 121.277 60.88 121.869 60.1295C121.591 59.6159 121.459 59.0087 121.409 58.395C121.39 58.2213 121.375 58.0474 121.359 57.8736C120.934 57.8802 120.507 57.7344 120.146 57.4835L120.009 57.3859C119.569 57.5262 119.108 57.5942 118.667 57.5821C117.628 57.5514 117.203 56.3645 117.853 55.6138C118.515 54.8467 119.676 54.679 120.595 55.0516C120.624 55.0363 120.655 55.0198 120.685 55.0034C120.641 54.8017 120.65 54.6188 120.7 54.4582L120.686 54.3602C120.484 54.0499 120.351 53.6957 120.3 53.3215C120.261 53.025 120.269 52.7312 120.337 52.4385C120.36 52.341 120.407 52.2401 120.444 52.1385C120.369 51.9498 120.325 51.7547 120.312 51.5585C120.291 51.5337 120.27 51.5081 120.25 51.4805C119.794 50.8399 119.886 50.0681 120.32 49.5497C120.322 49.5167 120.325 49.4837 120.33 49.451C120.304 49.3938 120.281 49.336 120.26 49.2776C119.836 48.8496 119.524 48.3347 119.582 47.6965C119.616 47.321 119.771 46.983 120.004 46.7304C119.963 46.6079 119.959 46.466 120.009 46.3475C119.636 45.3561 119.683 44.1621 119.952 43.0534C119.892 42.8846 119.862 42.7016 119.868 42.5076C119.899 41.6845 120.611 40.9284 121.455 40.9382C121.556 40.9391 121.651 40.9524 121.743 40.9718L121.744 40.9521C121.776 40.7051 121.844 40.4768 121.943 40.272C121.895 40.2544 121.849 40.229 121.81 40.1954C121.269 40.4838 120.697 40.7043 120.098 40.8546C119.657 40.9651 119.205 40.4637 119.479 40.0496C119.606 39.8575 119.747 39.685 119.898 39.5274C119.683 39.5286 119.465 39.5432 119.244 39.5716C118.847 39.6231 118.405 39.3524 118.147 38.9864C117.827 39.2976 117.506 39.6078 117.185 39.9179C116.372 40.7059 115.144 40.1261 115.016 39.0872C114.774 39.0225 114.548 38.9129 114.35 38.7562C113.068 39.313 111.689 39.6187 110.279 39.6768C109.267 39.7185 108.675 38.5392 109.148 37.7063C109.466 37.1474 109.86 36.6455 110.315 36.2093C109.609 36.4252 108.881 36.5808 108.137 36.6805C107.735 36.7342 107.166 36.4011 107.005 36.0317C106.39 34.6114 106.442 33.1308 107.151 31.7488C107.178 31.694 107.209 31.6414 107.239 31.5888C107.312 31.4058 107.392 31.225 107.479 31.0475C106.606 30.1378 106.531 28.7855 107.001 27.6534C106.812 27.3476 106.74 26.9794 106.868 26.6462C107.233 25.6873 107.759 24.8017 108.423 24.0412C108.359 23.9184 108.303 23.788 108.256 23.6477C107.883 22.5134 108.316 21.1446 109.189 20.3545C109.738 19.8569 110.369 19.5588 111.042 19.3681C111.326 18.8662 111.691 18.4136 112.116 18.0322C112.133 17.996 112.149 17.9599 112.168 17.9237C112.829 16.6765 114.034 16.008 115.326 15.8535C115.377 15.3658 115.705 14.9 116.183 14.7488C116.314 14.3268 116.51 13.9235 116.78 13.5575C117.204 12.981 117.908 12.7093 118.572 13.0874C118.936 13.2945 119.284 13.5323 119.611 13.7953C119.758 13.7265 119.924 13.682 120.111 13.6678L120.159 13.6649L121.239 13.6101C121.691 13.4096 122.143 13.1991 122.595 12.9942C122.867 12.7695 123.17 12.5821 123.501 12.4429C123.876 12.2862 124.259 12.1975 124.644 12.1679C124.956 12.0659 125.271 11.9761 125.591 11.9059C126.342 11.7415 127.129 11.6495 127.909 11.6572C127.925 11.4552 127.933 11.2508 127.931 11.044L127.93 10.9404C127.912 10.2774 128.441 9.74805 129.065 9.6538ZM128.308 62.7022C128.2 62.7253 128.092 62.7439 127.983 62.757C128.016 62.8381 128.049 62.9192 128.081 63.0003C128.168 63.0496 128.257 63.0968 128.346 63.1406C128.32 62.9916 128.304 62.8414 128.308 62.7022ZM122.679 61.0291L122.606 61.1633C122.594 61.1852 122.583 61.2069 122.571 61.2282C122.726 61.2162 122.881 61.2195 123.035 61.237L123.034 61.2207C123.014 61.214 122.995 61.2078 122.976 61.1986C122.87 61.1478 122.772 61.0908 122.679 61.0291ZM125.721 54.9081C126.69 54.9645 127.511 55.1132 128.393 55.5374L128.469 55.5744C129.248 55.9613 130.536 56.6758 130.427 57.7005C130.397 57.992 130.185 58.2989 129.852 58.2759C128.94 58.2134 128.418 57.2928 127.8 56.7185C127.177 56.1399 126.411 55.5448 125.656 55.147C125.55 55.091 125.592 54.9137 125.708 54.908L125.721 54.9081ZM121.325 41.4073C121.093 41.415 121.171 41.6407 121.29 41.4522C121.3 41.4369 121.312 41.4215 121.325 41.4073ZM133.863 26.3358C131.663 26.3937 129.449 27.6929 127.801 29.0061C126.368 30.1486 125.13 31.5076 124.034 32.9723C123.752 33.7018 123.51 34.4464 123.305 35.1966C123.17 35.692 123.086 36.1928 122.973 36.6925L122.938 36.8458C122.85 37.0115 122.784 37.1898 122.736 37.374C122.935 37.5743 123.195 37.7178 123.48 37.7858C123.572 37.8078 123.648 37.8552 123.708 37.9181C123.938 37.5348 124.139 37.1302 124.256 36.7012L124.26 36.6814C124.701 35.9582 125.181 35.2574 125.695 34.5807C127.112 32.7121 128.673 31.0091 130.55 29.592C131.973 28.518 133.564 27.6763 135.256 27.1295C134.842 26.7953 134.371 26.531 133.863 26.3358Z" fill="#343840"/>
<path fill-rule="evenodd" clip-rule="evenodd" d="M153.693 66.9722C152.886 67.206 152.02 67.2269 151.197 66.9854C150.451 66.7664 149.685 66.2843 149.135 65.6465C148.648 65.0798 148.332 64.3912 148.344 63.6561C148.345 63.5722 148.375 63.5021 148.422 63.4477C148.471 63.3892 148.541 63.349 148.615 63.3315C148.691 63.3136 148.772 63.3199 148.841 63.3512C148.903 63.3795 148.957 63.4276 148.99 63.4979C149.075 63.6088 149.159 63.7181 149.243 63.8243C149.922 64.6625 150.579 65.2889 151.599 65.5136C152.153 65.6355 152.706 65.5814 153.213 65.3954C153.756 65.1963 154.247 64.8462 154.632 64.3981C154.806 64.1956 155.011 64.113 155.212 64.1116C155.439 64.11 155.664 64.2158 155.833 64.3847C156 64.5508 156.111 64.7765 156.121 65.0126C156.13 65.2199 156.063 65.4363 155.883 65.6294C155.291 66.2656 154.523 66.7316 153.693 66.9722ZM153.668 56.474C154.495 56.977 155.756 58.15 154.866 59.3971C153.818 60.4967 152.31 59.236 151.567 58.6658C150.877 58.2239 150.103 59.3604 150.742 59.8764C156.113 63.8541 158.293 56.6055 154.086 55.8826C153.623 55.8029 153.451 56.3184 153.668 56.474ZM145.929 54.2606C145.663 54.0905 145.35 54.0321 145.004 54.1898C144.733 54.3131 144.258 54.7239 143.927 55.2639C143.701 55.6334 143.54 56.0668 143.574 56.5183C143.581 56.6231 143.543 56.7004 143.482 56.7576C143.433 56.8027 143.364 56.8359 143.282 56.8463C143.212 56.8551 143.134 56.8472 143.071 56.8274C142.951 56.7898 142.887 56.7118 142.863 56.648C142.632 56.033 142.731 55.3466 142.991 54.7274C143.341 53.8918 143.977 53.1918 144.394 52.9661C145.107 52.5798 145.948 52.562 146.662 52.9556C147.269 53.2905 147.65 53.8313 148.027 54.3826C148.108 54.4998 148.188 54.6161 148.27 54.7304C148.435 54.9594 148.452 55.1865 148.388 55.3812C148.317 55.597 148.136 55.779 147.91 55.8743C147.701 55.9624 147.459 55.9748 147.244 55.8843C147.063 55.8079 146.897 55.6588 146.792 55.406C146.615 54.9802 146.319 54.5104 145.929 54.2606ZM159.434 55.208C159.251 55.3029 159.109 55.3315 158.907 55.271C158.795 55.2374 158.685 55.1731 158.598 55.0866C158.513 55.0009 158.451 54.8944 158.427 54.7761C158.368 54.4844 158.208 54.2112 157.981 54.0332C157.786 53.881 157.541 53.8004 157.269 53.8459C156.975 53.8949 156.696 54.0833 156.503 54.3054C156.438 54.3797 156.388 54.4642 156.337 54.548C156.242 54.7048 156.15 54.8505 156.019 54.9657C155.969 55.0095 155.895 55.0398 155.822 55.0398C155.793 55.0398 155.763 55.035 155.734 55.0262C155.442 54.7327 155.386 54.5101 155.395 54.2893C155.405 54.0577 155.496 53.8233 155.644 53.6046C155.99 53.0915 156.647 52.6707 157.09 52.5755C157.697 52.445 158.3 52.6016 158.783 52.9407C159.28 53.2897 159.649 53.8315 159.764 54.442C159.791 54.5891 159.78 54.7478 159.724 54.8854C159.669 55.0199 159.574 55.1351 159.434 55.208ZM147.268 48.79C146.903 49.1451 146.472 49.2 146.036 49.249C145.794 49.2764 145.6 49.2985 145.41 49.3415C144.887 49.4596 144.369 49.6376 143.897 49.8939C143.404 50.1618 142.867 50.485 142.48 50.8989C142.388 50.9974 142.301 51.1008 142.214 51.2043C142.135 51.2988 142.059 51.3897 141.979 51.4774C141.886 51.5781 141.799 51.6837 141.711 51.789C141.657 51.8778 141.647 51.8996 141.636 51.9224C141.62 51.9566 141.601 51.9948 141.579 52.0358C141.549 52.092 141.514 52.1535 141.478 52.2093C141.417 52.3112 141.385 52.3393 141.357 52.3519C141.31 52.3727 141.266 52.3829 141.223 52.3774C141.182 52.3722 141.144 52.3528 141.107 52.3212C140.92 52.1631 140.865 51.9037 140.871 51.6283C140.879 51.2105 141.033 50.7478 141.175 50.4634C141.505 49.8026 141.963 49.1157 142.514 48.6225C143.143 48.0595 143.83 47.6333 144.62 47.3396C145.111 47.1571 145.679 46.9895 146.213 47.0106C146.598 47.0259 146.966 47.1403 147.269 47.4261C147.455 47.6015 147.545 47.851 147.545 48.1004C147.545 48.3547 147.452 48.6105 147.268 48.79ZM160.174 52.0411C160.151 52.079 160.119 52.1052 160.083 52.1209C160.046 52.1374 160.004 52.1422 159.964 52.1354C159.924 52.1287 159.886 52.1106 159.856 52.0829C159.828 52.0564 159.806 52.0213 159.796 51.9783C159.554 50.9157 159.084 50.1251 158.082 49.6153C157.589 49.3645 157.022 49.2052 156.485 49.0782C156.329 49.0412 156.164 49.0173 155.998 48.9931C155.478 48.9171 154.954 48.8301 154.615 48.4095C154.411 48.1562 154.325 47.8321 154.374 47.5358C154.419 47.2568 154.582 47.001 154.879 46.8477C155.616 46.4662 156.533 46.8405 157.278 47.1594C157.333 47.1831 157.387 47.2063 157.44 47.2287C158.169 47.5363 158.833 47.9423 159.379 48.5229C159.812 48.9835 160.214 49.6644 160.376 50.3649C160.51 50.9476 160.478 51.5426 160.174 52.0411Z" fill="#343840"/>
<path d="M36.8715 35.9662C37.7668 35.0708 38.5952 34.273 39.38 33.4342C39.5573 33.2447 39.5822 32.9127 39.6773 32.6463C39.4109 32.753 39.0702 32.7885 38.8894 32.9772C36.9565 34.9945 34.5711 36.2023 31.9184 36.9436C30.7798 37.2619 29.643 37.5931 28.4893 37.8448C28.2462 37.8978 27.9328 37.6286 27.6518 37.5078C27.7963 37.2737 27.887 36.9156 28.0941 36.8257C29.4029 36.2578 30.6996 35.5973 32.0719 35.2538C34.67 34.6035 36.5321 32.921 38.6159 31.3915C41.2633 29.4482 41.715 26.7766 42.032 24.0183C42.3036 21.6546 41.0726 19.6077 39.7642 17.7046C37.2831 14.096 33.8917 12.1446 29.4856 11.6729C24.3845 11.1268 20.4354 13.0597 17.0652 16.666C16.6975 17.0595 16.082 17.2214 15.5815 17.4907C15.7223 16.8085 15.6437 15.9423 16.0377 15.4725C20.1639 10.5522 27.5544 8.4134 34.276 11.3079C39.4176 13.522 42.7141 17.4035 43.5992 22.6875C44.2938 26.8339 43.1015 31.0715 40.3022 34.4688C37.9506 37.3227 35.0951 39.5007 31.2739 40.2135C26.6439 41.0772 22.3899 40.383 18.5273 37.6474C14.9115 35.0867 12.7819 31.6167 12.2898 27.1871C12.1543 25.9666 11.9826 24.7396 12.0014 23.5183C12.0077 23.1104 12.556 22.7109 12.8566 22.3076C13.1079 22.705 13.531 23.0812 13.5832 23.5033C13.9923 26.8079 14.7268 30.0297 16.2273 33.0079C17.9275 36.3825 21.1661 37.9053 24.5113 38.7777C27.9 39.6615 31.386 39.1614 34.5834 37.5247C35.3654 37.1244 36.056 36.5456 36.8715 35.9662Z" fill="#F7B32B"/>
<path d="M22.4679 28.0192C22.4692 27.5212 22.5534 27.106 22.6375 26.6908C22.9425 26.8329 23.3029 26.9128 23.5435 27.1271C25.1815 28.586 24.9982 28.4944 26.0528 26.6616C27.1812 24.7008 26.8777 23.0962 25.9142 21.2003C24.8856 19.1765 26.0241 18.3323 27.676 17.6885C27.8194 17.6327 28.0625 17.6031 28.1558 17.6827C29.448 18.7855 30.5551 15.3095 31.3531 17.2817C31.9684 18.8024 33.2496 19.4483 33.9492 20.6744C34.1394 21.008 33.9603 21.5523 33.9508 21.9998C33.5679 21.9324 33.0982 21.9843 32.8157 21.7789C30.3003 19.9503 30.2925 19.932 29.4787 22.8603C29.386 23.1939 29.5369 23.6698 29.7238 23.9938C30.619 25.5458 32.242 26.8511 30.9572 28.9961C29.884 30.7881 26.6676 31.7373 25.0027 30.5109C24.0894 29.8383 23.3619 28.9133 22.4679 28.0192ZM27.5175 26.7776C27.3273 27.2988 27.027 27.8114 26.9849 28.3444C26.9558 28.7122 27.2839 29.1081 27.4525 29.4915C28.1666 29.1085 29.0779 28.8759 29.5256 28.2894C29.8235 27.899 29.5447 26.9791 29.361 26.3433C29.2463 25.9461 28.8285 25.6365 28.5467 25.2875C28.2588 25.729 27.9709 26.1705 27.5175 26.7776ZM28.6764 20.6519C28.6966 20.2306 28.7168 19.8094 28.7371 19.3881C28.2446 19.6194 27.6066 19.7418 27.319 20.1263C27.1674 20.3288 27.6276 20.989 27.8115 21.4426C28.0446 21.2342 28.2777 21.0258 28.6764 20.6519Z" fill="#F7B32B"/>
<path d="M24.289 37.125C24.2551 36.7726 24.304 36.5029 24.3528 36.2333C24.6351 36.4204 24.9173 36.6075 25.1996 36.7947C24.9237 36.9324 24.6478 37.0701 24.289 37.125Z" fill="#F7B32B"/>
<path d="M20.3157 34.9728C20.6744 34.9757 20.9503 35.0613 21.2263 35.147C21.0887 35.3644 20.9512 35.5818 20.8137 35.7993C20.6201 35.5514 20.4265 35.3035 20.3157 34.9728Z" fill="#F7B32B"/>
<path d="M78.7813 107.468C79.4759 105.491 80.1312 103.591 79.1639 101.589C79.0552 101.364 79.0905 101.04 79.1409 100.777C79.1895 100.523 79.344 100.29 79.452 100.048C79.6511 100.216 79.9298 100.345 80.0369 100.559C81.1503 102.787 81.1875 105.095 80.2547 107.36C78.3688 111.94 74.6603 113.725 70.1494 113.007C67.036 112.512 64.6551 110.573 63.6044 107.391C63.5199 107.135 63.6172 106.819 63.6301 106.531C63.9182 106.658 64.3066 106.706 64.477 106.925C65.2028 107.855 65.7235 108.989 66.5731 109.772C70.4996 113.393 76.3715 112.183 78.7813 107.468Z" fill="#F7B32B"/>
<path d="M71.9854 104.971C71.4929 104.386 71.0444 103.889 70.6573 103.348C70.4642 103.078 70.1832 102.616 70.2854 102.432C70.8083 101.49 71.5756 100.666 71.5119 99.4812C71.8316 99.5322 72.387 99.5072 72.432 99.6468C72.6959 100.466 72.9724 101.321 72.9898 102.169C73.0085 103.08 73.2366 103.633 74.0976 104.066C76.2356 105.142 76.3454 106.874 74.5201 108.446C74.2476 108.681 74.2723 109.248 74.13 109.651C74.0171 109.971 73.8591 110.275 73.7211 110.586C73.4335 110.393 73.1188 110.229 72.8631 110C71.9046 109.14 72.1882 108 72.1853 106.918C72.1837 106.292 72.1009 105.666 71.9854 104.971ZM74.1351 105.457C73.8583 105.55 73.5815 105.643 73.3047 105.736C73.6536 106.403 74.0026 107.07 74.3516 107.737C74.3577 107.055 74.3653 106.374 74.3661 105.692C74.3661 105.66 74.3059 105.628 74.1351 105.457Z" fill="#F7B32B"/>
<path d="M67.6859 97.4822C65.6536 98.7944 64.4498 100.53 64.1419 102.861C64.1035 103.152 63.9937 103.444 63.8619 103.709C63.7696 103.894 63.5833 104.033 63.439 104.192C63.306 103.971 63.0863 103.761 63.0534 103.526C62.7855 101.607 63.5552 99.9988 64.6913 98.5502C66.0948 96.7607 67.9708 95.6569 70.1497 95.0663C70.45 94.9849 70.8253 94.9677 71.1057 95.0762C71.4946 95.2267 71.8265 95.5244 72.1828 95.7591C71.8703 95.8943 71.5636 96.0453 71.2443 96.1617C70.0836 96.585 68.9186 96.9967 67.6859 97.4822Z" fill="#F7B32B"/>
<path d="M73.6497 96.0952C74.0776 95.8872 74.6964 95.4911 75.0494 95.6578C76.1382 96.172 77.1434 96.8755 78.1369 97.5688C78.3291 97.703 78.3214 98.1237 78.4059 98.4123C78.0902 98.4474 77.6936 98.6225 77.4724 98.4945C76.1983 97.7576 74.9657 96.9489 73.6497 96.0952Z" fill="#F7B32B"/>
<path d="M169.51 79.348C169.049 78.348 168.517 77.491 168.157 76.5668C167.986 76.128 168.144 75.5611 168.153 75.0523C168.451 75.446 168.789 75.8162 169.041 76.2377C169.795 77.497 170.379 78.8839 171.277 80.0253C173.137 82.389 175.791 82.6746 178.551 81.5024C181.872 80.0918 183.684 77.2536 184.135 74.0198C184.493 71.4469 183.692 68.6542 181.226 66.8675C181.018 66.7172 181.02 66.2772 180.925 65.9718C181.206 65.9696 181.526 65.8774 181.762 65.9797C183.256 66.6285 183.883 68.0435 184.481 69.3824C185.266 71.1412 185.583 73.129 185.116 74.9396C184.71 76.5134 183.611 77.9214 182.75 79.362C181.304 81.7822 178.888 82.8096 176.312 83.1747C175.11 83.3451 173.65 82.787 172.532 82.1594C171.382 81.5144 170.506 80.3823 169.51 79.348Z" fill="#F7B32B"/>
<path d="M180.124 67.8109C179.823 68.8493 178.74 69.7668 180.112 70.7129C180.178 70.7585 180.13 71.1262 180.025 71.2182C179.925 71.306 179.598 71.3052 179.513 71.2126C178.819 70.4585 178.705 71.1778 178.515 71.6023C178.217 72.2691 178.267 72.8166 178.683 73.5358C179.172 74.3825 179.658 75.4882 178.733 76.4567C178.435 76.7688 178.065 77.2141 177.709 77.2314C176.644 77.2834 175.96 77.6905 175.551 78.692C175.435 78.9773 175.001 79.1329 174.712 79.3479C174.67 78.9699 174.621 78.5925 174.588 78.2137C174.549 77.7532 174.59 77.2736 174.47 76.8364C174.38 76.505 174.013 76.2493 173.921 75.9178C173.855 75.6788 173.963 75.2939 174.138 75.1205C174.252 75.0084 174.71 75.0671 174.87 75.2102C175.725 75.9756 175.727 75.725 176.07 74.7098C176.421 73.6718 176.271 73.1869 175.557 72.5739C174.819 71.9401 174.878 71.0542 175.32 70.3765C175.66 69.856 176.389 69.2425 176.92 69.2648C178.065 69.3129 178.556 68.8029 178.985 67.8953C179.455 66.904 179.605 66.911 180.124 67.8109ZM177.009 70.349C176.74 70.6867 176.351 70.9926 176.25 71.3749C176.195 71.5806 176.632 71.9173 176.848 72.1949C177.05 71.8923 177.246 71.5848 177.459 71.2894C177.547 71.1676 177.721 71.0907 177.77 70.9611C177.956 70.463 177.748 70.2668 177.009 70.349ZM177.817 74.8484C177.791 74.6691 177.766 74.4898 177.74 74.3104C177.557 74.3913 177.311 74.4249 177.205 74.5646C177.063 74.7505 177.005 75.014 176.958 75.2534C176.899 75.5618 176.887 75.8794 176.854 76.193C177.123 76.0279 177.429 75.9003 177.646 75.6836C177.775 75.5545 177.765 75.2854 177.817 74.8484Z" fill="#F7B32B"/>
<path d="M169.337 68.7916C171.19 66.6765 173.692 65.9058 176.143 65.0532C176.382 64.97 176.687 64.9949 176.94 65.056C177.17 65.1116 177.372 65.2851 177.586 65.4066C177.398 65.5928 177.244 65.8572 177.017 65.9526C175.322 66.6677 173.605 67.3318 171.91 68.0466C170.167 68.7815 169.486 70.2997 169.031 71.9981C168.931 72.3704 168.598 72.6804 168.373 73.019C168.243 72.5993 167.912 72.1143 168.022 71.7723C168.347 70.7675 168.848 69.8195 169.337 68.7916Z" fill="#F7B32B"/>
<path d="M173.375 84.1358C172.13 83.9866 171.239 83.3249 170.575 82.3509C170.496 82.2355 170.604 81.9925 170.626 81.8086C170.763 81.8344 170.93 81.8189 171.033 81.8926C171.886 82.5042 172.729 83.1302 173.563 83.7668C173.586 83.7841 173.479 83.9706 173.375 84.1358Z" fill="#F7B32B"/>
</g>
<defs>
<clipPath id="clip0_2317_18986">
<rect width="195.699" height="125" fill="white" transform="translate(0.650391)"/>
</clipPath>
</defs>
</svg>
