<svg width="18" height="17" viewBox="0 0 18 17" fill="none" xmlns="http://www.w3.org/2000/svg">
<path fill-rule="evenodd" clip-rule="evenodd" d="M1.28033 0.21967C0.987437 -0.0732233 0.512563 -0.0732233 0.21967 0.21967C-0.0732232 0.512563 -0.0732234 0.987437 0.21967 1.28033L7.46755 8.52821L0.573299 15.4225C0.280406 15.7154 0.280406 16.1902 0.573299 16.4831C0.866192 16.776 1.34107 16.776 1.63396 16.4831L8.52821 9.58887L15.4225 16.4831C15.7154 16.776 16.1902 16.776 16.4831 16.4831C16.776 16.1902 16.776 15.7154 16.4831 15.4225L9.58887 8.52821L16.8368 1.28033C17.1296 0.987439 17.1296 0.512566 16.8368 0.219672C16.5439 -0.0732207 16.069 -0.0732209 15.7761 0.219672L8.52821 7.46755L1.28033 0.21967Z" fill="black"/>
</svg>
