<svg width="42" height="45" viewBox="0 0 42 45" fill="none" xmlns="http://www.w3.org/2000/svg">
<path d="M10.411 11.3575C11.4023 8.15819 12.8042 5.64698 14.6073 3.82268C16.4103 2.00309 18.5326 1.09388 20.98 1.09388C23.3033 1.09388 25.4039 1.95016 27.2936 3.67448C29.1786 5.39292 30.6829 7.83121 31.8043 10.9929C32.1945 12.0926 32.5137 13.2618 32.763 14.4991H41.5193C41.0965 12.9183 40.5172 11.4528 39.7921 10.1107C38.0324 6.85378 35.5525 4.35198 32.3631 2.61236C29.169 0.872749 25.4593 0 21.2305 0C17.0824 0 13.4173 0.951554 10.2219 2.85584C7.02776 4.75895 4.52012 7.40895 2.69539 10.8094C2.06788 11.9726 1.55238 13.2053 1.14648 14.5003H9.62092C9.83651 13.4041 10.1027 12.3514 10.411 11.3575ZM31.9885 33.3126C30.9925 36.5272 29.5953 39.0502 27.7923 40.8686C25.9892 42.6929 23.861 43.6021 21.4196 43.6021C19.1348 43.6021 17.0439 42.7458 15.1324 41.0215C13.2258 39.3031 11.7154 36.8542 10.5953 33.6714C10.4496 33.2644 10.3135 32.8468 10.1894 32.4187H1.62344C1.9101 33.1585 2.24132 33.8725 2.60386 34.5547C4.36956 37.8328 6.84348 40.3452 10.0389 42.0848C13.2282 43.8244 16.9427 44.6972 21.1715 44.6972C25.3135 44.6972 28.9955 43.7456 32.2066 41.8413C35.4176 39.937 37.93 37.2882 39.7331 33.8878C39.9872 33.4067 40.2257 32.9198 40.4365 32.4175H32.2487C32.168 32.721 32.0813 33.0174 31.9885 33.3126Z" fill="white"/>
<path d="M12.7478 16.2548V16.6629C12.4696 16.7464 12.1793 16.9558 11.8685 17.2804C11.5686 17.6156 11.2362 18.1285 10.8713 18.8201L8.12634 24.1401V28.4968C8.12634 28.9884 8.16971 29.3554 8.24438 29.5965C8.3299 29.8376 8.49129 30.0047 8.71652 30.0882C8.94175 30.1717 9.28502 30.2246 9.72464 30.2458V30.6539C9.38137 30.6328 8.93091 30.6116 8.37325 30.601C7.8156 30.601 7.25794 30.5904 6.71113 30.5904C6.11012 30.5904 5.54282 30.601 4.98517 30.601C4.43835 30.6116 3.99873 30.6328 3.66631 30.6539V30.2458C4.12761 30.2246 4.47087 30.1729 4.69611 30.0882C4.93217 30.0047 5.08273 29.8365 5.1574 29.5965C5.23208 29.3554 5.27544 28.9896 5.27544 28.4968V25.1563L1.21167 17.8262C0.943076 17.3545 0.717845 17.0405 0.525135 16.904C0.332425 16.757 0.16019 16.6841 0 16.6841V16.2548C0.332425 16.2759 0.68653 16.2865 1.05148 16.3077C1.42726 16.3289 1.82352 16.3394 2.2523 16.3394C2.80996 16.3394 3.41097 16.3394 4.0433 16.3183C4.68647 16.3077 5.27664 16.2865 5.8343 16.2559V16.6853C5.49103 16.6853 5.18029 16.717 4.90086 16.7688C4.62143 16.8205 4.42872 16.9358 4.33236 17.1146C4.23601 17.2922 4.26853 17.5439 4.43956 17.8897L7.71081 23.9954L9.68368 20.1621C10.145 19.2717 10.3811 18.5707 10.4027 18.0673C10.4244 17.5651 10.2847 17.2087 9.96311 16.9993C9.65237 16.7899 9.21275 16.6853 8.64425 16.6641V16.2559C9.10555 16.2771 9.53433 16.2877 9.95227 16.2983C10.3594 16.3195 10.7677 16.3195 11.1639 16.3195C11.4964 16.3195 11.7963 16.3195 12.054 16.2983C12.3082 16.2865 12.5334 16.2759 12.7478 16.2548Z" fill="white"/>
<path d="M20.2205 15.975C21.6369 15.975 22.8787 16.2667 23.9482 16.8489C25.0166 17.4323 25.8464 18.2686 26.4366 19.3601C27.0268 20.4516 27.3219 21.7772 27.3219 23.3357C27.3219 24.8542 27.0195 26.1821 26.4161 27.3207C25.8127 28.4593 24.972 29.3473 23.8964 29.9848C22.8209 30.6223 21.5887 30.9399 20.2 30.9399C18.7836 30.9399 17.5418 30.6482 16.4723 30.066C15.4027 29.4837 14.5741 28.6428 13.9839 27.5442C13.3937 26.4468 13.0986 25.1247 13.0986 23.5792C13.0986 22.0607 13.4034 20.7327 14.0152 19.5942C14.6259 18.4556 15.4654 17.5676 16.5349 16.9301C17.6032 16.2937 18.833 15.975 20.2205 15.975ZM20.1374 16.3408C19.3184 16.3408 18.6065 16.6454 18.0031 17.2559C17.3997 17.8651 16.9312 18.7061 16.5975 19.7765C16.2639 20.848 16.0977 22.0877 16.0977 23.498C16.0977 24.9353 16.2856 26.1857 16.6602 27.2501C17.0347 28.3146 17.5418 29.1344 18.1802 29.7108C18.8185 30.2871 19.5195 30.5753 20.2831 30.5753C21.1021 30.5753 21.814 30.2706 22.4174 29.6602C23.0208 29.0497 23.4893 28.2064 23.823 27.1278C24.1566 26.0504 24.3228 24.813 24.3228 23.4169C24.3228 21.9666 24.1349 20.7127 23.7603 19.6553C23.3857 18.5979 22.8823 17.7816 22.2512 17.2053C21.6188 16.6289 20.9142 16.3408 20.1374 16.3408Z" fill="white"/>
<path d="M42.0001 16.26V16.667C41.5556 16.707 41.2196 16.8058 40.9907 16.9622C40.7619 17.1186 40.6053 17.3621 40.5222 17.6938C40.4391 18.0267 40.397 18.4972 40.397 19.1076V24.7405C40.397 25.6485 40.3379 26.4625 40.2199 27.1811C40.1019 27.8998 39.8766 28.5232 39.543 29.0513C39.1961 29.6206 38.6794 30.0781 37.9917 30.4239C37.304 30.7697 36.4681 30.9426 35.4828 30.9426C34.8168 30.9426 34.1604 30.8685 33.5148 30.7192C32.8692 30.571 32.3031 30.2922 31.8177 29.8852C31.3878 29.5324 31.0505 29.1325 30.8072 28.6855C30.5639 28.2385 30.4013 27.6998 30.3182 27.0694C30.2351 26.4389 30.193 25.6838 30.193 24.8016V18.4172C30.193 17.9161 30.1544 17.5468 30.0785 17.3092C30.0026 17.0716 29.8497 16.9093 29.6208 16.8211C29.392 16.7328 29.0487 16.6823 28.5898 16.6682V16.2612C28.9367 16.2753 29.3812 16.2882 29.922 16.3024C30.464 16.3153 31.0469 16.3223 31.6708 16.3223C32.2405 16.3223 32.8018 16.3153 33.357 16.3024C33.9123 16.2894 34.3699 16.2753 34.7313 16.2612V16.6682C34.2591 16.6811 33.9014 16.7328 33.6593 16.8211C33.416 16.9093 33.2534 17.0716 33.1703 17.3092C33.0872 17.5468 33.0451 17.9161 33.0451 18.4172V25.7779C33.0451 26.6859 33.1282 27.4716 33.2944 28.1362C33.4606 28.8008 33.7593 29.3159 34.1905 29.6817C34.6205 30.0475 35.2456 30.231 36.0646 30.231C37.0775 30.231 37.8616 30.0076 38.4169 29.5606C38.9721 29.1125 39.3599 28.4891 39.5828 27.6892C39.8044 26.8894 39.9164 25.9814 39.9164 24.964V19.2711C39.9164 18.6065 39.867 18.0984 39.7706 17.7467C39.6731 17.3939 39.4828 17.1363 39.1985 16.974C38.9143 16.8117 38.4939 16.7093 37.9387 16.6693V16.2624C38.2025 16.2765 38.5457 16.2894 38.9697 16.3035C39.3925 16.3165 39.7851 16.3235 40.1464 16.3235C40.4933 16.3235 40.8366 16.3165 41.1774 16.3035C41.5183 16.2871 41.7917 16.2741 42.0001 16.26Z" fill="white"/>
</svg>
