<svg width="61" height="30" viewBox="0 0 61 30" fill="none" xmlns="http://www.w3.org/2000/svg">
<path d="M56.5138 6.28439L52.8806 6.28314C52.4843 6.28314 52.1631 6.59975 52.1629 6.99037L52.1627 7.48992H52.4147C54.0552 7.48992 54.6653 7.75664 54.6653 9.22951V11.3233L56.5119 11.324C56.9082 11.3242 57.2294 11.0078 57.2296 10.6171L57.2309 6.99183C57.2309 6.60121 56.9099 6.2846 56.5138 6.28439ZM36.6851 11.9129C36.5174 11.7054 36.2004 11.6767 35.8826 11.6767H35.6442C34.8523 11.6767 34.5416 11.9175 34.3663 12.6665L32.1657 21.6825C31.8911 22.7905 31.5051 22.993 30.8447 22.993C30.0361 22.993 29.7123 22.8028 29.3901 21.6781L26.8975 12.6621C26.6912 11.9071 26.3869 11.6767 25.5947 11.6767H25.3825C25.0628 11.6767 24.7443 11.7058 24.5809 11.916C24.4172 12.1264 24.4724 12.4405 24.5568 12.7492L27.0757 21.8434C27.5482 23.5838 28.1098 25.0245 30.2084 25.0245C30.6001 25.0245 30.9624 24.9708 31.2638 24.8706C30.6273 26.8437 29.9798 27.7139 28.0704 27.9072C27.6829 27.939 27.4311 27.9937 27.2909 28.1791C27.1451 28.3714 27.1782 28.6469 27.2303 28.8928L27.2828 29.126C27.3967 29.6653 27.591 29.9996 28.2052 29.9996C28.2697 29.9996 28.3391 29.9963 28.4135 29.99C31.2647 29.806 32.7923 28.293 33.6861 24.7679L36.7364 12.7428C36.8087 12.4343 36.8523 12.1202 36.6851 11.9129ZM21.3429 18.8399V20.6599C21.3429 22.1436 20.7848 23.0026 17.9321 23.0026C16.0473 23.0026 15.1311 22.3303 15.1311 20.9474C15.1311 19.4309 16.0503 18.8399 18.4093 18.8399H21.3429ZM17.9321 11.294C16.3768 11.294 15.4022 11.4863 15.0324 11.5593C14.378 11.6994 14.1042 11.8765 14.1042 12.6102V12.8193C14.1042 13.1068 14.1474 13.3059 14.24 13.4461C14.3478 13.6092 14.5216 13.692 14.7566 13.692C14.8711 13.692 15.004 13.6731 15.1624 13.634C15.5363 13.5419 16.7311 13.3515 18.0382 13.3515C20.3856 13.3515 21.3429 13.9924 21.3429 15.5634V16.9654H18.3828C14.5775 16.9654 12.805 18.2305 12.805 20.9474C12.805 23.5826 14.6353 25.0338 17.9586 25.0338C21.908 25.0338 23.6691 23.7092 23.6691 20.7383V15.5634C23.6691 12.6906 21.7926 11.294 17.9321 11.294ZM10.4721 13.0369C10.4721 15.2004 9.9117 16.3729 6.95513 16.3729H2.40408V10.7893C2.40408 10.0151 2.69619 9.72719 3.48162 9.72719H6.95513C9.18258 9.72719 10.4721 10.2689 10.4721 13.0369ZM6.95513 7.4868H3.03069C0.933594 7.4868 -0.00158691 8.40856 -0.00158691 10.4758V23.7524C-0.00158691 24.5509 0.258464 24.8072 1.06879 24.8072H1.33391C2.14402 24.8072 2.40408 24.5509 2.40408 23.7524V18.5871H6.95513C10.9958 18.5871 12.8778 16.8234 12.8778 13.0369C12.8778 9.2503 10.9958 7.4868 6.95513 7.4868ZM56.8675 2.54286L55.0349 2.54224C54.8349 2.54203 54.6729 2.38238 54.6729 2.1853L54.6736 0.35653C54.6738 0.159454 54.836 0 55.0357 0L56.8683 0.000628073C57.0683 0.000628073 57.2303 0.160493 57.2303 0.357361L57.2296 2.18613C57.2294 2.38321 57.0674 2.54286 56.8675 2.54286ZM60.4631 6.28668L57.7647 6.28564C57.4705 6.28564 57.2319 6.05031 57.2322 5.76031L57.233 3.06777C57.2332 2.77757 57.472 2.54245 57.7662 2.54245L60.4644 2.54349C60.7588 2.54349 60.9974 2.77881 60.9974 3.06882L60.9963 5.76156C60.9963 6.05156 60.7575 6.28668 60.4631 6.28668ZM52.8787 11.3229C52.4824 11.3229 52.1614 11.0063 52.1616 10.6157L52.1627 7.48992H51.8982C50.2577 7.48992 49.6475 7.75684 49.6475 9.22972V12.6763C49.6473 12.6835 49.6465 12.6908 49.6465 12.6981V13.4535C49.6461 13.4797 49.6444 13.5041 49.6444 13.5311V18.3468C49.6444 18.9349 49.5294 19.4032 49.2922 19.767C48.8448 20.4464 47.9592 20.7551 46.5423 20.757C45.126 20.7551 44.2406 20.4466 43.7933 19.7679C43.5553 19.4039 43.4402 18.9353 43.4402 18.3468V13.5311C43.4402 13.5041 43.4387 13.4797 43.4383 13.4535V12.6981C43.4383 12.6908 43.4375 12.6835 43.4372 12.6763V9.22972C43.4372 7.75684 42.8271 7.48992 41.1866 7.48992H40.6701C39.0294 7.48992 38.4194 7.75684 38.4194 9.22972V18.3468C38.4194 19.8134 38.755 21.0551 39.4033 22.0561C40.6555 23.9956 43.0812 25.0286 46.5296 25.0286C46.5338 25.0286 46.5381 25.0284 46.5423 25.0284C46.5467 25.0284 46.5507 25.0286 46.5552 25.0286C50.0036 25.0286 52.4293 23.9956 53.6814 22.0561C54.3298 21.0551 54.6653 19.8134 54.6653 18.3468V11.3235L52.8787 11.3229Z" fill="#A6C307"/>
</svg>
