<svg width="83" height="23" viewBox="0 0 83 23" fill="none" xmlns="http://www.w3.org/2000/svg">
<path d="M30.9315 4.70361H26.3538C26.0405 4.70361 25.7741 4.94058 25.7253 5.26258L23.8738 17.4853C23.837 17.7265 24.0164 17.9439 24.2513 17.9439H26.4368C26.75 17.9439 27.0164 17.707 27.0653 17.3843L27.5646 14.0876C27.6128 13.7649 27.8799 13.5279 28.1925 13.5279H29.6417C32.6571 13.5279 34.3974 12.0086 34.8519 8.99764C35.0567 7.68037 34.8606 6.64537 34.2682 5.92052C33.6176 5.12458 32.4637 4.70361 30.9315 4.70361ZM31.4596 9.1677C31.2093 10.8781 29.9542 10.8781 28.7407 10.8781H28.0499L28.5345 7.68386C28.5633 7.49079 28.724 7.34861 28.9114 7.34861H29.228C30.0546 7.34861 30.8344 7.34861 31.2374 7.83928C31.4777 8.13201 31.5513 8.56692 31.4596 9.1677Z" fill="#253B80"/>
<path d="M44.6152 9.1131H42.4231C42.2363 9.1131 42.075 9.25529 42.0463 9.44835L41.9492 10.0868L41.7959 9.85538C41.3213 9.1382 40.2631 8.89844 39.2068 8.89844C36.7845 8.89844 34.7155 10.8088 34.3125 13.4887C34.103 14.8255 34.4009 16.1037 35.1291 16.9951C35.7972 17.8148 36.753 18.1563 37.8902 18.1563C39.8421 18.1563 40.9244 16.8495 40.9244 16.8495L40.8267 17.4837C40.7899 17.7263 40.9693 17.9437 41.2029 17.9437H43.1775C43.4914 17.9437 43.7565 17.7067 43.806 17.384L44.9907 9.57171C45.0282 9.33126 44.8495 9.1131 44.6152 9.1131ZM41.5596 13.5556C41.3481 14.8596 40.3541 15.735 39.0864 15.735C38.4498 15.735 37.9411 15.5224 37.6145 15.1196C37.2905 14.7195 37.1673 14.1501 37.2704 13.5159C37.4679 12.223 38.4786 11.319 39.7269 11.319C40.3494 11.319 40.8555 11.5344 41.1888 11.9407C41.5228 12.3512 41.6553 12.9241 41.5596 13.5556Z" fill="#253B80"/>
<path d="M56.2901 9.11279H54.0872C53.8771 9.11279 53.6796 9.22152 53.5605 9.40343L50.5223 14.0634L49.2344 9.58534C49.1534 9.30516 48.9051 9.11279 48.624 9.11279H46.4593C46.1962 9.11279 46.0135 9.38043 46.0972 9.63831L48.5236 17.0527L46.2424 20.4058C46.063 20.6699 46.2437 21.0331 46.5537 21.0331H48.7538C48.9627 21.0331 49.1581 20.9271 49.2766 20.7487L56.6034 9.73658C56.7787 9.47313 56.5987 9.11279 56.2901 9.11279Z" fill="#253B80"/>
<path d="M63.5834 4.70361H59.005C58.6924 4.70361 58.426 4.94058 58.3771 5.26258L56.5257 17.4853C56.4889 17.7265 56.6683 17.9439 56.9019 17.9439H59.2513C59.4695 17.9439 59.6563 17.7781 59.6904 17.5522L60.2158 14.0876C60.264 13.7649 60.5311 13.5279 60.8437 13.5279H62.2922C65.3083 13.5279 67.0479 12.0086 67.5031 8.99764C67.7086 7.68037 67.5111 6.64537 66.9188 5.92052C66.2688 5.12458 65.1155 4.70361 63.5834 4.70361ZM64.1115 9.1677C63.8618 10.8781 62.6068 10.8781 61.3926 10.8781H60.7025L61.1877 7.68386C61.2165 7.49079 61.3758 7.34861 61.5639 7.34861H61.8805C62.7065 7.34861 63.487 7.34861 63.8899 7.83928C64.1302 8.13201 64.2032 8.56692 64.1115 9.1677Z" fill="#179BD7"/>
<path d="M77.2663 9.1131H75.0755C74.8874 9.1131 74.7274 9.25529 74.6993 9.44835L74.6023 10.0868L74.4483 9.85538C73.9737 9.1382 72.9162 8.89844 71.8599 8.89844C69.4375 8.89844 67.3692 10.8088 66.9663 13.4887C66.7574 14.8255 67.054 16.1037 67.7822 16.9951C68.4516 17.8148 69.4061 18.1563 70.5433 18.1563C72.4951 18.1563 73.5775 16.8495 73.5775 16.8495L73.4798 17.4837C73.4429 17.7263 73.6223 17.9437 73.8573 17.9437H75.8312C76.1438 17.9437 76.4102 17.7067 76.4591 17.384L77.6445 9.57171C77.6806 9.33126 77.5012 9.1131 77.2663 9.1131ZM74.2107 13.5556C74.0005 14.8596 73.0052 15.735 71.7374 15.735C71.1022 15.735 70.5922 15.5224 70.2655 15.1196C69.9416 14.7195 69.8197 14.1501 69.9215 13.5159C70.1203 12.223 71.1297 11.319 72.378 11.319C73.0005 11.319 73.5065 11.5344 73.8399 11.9407C74.1752 12.3512 74.3078 12.9241 74.2107 13.5556Z" fill="#179BD7"/>
<path d="M79.8507 5.03906L77.9718 17.4855C77.935 17.7267 78.1144 17.9442 78.348 17.9442H80.2369C80.5509 17.9442 80.8173 17.7072 80.8655 17.3845L82.7182 5.16243C82.7551 4.92128 82.5757 4.70312 82.3421 4.70312H80.2269C80.0402 4.70382 79.8795 4.846 79.8507 5.03906Z" fill="#179BD7"/>
<path d="M4.86355 20.3196L5.21362 18.0043L4.43383 17.9855H0.710205L3.29793 0.900655C3.30596 0.849079 3.33207 0.800988 3.37022 0.766837C3.40837 0.732685 3.45724 0.713867 3.50811 0.713867H9.78666C11.871 0.713867 13.3095 1.1655 14.0605 2.05693C14.4126 2.47511 14.6368 2.91211 14.7452 3.39302C14.859 3.89762 14.861 4.5005 14.7499 5.23581L14.7419 5.28947V5.76062L15.094 5.96832C15.3905 6.13211 15.6261 6.31959 15.8068 6.53426C16.108 6.89181 16.3028 7.34623 16.3852 7.88499C16.4702 8.43908 16.4421 9.09841 16.3028 9.84487C16.1422 10.7035 15.8825 11.4514 15.5317 12.0633C15.2091 12.6272 14.7981 13.0948 14.3102 13.4573C13.8443 13.8016 13.2907 14.0629 12.6649 14.2302C12.0584 14.3947 11.367 14.4776 10.6086 14.4776H10.12C9.77059 14.4776 9.43123 14.6087 9.16483 14.8435C8.89775 15.0833 8.72104 15.4109 8.66683 15.7691L8.63001 15.9775L8.01153 20.0583L7.98342 20.2081C7.97605 20.2555 7.96333 20.2792 7.94459 20.2952C7.92786 20.3099 7.90376 20.3196 7.88033 20.3196H4.86355Z" fill="#253B80"/>
<path d="M15.4273 5.34375C15.4086 5.46851 15.3871 5.59605 15.3631 5.72708C14.5351 10.1535 11.7024 11.6827 8.08449 11.6827H6.24242C5.79998 11.6827 5.42715 12.0172 5.35821 12.4717L4.41509 18.6998L4.14801 20.4652C4.10317 20.7635 4.32405 21.0325 4.61321 21.0325H7.88034C8.26722 21.0325 8.59588 20.7398 8.65679 20.3425L8.68892 20.1697L9.30405 16.105L9.34354 15.8819C9.40379 15.4833 9.73311 15.1905 10.12 15.1905H10.6086C13.774 15.1905 16.252 13.8524 16.9762 9.97999C17.2787 8.36233 17.1221 7.0116 16.3216 6.06163C16.0793 5.77517 15.7787 5.53751 15.4273 5.34375Z" fill="#179BD7"/>
<path d="M14.5611 4.98426C14.4346 4.94593 14.3041 4.91108 14.1702 4.87971C14.0357 4.84905 13.8978 4.82187 13.7559 4.79817C13.2592 4.71453 12.715 4.6748 12.132 4.6748H7.21093C7.08978 4.6748 6.97465 4.70338 6.87157 4.75496C6.64465 4.86856 6.47598 5.09229 6.43515 5.3662L5.38828 12.2704L5.35815 12.4718C5.4271 12.0174 5.79993 11.6828 6.24237 11.6828H8.08444C11.7023 11.6828 14.535 10.153 15.363 5.72723C15.3878 5.5962 15.4085 5.46865 15.4273 5.3439C15.2178 5.2282 14.9908 5.12923 14.7465 5.0449C14.6863 5.02399 14.624 5.00377 14.5611 4.98426Z" fill="#222D65"/>
<path d="M6.43517 5.36597C6.476 5.09206 6.64468 4.86833 6.87159 4.75542C6.97534 4.70385 7.0898 4.67527 7.21095 4.67527H12.132C12.7151 4.67527 13.2592 4.715 13.7559 4.79864C13.8978 4.82233 14.0357 4.84952 14.1702 4.88018C14.3041 4.91155 14.4346 4.94639 14.5611 4.98473C14.6241 5.00424 14.6863 5.02446 14.7472 5.04467C14.9915 5.129 15.2184 5.22867 15.428 5.34367C15.6743 3.70788 15.4259 2.59412 14.5765 1.58561C13.6401 0.475333 11.95 0 9.7873 0H3.50875C3.06698 0 2.69013 0.334545 2.62186 0.789667L0.00668607 18.0501C-0.0448543 18.3916 0.208162 18.6997 0.538823 18.6997H4.41506L5.3883 12.2702L6.43517 5.36597Z" fill="#253B80"/>
</svg>
