<svg width="16" height="16" viewBox="0 0 16 16" fill="none" xmlns="http://www.w3.org/2000/svg">
<g clip-path="url(#clip0_968_1603)">
<path d="M2.66666 8C2.66666 8.17681 2.73689 8.34638 2.86192 8.47141C2.98694 8.59643 3.15651 8.66667 3.33332 8.66667C3.51013 8.66667 3.6797 8.59643 3.80473 8.47141C3.92975 8.34638 3.99999 8.17681 3.99999 8C3.99999 7.82319 3.92975 7.65362 3.80473 7.5286C3.6797 7.40357 3.51013 7.33334 3.33332 7.33334C3.15651 7.33334 2.98694 7.40357 2.86192 7.5286C2.73689 7.65362 2.66666 7.82319 2.66666 8Z" fill="#343840" stroke="#343840" stroke-linecap="round" stroke-linejoin="round"/>
<path d="M7.33334 8C7.33334 8.17681 7.40358 8.34638 7.52861 8.47141C7.65363 8.59643 7.8232 8.66667 8.00001 8.66667C8.17682 8.66667 8.34639 8.59643 8.47141 8.47141C8.59644 8.34638 8.66668 8.17681 8.66668 8C8.66668 7.82319 8.59644 7.65362 8.47141 7.5286C8.34639 7.40357 8.17682 7.33334 8.00001 7.33334C7.8232 7.33334 7.65363 7.40357 7.52861 7.5286C7.40358 7.65362 7.33334 7.82319 7.33334 8Z" fill="#343840" stroke="#343840" stroke-linecap="round" stroke-linejoin="round"/>
<path d="M12 8C12 8.17681 12.0702 8.34638 12.1953 8.47141C12.3203 8.59643 12.4899 8.66667 12.6667 8.66667C12.8435 8.66667 13.013 8.59643 13.1381 8.47141C13.2631 8.34638 13.3333 8.17681 13.3333 8C13.3333 7.82319 13.2631 7.65362 13.1381 7.5286C13.013 7.40357 12.8435 7.33334 12.6667 7.33334C12.4899 7.33334 12.3203 7.40357 12.1953 7.5286C12.0702 7.65362 12 7.82319 12 8Z" fill="#343840" stroke="#343840" stroke-linecap="round" stroke-linejoin="round"/>
</g>
<defs>
<clipPath id="clip0_968_1603">
<rect width="16" height="16" fill="white"/>
</clipPath>
</defs>
</svg>
