<svg width="40" height="40" viewBox="0 0 40 40" fill="none" xmlns="http://www.w3.org/2000/svg">
<g clip-path="url(#clip0_3226_31829)">
<path d="M10 34.9999C11.841 34.9999 13.3334 33.5075 13.3334 31.6666C13.3334 29.8256 11.841 28.3333 10 28.3333C8.15907 28.3333 6.66669 29.8256 6.66669 31.6666C6.66669 33.5075 8.15907 34.9999 10 34.9999Z" stroke="#F7B32B" stroke-width="2.5" stroke-linecap="round" stroke-linejoin="round"/>
<path d="M28.3333 34.9999C30.1743 34.9999 31.6667 33.5075 31.6667 31.6666C31.6667 29.8256 30.1743 28.3333 28.3333 28.3333C26.4924 28.3333 25 29.8256 25 31.6666C25 33.5075 26.4924 34.9999 28.3333 34.9999Z" stroke="#F7B32B" stroke-width="2.5" stroke-linecap="round" stroke-linejoin="round"/>
<path d="M28.3334 28.3333H10V5H6.66669" stroke="#F7B32B" stroke-width="2.5" stroke-linecap="round" stroke-linejoin="round"/>
<path d="M10 8.33325L20.0083 9.04825M31.905 20.0033L31.6667 21.6666H10" stroke="#F7B32B" stroke-width="2.5" stroke-linecap="round" stroke-linejoin="round"/>
<path d="M25 10H35M30 5V15" stroke="#F7B32B" stroke-width="2.5" stroke-linecap="round" stroke-linejoin="round"/>
</g>
<defs>
<clipPath id="clip0_3226_31829">
<rect width="40" height="40" fill="white"/>
</clipPath>
</defs>
</svg>
