<svg width="174" height="91" viewBox="0 0 174 91" fill="none" xmlns="http://www.w3.org/2000/svg">
<path fill-rule="evenodd" clip-rule="evenodd" d="M121.995 89.7742C94.2862 95.4859 76.3087 79.038 39.7121 79.038C27.2062 79.038 -3.02213 86.0802 1.65824 42.5623C4.31418 17.8675 32.94 6.66002 59.6913 21.0939C67.5632 24.1724 73.7781 23.2183 80.5259 20.1595C87.2736 17.1008 95.952 3.4457 112.308 0.636503C161.53 -7.81729 216.025 70.3913 121.995 89.7742Z" fill="#F7B32B"/>
<path fill-rule="evenodd" clip-rule="evenodd" d="M120.986 33.9586C122.915 35.2288 124.852 36.5726 127.072 37.2106C129.291 37.8485 131.9 37.6534 133.61 36.1002C140.508 29.8324 151.617 28.7844 159.566 33.6516C167.515 38.5188 171.631 48.89 169.185 57.8837C166.738 66.8774 157.935 73.7337 148.616 73.9034C143.787 73.9912 139.322 76.2994 134.708 77.7259C130.095 79.1525 124.546 79.5185 120.938 76.3087C117.049 72.8493 117.493 65.7207 121.781 62.7705C115.042 63.2753 108.304 63.7802 101.565 64.2851C103.048 64.8861 104.626 65.5653 105.475 66.9202C106.325 68.2751 105.935 70.4918 104.388 70.8944C98.6234 72.3938 92.7213 69.6613 87.1886 67.456C81.6559 65.2506 74.9891 63.6309 70.0555 66.9676C58.9367 74.4876 44.2476 73.2391 31.0049 71.0463C27.8279 70.5203 24.0062 69.363 23.3456 66.2113C17.2651 67.3559 11.0643 67.8605 4.87864 67.7139C3.36873 67.6781 1.58628 67.4404 0.880631 66.105C-0.0336936 64.3748 1.60763 62.4118 3.20609 61.2828C8.08738 57.8352 14.047 55.9383 20.0231 55.9302C21.7253 55.9279 22.8618 54.149 23.2951 52.5029C23.7285 50.8568 23.8499 49.025 24.9552 47.7305C21.1965 47.1663 17.2145 48.3137 14.3324 50.7915C13.7974 51.2514 12.8945 50.7897 12.67 50.1209C12.4454 49.4522 12.6767 48.7248 12.9142 48.0605C14.2441 44.3411 15.9115 40.562 18.9339 38.0189C21.9564 35.4758 26.6786 34.5584 29.8648 36.8931C30.8644 37.6255 32.5615 38.5657 34.9562 39.7135C37.4115 39.3423 39.2371 39.0467 40.4331 38.8268C44.0552 38.161 47.4136 36.5161 50.6969 34.8479C62.1378 29.0348 73.8685 22.5629 86.6963 22.1978C98.9681 21.8485 110.733 27.2065 120.986 33.9586ZM133.968 44.036L135.119 46.9354C135.176 47.0775 135.237 47.2261 135.356 47.3222C135.5 47.4389 135.698 47.4545 135.881 47.4809C137.288 47.6835 138.391 48.7519 139.388 49.765C140.665 51.0627 141.943 52.3604 143.22 53.6581C143.603 54.0469 144.239 53.6264 144.605 53.2222C145.429 52.3133 146.268 51.381 146.744 50.2504C147.219 49.1197 147.271 47.7331 146.562 46.7321C146.141 46.1373 145.499 45.7362 144.841 45.4218C143.756 44.9028 142.579 44.5774 141.381 44.4652C140.213 44.3557 139.036 44.4477 137.863 44.439C136.556 44.4294 135.25 44.2942 133.968 44.036Z" fill="white"/>
<path fill-rule="evenodd" clip-rule="evenodd" d="M23.3456 66.2121C17.265 67.3568 11.0642 67.8613 4.87858 67.7147C3.0985 65.1207 22.3612 60.341 23.0597 63.492C23.612 65.9835 23.6373 67.6038 23.3456 66.2121Z" fill="#E7EAEE"/>
<path fill-rule="evenodd" clip-rule="evenodd" d="M116.631 57.8079C117.28 57.7384 119.863 57.1055 122.574 57.3989C124.031 56.6509 131.013 57.2385 135.181 58.055C137.856 58.5791 144.636 58.9274 147.098 60.1833C151.372 62.3634 151.47 63.711 150.827 63.9997C149 64.8197 146.8 65.2239 145.617 65.2454C143.487 65.2842 139.202 63.3155 134.502 62.0823C132.403 61.5315 130.861 61.0638 129.645 60.61L129.844 60.523C127.215 61.7099 124.495 61.8991 121.781 62.7713C115.042 63.2762 108.304 63.7811 101.565 64.2859C103.047 64.8869 80.7482 56.7678 87.1886 55.5833C87.5856 55.5103 88.0232 55.4659 88.4977 55.446C94.5291 55.1932 106.513 58.8892 116.631 57.8079Z" fill="#E7EAEE"/>
<path fill-rule="evenodd" clip-rule="evenodd" d="M56.4523 47.7844C56.5345 47.9312 56.4723 48.1265 56.3489 48.2409C56.2255 48.3554 56.0559 48.4047 55.8905 48.4358C54.6723 48.6645 53.3414 48 52.7921 46.8888C52.7309 46.7649 52.6775 46.6289 52.6962 46.492C52.7148 46.3551 52.8299 46.2226 52.9678 46.2308C53.3224 46.6221 53.6822 47.0177 54.1237 47.3073C54.5653 47.5968 55.1051 47.7733 55.6244 47.6779C55.9191 47.6238 56.306 47.5229 56.4523 47.7844Z" fill="#343840"/>
<path fill-rule="evenodd" clip-rule="evenodd" d="M57.251 62.9416C57.2681 62.5986 57.698 62.4552 58.0412 62.4425C59.5789 62.3855 61.0109 63.1393 62.4311 63.7315C63.8514 64.3237 65.5053 64.7606 66.8922 64.0942C67.1818 63.9551 67.4851 63.7651 67.7994 63.8322C67.2783 64.8428 66.0329 65.3015 64.8977 65.2393C63.7624 65.177 62.6985 64.6969 61.6518 64.253C60.605 63.8091 59.5039 63.3868 58.3687 63.4502C58.1358 63.4632 57.8974 63.4961 57.673 63.4327C57.4486 63.3693 57.2393 63.1745 57.251 62.9416Z" fill="#343840"/>
<path fill-rule="evenodd" clip-rule="evenodd" d="M59.9429 65.82C58.8821 65.5105 57.6421 65.6654 56.7708 64.9858C56.6643 64.9028 56.5592 64.7938 56.5551 64.6588C56.5493 64.4697 56.7531 64.3313 56.9423 64.3264C57.1315 64.3215 57.3091 64.4078 57.4867 64.4731C58.1354 64.7113 58.8495 64.6794 59.5266 64.8174C60.5424 65.0244 61.4369 65.6035 62.3937 66.0026C63.3505 66.4017 64.498 66.6059 65.389 66.0759C65.7484 65.8621 66.2209 65.5429 66.5188 65.8363C65.5489 66.9411 63.9067 67.4015 62.5038 66.962C61.6104 66.6822 60.8416 66.0822 59.9429 65.82Z" fill="#343840"/>
<path fill-rule="evenodd" clip-rule="evenodd" d="M29.3739 54.6338C29.2033 54.4158 29.2047 54.0993 29.3136 53.8447C29.4224 53.5902 29.6222 53.3864 29.8287 53.202C30.8089 52.3265 32.1654 51.7338 33.4378 52.0628C34.3915 52.3095 35.146 53.0244 35.8137 53.7486C36.0996 54.0586 36.3946 54.5027 36.1806 54.8661C35.952 55.2542 35.3782 55.1721 34.9434 55.0543C33.5941 54.6884 32.164 54.4728 30.8005 54.7815C30.3058 54.8935 29.6862 55.0334 29.3739 54.6338Z" fill="#343840"/>
<path fill-rule="evenodd" clip-rule="evenodd" d="M51.473 67.7791C51.661 67.8927 51.635 68.1962 51.4784 68.3502C51.3217 68.5042 51.0909 68.5485 50.8743 68.5856C49.6604 68.7938 48.4465 69.002 47.2326 69.2102C46.9792 69.2536 46.6959 69.291 46.4845 69.1446C46.2732 68.9982 46.2671 68.5908 46.5187 68.5377C48.0406 68.2165 49.5746 67.9523 51.1163 67.746C51.2371 67.7299 51.3687 67.7161 51.473 67.7791Z" fill="#343840"/>
<path fill-rule="evenodd" clip-rule="evenodd" d="M48.3755 55.0958C48.1085 55.1948 47.8135 54.937 47.7775 54.6544C47.7415 54.3719 47.8876 54.0985 48.0568 53.8694C48.8441 52.8032 50.2473 52.2573 51.5625 52.4213C52.8778 52.5853 54.0724 53.4185 54.7634 54.5496C54.87 54.7241 54.9688 54.9247 54.9283 55.1251C54.8845 55.3422 54.6816 55.4995 54.4668 55.5532C54.252 55.6069 54.0259 55.5762 53.8077 55.5384C52.8995 55.3814 52.0141 55.1094 51.1052 54.9565C50.1963 54.8036 49.2396 54.7752 48.3755 55.0958Z" fill="#343840"/>
<path fill-rule="evenodd" clip-rule="evenodd" d="M31.2113 47.7996C31.3146 47.497 31.7521 47.5718 32.0657 47.6341C33.0433 47.8281 33.9995 47.283 34.8476 46.7595C34.9608 46.6896 35.1115 46.8224 35.1091 46.9554C35.1066 47.0885 35.0108 47.1994 34.9172 47.2939C34.0717 48.1485 32.8073 48.7331 31.6641 48.3611C31.4086 48.278 31.1245 48.0539 31.2113 47.7996Z" fill="#343840"/>
<path fill-rule="evenodd" clip-rule="evenodd" d="M65.1682 52.9796C64.8384 52.9167 64.6673 52.5165 64.729 52.1864C64.7907 51.8564 65.0149 51.5841 65.2263 51.3233C66.0251 50.3382 66.753 49.2905 67.3266 48.1594C67.82 47.1866 68.198 46.155 68.7527 45.2159C70.34 42.5288 73.4186 40.7916 76.5393 40.8221C75.2888 39.9269 73.8104 39.3974 72.3129 39.047C67.6809 37.9633 62.6761 38.5513 58.4214 40.6793C57.7489 41.0156 57.093 41.3896 56.3917 41.6608C56.0682 41.7859 55.7104 41.8892 55.3791 41.7867C55.0477 41.6842 54.7876 41.294 54.9418 40.9833C55.0306 40.8042 55.222 40.704 55.4013 40.6155C57.2139 39.7211 59.0341 38.8236 60.9554 38.1957C65.2536 36.791 70.0026 36.8051 74.2923 38.2354C75.7317 38.7153 77.2359 39.461 77.8592 40.8443C77.9548 41.0566 77.9636 41.3958 77.7334 41.4305C75.2615 41.8031 72.7462 42.6585 71.04 44.4855C68.8302 46.8518 68.295 50.485 65.8986 52.6621C65.6946 52.8475 65.439 53.0312 65.1682 52.9796Z" fill="#343840"/>
<path fill-rule="evenodd" clip-rule="evenodd" d="M101.565 64.2851C103.048 64.8861 104.626 65.5653 105.475 66.9202C106.325 68.2751 105.935 70.4918 104.388 70.8944C98.6234 72.3938 92.7213 69.6613 87.1886 67.456C81.6559 65.2506 74.9891 63.6309 70.0555 66.9676C58.9367 74.4876 44.2476 73.2391 31.0049 71.0463C27.8279 70.5203 24.0062 69.363 23.3456 66.2113C17.2651 67.3559 11.0643 67.8605 4.87864 67.7139C3.36873 67.6781 1.58628 67.4404 0.880631 66.105C-0.0336936 64.3748 1.60763 62.4118 3.20609 61.2828C8.08738 57.8352 14.047 55.9383 20.0231 55.9302C21.7253 55.9279 22.8618 54.149 23.2951 52.5029C23.7285 50.8568 23.8499 49.025 24.9552 47.7305C21.1965 47.1663 17.2145 48.3137 14.3324 50.7915C13.7974 51.2514 12.8945 50.7897 12.67 50.1209C12.4454 49.4522 12.6767 48.7248 12.9142 48.0605C14.2441 44.3411 15.9115 40.562 18.9339 38.0189C21.9564 35.4758 25.3017 34.5105 29.8442 36.579C31.0337 37.1207 32.7327 38.0833 34.9412 39.4667C37.3819 39.2645 39.2125 39.0512 40.4331 38.8268C44.0552 38.161 47.4136 36.5161 50.6969 34.8479C62.1378 29.0348 73.8685 22.5629 86.6963 22.1978C98.9681 21.8485 110.733 27.2065 120.986 33.9586C122.915 35.2288 124.852 36.5726 127.072 37.2106C129.291 37.8485 131.9 37.6534 133.61 36.1002C140.508 29.8324 151.617 28.7844 159.566 33.6516C167.515 38.5188 171.631 48.89 169.185 57.8837C166.738 66.8774 157.935 73.7337 148.616 73.9034C143.787 73.9912 139.322 76.2994 134.708 77.7259C130.095 79.1525 124.546 79.5185 120.938 76.3087C117.049 72.8493 117.493 65.7207 121.781 62.7705C115.042 63.2753 108.304 63.7802 101.565 64.2851ZM140.57 51.8537C137.17 48.4333 132.097 46.7607 127.329 47.4883C129.637 46.771 132.111 46.5902 134.499 46.9643C127.729 37.1876 116.804 31.0811 105.667 26.9092C100.256 24.8819 94.6199 23.2153 88.8423 23.0878C81.3206 22.9217 73.9902 25.3664 67.0427 28.2535C59.4176 31.4222 52.0416 35.1547 44.674 38.8833C46.9473 38.7671 49.2513 39.766 50.7204 41.5046C44.5494 38.9599 37.2398 39.3523 31.3766 42.5429C31.4047 41.3772 32.3362 40.2968 33.4851 40.0973C30.1301 37.1413 24.9758 36.4237 20.9409 38.3511C16.9061 40.2785 14.2251 44.7388 14.4162 49.2062C17.8237 46.3881 22.7384 45.5167 26.907 46.9914C24.4258 51.1317 23.1449 55.982 23.2583 60.8075C24.5621 60.2582 26.1688 60.5166 27.2348 61.4469C26.0438 61.575 24.8528 61.7031 23.6618 61.8312C23.7121 62.3746 23.7625 62.9181 23.8128 63.4615C25.073 63.2757 26.3333 63.09 27.5935 62.9042C26.7825 63.8372 25.6388 64.4748 24.4188 64.6743C24.2657 66.2267 25.3433 67.6917 26.6953 68.4698C28.0473 69.248 29.6351 69.48 31.1799 69.6976C35.03 70.24 38.8801 70.7824 42.7303 71.3248C41.8373 70.3177 41.6911 68.6963 41.1082 67.5753C40.3532 66.1233 39.263 65.532 38.7164 63.6058C38.5278 62.9412 38.0932 62.0055 38.7014 61.5829C38.9569 61.4054 39.2896 61.3986 39.6007 61.3983C40.8717 61.397 42.1426 61.3956 43.4136 61.3943C43.8242 61.3938 44.2537 61.3978 44.6167 61.5898C45.7167 62.1716 45.3693 63.8901 44.5478 64.8247C43.7263 65.7594 42.5517 66.5059 42.2711 67.7182C41.9829 68.9635 42.8213 70.2546 43.9348 70.8823C45.0483 71.51 46.3733 71.6164 47.6508 71.6601C50.3433 71.7521 53.0432 71.6273 55.7157 71.2873C62.4438 70.4313 69.6116 67.6897 72.7344 61.6692C72.5455 63.1868 71.7525 64.6208 70.5675 65.5875C75.4694 63.7818 81.0204 63.8021 85.9089 65.6434C90.545 67.3895 94.9438 70.7618 99.8607 70.1565C99.65 69.9856 99.5682 69.6904 99.3575 69.5195C98.784 69.0543 98.0814 68.7135 97.5079 68.2484C99.2609 68.8896 101.014 69.5309 102.767 70.1722C102.568 69.8806 102.767 69.5863 102.396 69.1404C102.025 68.6944 101.215 67.8988 100.738 67.1994C102.066 67.5857 103.229 68.5071 103.91 69.7108C104.477 69.572 105.044 69.4332 105.612 69.2944C102.731 65.4064 98.7493 62.344 94.2521 60.5582C92.0702 59.6918 89.3654 58.6548 89.0925 56.3231C93.9967 61.0592 101.025 63.0795 107.841 63.2238C114.657 63.3681 121.383 61.8193 128.024 60.2798C126.504 59.5112 125.133 58.4481 124.01 57.1668C131.47 61.3462 139.816 63.9343 148.331 64.7084C147.848 63.8897 147.365 63.071 146.882 62.2523C147.939 62.2824 148.926 63.0836 149.173 64.1111C149.702 63.9026 150.232 63.694 150.762 63.4854C150.025 62.763 149.288 62.0406 148.551 61.3183C149.736 61.0325 151.066 61.9466 151.224 63.1556C151.72 62.8976 152.129 62.4764 152.373 61.9733C151.492 61.3063 150.611 60.6393 149.73 59.9724C151.065 59.9452 152.406 60.3921 153.458 61.2152C152.213 58.189 148.001 58.1169 145.204 56.4197C143.343 55.291 142.105 53.3971 140.57 51.8537ZM134.237 43.1588C135.901 43.5622 137.644 43.2498 139.356 43.2549C141.13 43.2601 142.897 43.6121 144.56 44.2319C145.586 44.6146 146.612 45.1286 147.279 45.9971C148.336 47.3739 148.244 49.3709 147.506 50.9424C146.769 52.5138 145.492 53.7561 144.242 54.9611C146.866 56.1314 149.489 57.3018 152.113 58.4721C152.854 58.8028 153.655 59.1909 153.994 59.9284C154.58 61.2037 153.443 62.6027 152.274 63.38C148.628 65.8048 143.67 66.1023 139.76 64.1306C137.252 62.8657 134.472 62.2624 131.726 61.671C130.226 61.3481 128.665 61.0254 127.175 61.3907C126.118 61.65 125.122 62.251 124.034 62.2141C123.062 62.1811 122.306 63.0204 121.737 63.8087C119.862 66.4026 118.317 69.7174 119.415 72.7235C120.169 74.7904 122.081 76.2794 124.165 76.9859C126.249 77.6924 128.501 77.7125 130.697 77.5727C133.445 77.3977 136.245 76.9617 138.658 75.6352C140.23 74.7715 141.636 73.5338 143.374 73.0931C145.46 72.5645 147.657 73.2739 149.803 73.1171C151.512 72.9924 153.129 72.3235 154.693 71.6252C158.515 69.9196 162.337 67.9059 165.048 64.7175C169.091 59.963 170.052 52.9959 168.12 47.0616C166.189 41.1274 161.625 36.2483 156.162 33.2305C154.66 32.4008 153.079 31.6959 151.414 31.2818C147.417 30.2877 143.042 31.0705 139.549 33.253C137.75 34.3767 136.188 35.8408 134.425 37.0205C132.663 38.2002 130.592 39.1089 128.481 38.9028C130.108 40.7003 131.88 42.5877 134.237 43.1588ZM8.42502 59.4125C5.97658 60.367 3.52668 61.6337 1.97492 63.7545C2.6889 63.3611 3.58542 63.3174 4.33425 63.6396C3.78837 63.9093 3.2425 64.1791 2.69662 64.4488C2.39082 64.5999 2.07472 64.7591 1.86233 65.026C1.64994 65.2929 1.57314 65.7004 1.77876 65.9725C1.98438 66.2447 2.50441 66.2197 2.60388 65.8934C2.96883 64.6963 4.37816 63.9311 5.5809 64.277C4.67756 64.7916 3.69117 65.4116 3.44122 66.4208C3.57629 66.8754 4.24199 66.9502 4.63325 66.6821C5.02451 66.414 5.21976 65.9496 5.44478 65.532C5.66979 65.1145 5.99659 64.6871 6.46588 64.6184C6.56492 64.6039 6.67812 64.6115 6.7469 64.6842C6.86678 64.811 6.76782 65.0183 6.65502 65.1514C6.39944 65.453 6.07328 65.7171 5.94763 66.0919C5.82198 66.4667 6.04652 66.9907 6.44111 66.9666C11.9816 66.6282 17.5116 66.1189 23.0207 65.4397C23.2198 65.0085 22.615 64.6583 22.1444 64.5945C20.9499 64.4325 19.7211 64.5281 18.566 64.8729C18.7794 64.163 19.4964 63.6982 20.2256 63.565C20.9549 63.4319 21.7033 63.5688 22.4319 63.7055C22.4375 63.1938 22.342 62.6812 22.1524 62.2058C20.994 62.1816 19.8458 61.7946 18.9089 61.1128C19.692 60.8199 20.6017 60.8866 21.3336 61.2907C21.6831 61.4837 21.9436 60.9189 21.9493 60.5197C21.9681 59.2223 21.9868 57.925 22.0056 56.6276C17.3648 56.7798 12.7511 57.7259 8.42502 59.4125ZM135.881 47.4809C137.288 47.6835 138.391 48.7519 139.388 49.765C140.665 51.0627 141.943 52.3604 143.22 53.6581C143.603 54.0469 144.239 53.6264 144.605 53.2222C145.429 52.3133 146.268 51.381 146.744 50.2504C147.219 49.1197 147.271 47.7331 146.562 46.7321C146.141 46.1373 145.499 45.7362 144.841 45.4218C143.756 44.9028 142.579 44.5774 141.381 44.4652C140.213 44.3557 139.036 44.4477 137.863 44.439C136.556 44.4294 135.25 44.2942 133.968 44.036C134.352 45.0025 134.736 45.9689 135.119 46.9354C135.176 47.0775 135.237 47.2261 135.356 47.3222C135.5 47.4389 135.698 47.4545 135.881 47.4809Z" fill="#343840"/>
</svg>
