<svg width="24" height="24" viewBox="0 0 24 24" fill="none" xmlns="http://www.w3.org/2000/svg">
<g clip-path="url(#clip0_3275_33487)">
<path d="M3 21.0002L4.65 17.2002C3.38766 15.4083 2.82267 13.2172 3.06104 11.0383C3.29942 8.85939 4.32479 6.84235 5.94471 5.36573C7.56463 3.88911 9.66775 3.05443 11.8594 3.01831C14.051 2.9822 16.1805 3.74714 17.8482 5.16959C19.5159 6.59203 20.6071 8.57419 20.9172 10.7441C21.2272 12.914 20.7347 15.1224 19.5321 16.955C18.3295 18.7875 16.4994 20.1182 14.3854 20.6973C12.2713 21.2764 10.0186 21.0641 8.05 20.1002L3 21.0002" stroke="#343840" stroke-width="1.5" stroke-linecap="round" stroke-linejoin="round"/>
<path d="M8 12V12.01" stroke="#343840" stroke-width="1.5" stroke-linecap="round" stroke-linejoin="round"/>
<path d="M12 12V12.01" stroke="#343840" stroke-width="1.5" stroke-linecap="round" stroke-linejoin="round"/>
<path d="M16 12V12.01" stroke="#343840" stroke-width="1.5" stroke-linecap="round" stroke-linejoin="round"/>
</g>
<defs>
<clipPath id="clip0_3275_33487">
<rect width="24" height="24" fill="white"/>
</clipPath>
</defs>
</svg>
