<svg width="17" height="16" viewBox="0 0 17 16" fill="none" xmlns="http://www.w3.org/2000/svg">
<g clip-path="url(#clip0_3372_12654)">
<path d="M2.5 13.3333L3.36667 10.7333C2.61763 9.62549 2.34666 8.31358 2.60415 7.04151C2.86163 5.76943 3.63004 4.62375 4.76651 3.81749C5.90298 3.01122 7.33017 2.59924 8.78273 2.65813C10.2353 2.71703 11.6143 3.24279 12.6635 4.13768C13.7127 5.03256 14.3606 6.23567 14.4867 7.52329C14.6128 8.81092 14.2086 10.0955 13.3492 11.1381C12.4899 12.1807 11.2338 12.9104 9.81453 13.1915C8.39529 13.4727 6.90947 13.2862 5.63333 12.6666L2.5 13.3333" stroke="#F7B32B" stroke-linecap="round" stroke-linejoin="round"/>
<path d="M8.5 8V8.00667" stroke="#F7B32B" stroke-linecap="round" stroke-linejoin="round"/>
<path d="M5.83325 8V8.00667" stroke="#F7B32B" stroke-linecap="round" stroke-linejoin="round"/>
<path d="M11.1667 8V8.00667" stroke="#F7B32B" stroke-linecap="round" stroke-linejoin="round"/>
</g>
<defs>
<clipPath id="clip0_3372_12654">
<rect width="16" height="16" fill="white" transform="translate(0.5)"/>
</clipPath>
</defs>
</svg>
