<svg width="40" height="40" viewBox="0 0 40 40" fill="none" xmlns="http://www.w3.org/2000/svg">
<g clip-path="url(#clip0_1398_8780)">
<path d="M28.334 18.3335H11.6673C9.82637 18.3335 8.33398 19.8259 8.33398 21.6668V31.6668C8.33398 33.5078 9.82637 35.0002 11.6673 35.0002H28.334C30.1749 35.0002 31.6673 33.5078 31.6673 31.6668V21.6668C31.6673 19.8259 30.1749 18.3335 28.334 18.3335Z" stroke="#343840" stroke-width="2.5" stroke-linecap="round" stroke-linejoin="round"/>
<path d="M20.0007 28.3333C20.9211 28.3333 21.6673 27.5871 21.6673 26.6667C21.6673 25.7462 20.9211 25 20.0007 25C19.0802 25 18.334 25.7462 18.334 26.6667C18.334 27.5871 19.0802 28.3333 20.0007 28.3333Z" stroke="#343840" stroke-width="2.5" stroke-linecap="round" stroke-linejoin="round"/>
<path d="M13.334 18.3333V11.6667C13.334 9.89856 14.0364 8.20286 15.2866 6.95262C16.5368 5.70238 18.2325 5 20.0007 5C21.7688 5 23.4645 5.70238 24.7147 6.95262C25.9649 8.20286 26.6673 9.89856 26.6673 11.6667V18.3333" stroke="#343840" stroke-width="2.5" stroke-linecap="round" stroke-linejoin="round"/>
</g>
<defs>
<clipPath id="clip0_1398_8780">
<rect width="40" height="40" fill="white"/>
</clipPath>
</defs>
</svg>
