<svg width="40" height="40" viewBox="0 0 40 40" fill="none" xmlns="http://www.w3.org/2000/svg">
<path d="M28.333 18.3333H11.6663C9.82539 18.3333 8.33301 19.8257 8.33301 21.6667V31.6667C8.33301 33.5076 9.82539 35 11.6663 35H28.333C30.174 35 31.6663 33.5076 31.6663 31.6667V21.6667C31.6663 19.8257 30.174 18.3333 28.333 18.3333Z" stroke="white" stroke-width="2.5" stroke-linecap="round" stroke-linejoin="round"/>
<path d="M19.9997 28.3333C20.9201 28.3333 21.6663 27.5871 21.6663 26.6667C21.6663 25.7462 20.9201 25 19.9997 25C19.0792 25 18.333 25.7462 18.333 26.6667C18.333 27.5871 19.0792 28.3333 19.9997 28.3333Z" stroke="white" stroke-width="2.5" stroke-linecap="round" stroke-linejoin="round"/>
<path d="M13.333 18.3333V11.6667C13.333 9.89856 14.0354 8.20286 15.2856 6.95262C16.5359 5.70238 18.2316 5 19.9997 5C21.7678 5 23.4635 5.70238 24.7137 6.95262C25.964 8.20286 26.6663 9.89856 26.6663 11.6667V18.3333" stroke="white" stroke-width="2.5" stroke-linecap="round" stroke-linejoin="round"/>
</svg>
