<svg width="24" height="24" viewBox="0 0 24 24" fill="none" xmlns="http://www.w3.org/2000/svg">
<path d="M3 21L4.65 17.2C3.38766 15.408 2.82267 13.217 3.06104 11.0381C3.29942 8.85915 4.32479 6.84211 5.94471 5.36549C7.56463 3.88887 9.66775 3.05418 11.8594 3.01807C14.051 2.98195 16.1805 3.7469 17.8482 5.16934C19.5159 6.59179 20.6071 8.57395 20.9172 10.7438C21.2272 12.9137 20.7347 15.1222 19.5321 16.9547C18.3295 18.7873 16.4994 20.118 14.3854 20.6971C12.2713 21.2762 10.0186 21.0639 8.05 20.1L3 21" stroke="#343840" stroke-width="1.5" stroke-linecap="round" stroke-linejoin="round"/>
<path d="M8 12V12.01" stroke="#343840" stroke-width="1.5" stroke-linecap="round" stroke-linejoin="round"/>
<path d="M12 12V12.01" stroke="#343840" stroke-width="1.5" stroke-linecap="round" stroke-linejoin="round"/>
<path d="M16 12V12.01" stroke="#343840" stroke-width="1.5" stroke-linecap="round" stroke-linejoin="round"/>
</svg>
