<svg width="36" height="40" viewBox="0 0 36 40" fill="none" xmlns="http://www.w3.org/2000/svg">
<path d="M10.9267 14.5469V14.9121C10.6882 14.9869 10.4394 15.1742 10.173 15.4647C9.91596 15.7647 9.63102 16.2237 9.31821 16.8426L6.96543 21.6035V25.5024C6.96543 25.9424 7.0026 26.2708 7.06661 26.4866C7.1399 26.7023 7.27824 26.8518 7.4713 26.9265C7.66435 27.0013 7.95858 27.0486 8.33539 27.0676V27.4329C8.04117 27.4139 7.65506 27.395 7.17707 27.3855C6.69908 27.3855 6.22109 27.376 5.75239 27.376C5.23724 27.376 4.75099 27.3855 4.273 27.3855C3.8043 27.395 3.42748 27.4139 3.14255 27.4329V27.0676C3.53795 27.0486 3.83217 27.0023 4.02523 26.9265C4.22757 26.8518 4.35662 26.7013 4.42063 26.4866C4.48464 26.2708 4.5218 25.9434 4.5218 25.5024V22.513L1.03857 15.9532C0.80835 15.5311 0.615295 15.25 0.450115 15.1279C0.284935 14.9963 0.137306 14.9311 0 14.9311V14.5469C0.284935 14.5658 0.588454 14.5753 0.901263 14.5942C1.22336 14.6132 1.56302 14.6227 1.93054 14.6227C2.40853 14.6227 2.92369 14.6227 3.46568 14.6037C4.01697 14.5942 4.52283 14.5753 5.00082 14.5479V14.9321C4.7066 14.9321 4.44024 14.9605 4.20073 15.0069C3.96122 15.0532 3.79604 15.1563 3.71345 15.3163C3.63086 15.4753 3.65874 15.7005 3.80533 16.01L6.60926 21.4741L8.30029 18.0436C8.69569 17.2468 8.89804 16.6195 8.91662 16.1689C8.9352 15.7195 8.81545 15.4005 8.5398 15.2132C8.27345 15.0258 7.89663 14.9321 7.40935 14.9132V14.5479C7.80475 14.5669 8.17228 14.5763 8.53051 14.5858C8.87945 14.6048 9.22943 14.6048 9.56908 14.6048C9.85402 14.6048 10.1111 14.6048 10.332 14.5858C10.5498 14.5753 10.7429 14.5658 10.9267 14.5469Z" fill="white"/>
<path d="M17.3315 14.2964C18.5456 14.2964 19.6099 14.5574 20.5267 15.0785C21.4424 15.6006 22.1537 16.349 22.6596 17.3258C23.1654 18.3026 23.4184 19.4889 23.4184 20.8836C23.4184 22.2425 23.1592 23.4309 22.642 24.4498C22.1248 25.4687 21.4042 26.2634 20.4823 26.8339C19.5604 27.4045 18.5043 27.6887 17.3139 27.6887C16.0999 27.6887 15.0355 27.4276 14.1187 26.9066C13.202 26.3855 12.4917 25.6329 11.9858 24.6498C11.48 23.6677 11.2271 22.4846 11.2271 21.1015C11.2271 19.7426 11.4882 18.5542 12.0127 17.5352C12.5361 16.5163 13.2557 15.7216 14.1724 15.1511C15.0881 14.5816 16.1422 14.2964 17.3315 14.2964ZM17.2603 14.6237C16.5582 14.6237 15.9481 14.8964 15.4309 15.4427C14.9137 15.9879 14.5121 16.7405 14.2261 17.6984C13.9401 18.6573 13.7977 19.7668 13.7977 21.0288C13.7977 22.3151 13.9587 23.434 14.2798 24.3866C14.6009 25.3393 15.0355 26.0729 15.5826 26.5887C16.1298 27.1045 16.7306 27.3624 17.3852 27.3624C18.0872 27.3624 18.6973 27.0897 19.2145 26.5434C19.7318 25.9971 20.1333 25.2424 20.4193 24.2772C20.7053 23.313 20.8478 22.2056 20.8478 20.9562C20.8478 19.6583 20.6867 18.5363 20.3656 17.59C20.0446 16.6437 19.613 15.9132 19.0721 15.3974C18.5301 14.8816 17.9261 14.6237 17.2603 14.6237Z" fill="white"/>
<path d="M36.0001 14.5513V14.9155C35.6191 14.9513 35.3311 15.0397 35.1349 15.1797C34.9388 15.3197 34.8046 15.5376 34.7333 15.8344C34.6621 16.1323 34.626 16.5533 34.626 17.0996V22.1405C34.626 22.9532 34.5754 23.6816 34.4742 24.3247C34.3731 24.9678 34.18 25.5257 33.894 25.9983C33.5967 26.5078 33.1538 26.9173 32.5643 27.2267C31.9748 27.5362 31.2584 27.6909 30.4139 27.6909C29.843 27.6909 29.2803 27.6246 28.727 27.4909C28.1736 27.3583 27.6884 27.1088 27.2724 26.7446C26.9038 26.4288 26.6148 26.071 26.4062 25.671C26.1977 25.271 26.0583 24.7889 25.9871 24.2247C25.9158 23.6605 25.8797 22.9847 25.8797 22.1953V16.4817C25.8797 16.0333 25.8467 15.7028 25.7816 15.4902C25.7166 15.2776 25.5855 15.1323 25.3893 15.0534C25.1932 14.9744 24.8989 14.9292 24.5056 14.9165V14.5523C24.8029 14.565 25.1839 14.5765 25.6474 14.5892C26.112 14.6007 26.6117 14.6071 27.1464 14.6071C27.6347 14.6071 28.1158 14.6007 28.5918 14.5892C29.0677 14.5776 29.46 14.565 29.7697 14.5523V14.9165C29.365 14.9281 29.0584 14.9744 28.8509 15.0534C28.6423 15.1323 28.503 15.2776 28.4317 15.4902C28.3605 15.7028 28.3244 16.0333 28.3244 16.4817V23.0689C28.3244 23.8815 28.3956 24.5847 28.5381 25.1794C28.6805 25.7741 28.9366 26.2352 29.3062 26.5625C29.6747 26.8899 30.2105 27.0541 30.9125 27.0541C31.7808 27.0541 32.4528 26.8541 32.9288 26.4541C33.4047 26.0531 33.7371 25.4952 33.9281 24.7794C34.1181 24.0636 34.2141 23.251 34.2141 22.3405V17.2459C34.2141 16.6512 34.1717 16.1965 34.0891 15.8818C34.0055 15.566 33.8424 15.3355 33.5988 15.1902C33.3551 15.0449 32.9948 14.9534 32.5189 14.9176V14.5534C32.745 14.566 33.0392 14.5776 33.4026 14.5902C33.765 14.6018 34.1015 14.6081 34.4112 14.6081C34.7086 14.6081 35.0028 14.6018 35.295 14.5902C35.5871 14.5755 35.8215 14.5639 36.0001 14.5513Z" fill="white"/>
<path d="M8.92394 10.1639C9.77358 7.30086 10.9753 5.05355 12.5207 3.42096C14.0662 1.79258 15.8852 0.978922 17.983 0.978922C19.9745 0.978922 21.7749 1.74522 23.3947 3.28833C25.0104 4.82619 26.2998 7.00824 27.261 9.83764C27.5955 10.8218 27.869 11.8681 28.0827 12.9754H35.5881C35.2257 11.5607 34.7292 10.2492 34.1077 9.04818C32.5994 6.13352 30.4737 3.89463 27.74 2.33783C25.0021 0.781033 21.8224 0 18.1978 0C14.6423 0 11.5007 0.851556 8.76185 2.55572C6.024 4.25883 3.87459 6.63035 2.31054 9.67343C1.77268 10.7145 1.33082 11.8176 0.98291 12.9765H8.2467C8.43149 11.9955 8.65965 11.0534 8.92394 10.1639ZM27.4189 29.8118C26.5652 32.6886 25.3676 34.9464 23.8221 36.5738C22.2767 38.2064 20.4525 39.02 18.3598 39.02C16.4014 39.02 14.6092 38.2537 12.9708 36.7106C11.3366 35.1728 10.042 32.9812 9.08189 30.1329C8.95697 29.7687 8.84031 29.395 8.73398 29.0119H1.39173C1.63744 29.674 1.92134 30.3129 2.23208 30.9234C3.74555 33.857 5.86604 36.1054 8.60493 37.6622C11.3387 39.219 14.5225 40 18.1472 40C21.6975 40 24.8535 39.1484 27.6058 37.4443C30.3581 35.7401 32.5116 33.3696 34.0571 30.3266C34.2749 29.8961 34.4793 29.4603 34.66 29.0108H27.6419C27.5728 29.2824 27.4984 29.5476 27.4189 29.8118Z" fill="white"/>
</svg>
