<svg width="40" height="40" viewBox="0 0 40 40" fill="none" xmlns="http://www.w3.org/2000/svg">
<g clip-path="url(#clip0_2149_12090)">
<path d="M20 15V18.3333M20 25V25.0167" stroke="#F7B32B" stroke-width="2.5" stroke-linecap="round" stroke-linejoin="round"/>
<path d="M8.33332 31.6667H31.6667C32.2105 31.6629 32.7452 31.526 33.224 31.2681C33.7028 31.0102 34.1112 30.6391 34.4137 30.1871C34.7161 29.7351 34.9034 29.2159 34.9591 28.6749C35.0148 28.1339 34.9373 27.5875 34.7333 27.0833L22.9 6.66667C22.6117 6.14567 22.1892 5.71139 21.6762 5.40898C21.1633 5.10658 20.5788 4.94708 19.9833 4.94708C19.3879 4.94708 18.8033 5.10658 18.2904 5.40898C17.7775 5.71139 17.3549 6.14567 17.0667 6.66667L5.23332 27.0833C5.03323 27.576 4.95388 28.1093 5.00191 28.6389C5.04994 29.1684 5.22395 29.6788 5.50941 30.1273C5.79487 30.5759 6.18351 30.9497 6.64287 31.2175C7.10223 31.4853 7.61898 31.6393 8.14999 31.6667" stroke="#F7B32B" stroke-width="2.5" stroke-linecap="round" stroke-linejoin="round"/>
</g>
<defs>
<clipPath id="clip0_2149_12090">
<rect width="40" height="40" fill="white"/>
</clipPath>
</defs>
</svg>
