<svg width="197" height="125" viewBox="0 0 197 125" fill="none" xmlns="http://www.w3.org/2000/svg">
<g clip-path="url(#clip0_4221_42886)">
<rect width="195.699" height="125" transform="translate(0.650391)" fill="white"/>
<path fill-rule="evenodd" clip-rule="evenodd" d="M91.1964 146.305C87.5407 146.316 83.9886 146.441 80.3227 146.453C65.4208 146.503 50.3818 146.431 35.4259 145.826C31.1988 145.656 30.1436 145.66 25.9348 145.395C23.4497 145.386 15.9849 145.18 16.3586 141.795C16.5236 135.488 18.0845 129.209 18.576 122.919C19.5196 111.096 20.323 98.9035 25.0609 87.8452C26.1575 85.2043 28.5128 83.4773 30.8443 81.9243C33.1824 80.249 33.7563 78.389 35.9142 76.4964C36.3705 76.0962 38.9617 75.9333 40.3558 74.9182C42.385 73.4408 43.3913 71.0218 44.1483 70.6101C44.7054 70.3071 44.6952 68.2168 45.8118 67.4769C47.3102 66.4841 52.085 65.7459 53.8222 65.6078C55.4895 65.4753 58.3896 65.7537 59.954 66.3644C62.5628 67.3829 63.6033 69.3257 64.7522 71.8287C79.931 76.5215 93.8048 84.4678 98.1135 100.496C101.829 113.939 101.965 128.351 100.53 142.138C100.243 143.146 100.444 144.727 99.573 145.395C102.6 145.569 91.607 146.193 91.1964 146.305Z" fill="white"/>
<path fill-rule="evenodd" clip-rule="evenodd" d="M22.1576 133.031C22.4448 132.888 22.7443 132.723 23.0723 132.712C23.6356 132.692 23.6364 131.816 23.0723 131.835C22.5802 131.853 22.1482 132.058 21.7152 132.274C21.21 132.526 21.6544 133.282 22.1576 133.031ZM23.0723 108.353C22.6879 108.353 22.3004 108.401 22.0051 108.67C21.8296 108.83 21.8435 109.129 22.0051 109.29C22.1781 109.463 22.45 109.45 22.625 109.29C22.5679 109.342 22.6244 109.291 22.6452 109.279C22.6501 109.277 22.6528 109.275 22.6541 109.274C22.6585 109.273 22.6629 109.272 22.67 109.27C22.7158 109.258 22.7611 109.247 22.8074 109.239C22.8082 109.241 22.9052 109.232 22.928 109.231C22.9762 109.23 23.0242 109.229 23.0723 109.229C23.3101 109.229 23.5105 109.029 23.5105 108.791C23.5105 108.554 23.3092 108.352 23.0723 108.353ZM27.1933 118.187C27.3188 118.738 28.1636 118.503 28.0384 117.954C27.8563 117.155 27.8895 116.337 28.0384 115.536C28.1409 114.983 27.2961 114.749 27.1933 115.303C27.0147 116.264 26.9747 117.229 27.1933 118.187ZM28.3002 86.6779C28.953 86.5229 29.5986 86.5045 30.2662 86.5042C30.8311 86.504 30.8302 85.6273 30.2662 85.6275C29.5216 85.6277 28.7947 85.6597 28.0672 85.8325C27.5179 85.9631 27.7519 86.8081 28.3002 86.6779ZM30.4875 108.033C30.866 107.844 31.2447 107.654 31.6233 107.465C32.1285 107.212 31.6841 106.457 31.181 106.708L30.0451 107.276C29.54 107.529 29.9844 108.285 30.4875 108.033ZM30.6451 125.299C31.1253 125.991 31.8005 126.421 32.6108 126.636C33.1575 126.781 33.3887 125.935 32.8438 125.791C32.2644 125.637 31.7496 125.357 31.402 124.856C31.0824 124.395 30.3229 124.834 30.6451 125.299ZM33.6736 94.4302C33.8035 94.1874 33.9991 94.0848 34.2419 94.0793C34.8059 94.0664 34.806 93.1896 34.2419 93.2026C33.6886 93.2151 33.1813 93.493 32.9169 93.9878C32.6508 94.4857 33.4077 94.9281 33.6736 94.4302ZM39.2327 100.39C39.3898 100.561 39.6945 100.557 39.8525 100.39C39.9492 100.288 40.0305 100.173 40.0945 100.048C40.1188 100.001 40.1417 99.9526 40.1685 99.9065C40.1804 99.886 40.1937 99.8656 40.2072 99.8459C40.2118 99.8418 40.2214 99.8319 40.2312 99.8215C40.3996 99.6434 40.3953 99.3805 40.2312 99.2016C40.074 99.0304 39.7693 99.0347 39.6114 99.2016C39.5147 99.3037 39.4333 99.4178 39.3695 99.5428C39.3451 99.5903 39.3222 99.6386 39.2954 99.6849C39.2835 99.7054 39.2702 99.7256 39.2566 99.7454C39.252 99.7494 39.2426 99.7593 39.2327 99.7697C39.0642 99.9478 39.0685 100.211 39.2327 100.39ZM39.7001 113.336C40.2709 113.597 40.8969 113.597 41.4677 113.336C41.6839 113.237 41.7352 112.925 41.6248 112.736C41.4971 112.517 41.2404 112.48 41.0253 112.579C40.7665 112.697 40.401 112.697 40.1424 112.579C39.9264 112.48 39.6722 112.515 39.5429 112.736C39.432 112.926 39.4849 113.237 39.7001 113.336ZM41.257 122.499C41.3551 122.732 41.5669 122.855 41.8145 122.864C42.0598 122.874 42.2424 122.656 42.2527 122.426C42.2593 122.277 42.1789 122.15 42.0636 122.072C42.0635 122.064 42.0633 122.056 42.0633 122.047C42.0631 121.802 41.8625 121.62 41.625 121.609C41.3885 121.598 41.1867 121.818 41.1868 122.047C41.1869 122.202 41.1964 122.356 41.257 122.499ZM43.5183 137.068C44.2177 137.079 44.9011 137.246 45.6006 137.257C46.1658 137.266 46.1641 136.389 45.6006 136.38C44.9012 136.369 44.2178 136.202 43.5183 136.191C42.9531 136.182 42.9548 137.058 43.5183 137.068ZM46.4268 80.8839C46.8362 81.274 47.342 81.4662 47.8407 81.71C48.3459 81.9569 48.7898 81.2006 48.2831 80.9529C47.8606 80.7464 47.3929 80.5939 47.0465 80.264C46.6378 79.8746 46.0174 80.4939 46.4268 80.8839ZM47.5258 90.9894C47.8131 90.846 48.1125 90.6819 48.4404 90.6705C49.0038 90.6508 49.0046 89.7741 48.4404 89.7938C47.9485 89.8109 47.5164 90.0161 47.0834 90.2324C46.578 90.4847 47.0225 91.2406 47.5258 90.9894ZM52.7945 131.548C52.9242 131.305 53.1198 131.202 53.3626 131.197C53.9267 131.184 53.9269 130.307 53.3626 130.32C52.8093 130.333 52.3019 130.611 52.0376 131.106C51.7716 131.603 52.5284 132.046 52.7945 131.548ZM54.6191 112.51C54.7935 112.35 54.7813 112.052 54.6191 111.89C54.4298 111.7 54.2405 111.511 54.051 111.322C53.8779 111.148 53.6063 111.161 53.4314 111.322C53.257 111.482 53.2691 111.779 53.4314 111.942C53.6208 112.131 53.81 112.32 53.9993 112.51C54.1726 112.683 54.4441 112.67 54.6191 112.51ZM56.7703 142.181C57.4026 142.166 57.9953 141.985 58.5906 141.786C59.1241 141.609 58.894 140.762 58.3576 140.941C57.8402 141.113 57.3204 141.291 56.7703 141.304C56.2062 141.317 56.206 142.194 56.7703 142.181ZM59.6101 123.433C60.1813 123.417 60.6551 123.126 61.0558 122.736C61.461 122.342 60.8406 121.722 60.436 122.116C60.2067 122.339 59.9421 122.547 59.6101 122.556C59.0462 122.572 59.0457 123.448 59.6101 123.433ZM57.8466 99.3221C57.8397 99.5556 57.7411 99.8057 57.5963 99.9591C57.209 100.369 57.828 100.99 58.2161 100.579C58.5362 100.24 58.7096 99.7861 58.7231 99.3221C58.7393 98.7568 57.8627 98.7593 57.8466 99.3221ZM64.5319 80.2271C64.7153 79.8678 64.9557 79.4466 65.3213 79.2481C65.8178 78.9786 65.3748 78.2219 64.8789 78.491C64.3819 78.7608 64.0263 79.2926 63.7751 79.7845C63.5187 80.2866 64.2753 80.7297 64.5319 80.2271ZM65.668 89.3449C65.8714 89.3391 66.0732 89.3042 66.2693 89.2511C66.3531 89.2283 66.4359 89.2021 66.5198 89.1793C66.5558 89.1695 66.7084 89.1505 66.6146 89.1555C66.8519 89.1428 67.0528 88.965 67.0528 88.7171C67.0528 88.4893 66.8513 88.2661 66.6146 88.2788C66.2893 88.2962 65.9935 88.4589 65.668 88.4681C65.1044 88.484 65.1039 89.3608 65.668 89.3449ZM68.5078 103.359H69.4544C70.0192 103.359 70.0182 102.482 69.4544 102.482H68.5078C67.9429 102.482 67.9439 103.359 68.5078 103.359ZM69.6119 142.121C69.8989 142.265 70.2372 142.401 70.4697 142.621C70.8797 143.008 71.5002 142.389 71.0895 142.001C70.7933 141.721 70.4147 141.544 70.0542 141.364C69.8417 141.258 69.5805 141.306 69.4546 141.521C69.3407 141.716 69.4002 142.015 69.6119 142.121ZM71.7269 131.043C71.7636 131.033 71.8024 131.026 71.8395 131.021C71.9885 131.001 72.1444 131.008 72.2941 131.008C72.8589 131.007 72.8581 130.131 72.2941 130.131C71.8496 130.131 71.387 130.137 71.0375 130.449C70.8602 130.607 70.8774 130.908 71.0375 131.069C71.2117 131.243 71.4807 131.226 71.6573 131.069C71.6387 131.085 71.7026 131.05 71.7269 131.043ZM72.2938 116.145C72.1665 115.882 72.1645 115.711 72.1643 115.419C72.1639 114.854 71.2874 114.855 71.2879 115.419C71.2881 115.843 71.3511 116.204 71.537 116.587C71.6407 116.801 71.9444 116.857 72.1365 116.745C72.3519 116.619 72.3969 116.358 72.2938 116.145ZM74.828 95.5786C75.3363 95.7516 75.7901 95.9964 76.2378 96.292C76.7103 96.6039 77.1489 95.8443 76.6802 95.5349C76.1693 95.1977 75.6409 94.9305 75.061 94.7331C74.5248 94.5508 74.2969 95.3979 74.828 95.5786ZM77.7842 80.8229C78.1618 80.8335 78.5516 80.9783 78.8882 81.1419C79.394 81.3876 79.8378 80.6313 79.3305 80.3848C78.8497 80.1511 78.3238 79.9613 77.7842 79.9462C77.219 79.9303 77.2214 80.8072 77.7842 80.8229ZM79.1094 120.213C79.2579 120.22 79.3849 120.14 79.4636 120.024C79.4718 120.024 79.4799 120.024 79.488 120.024C79.7336 120.024 79.9155 119.823 79.9262 119.585C79.9368 119.349 79.7172 119.147 79.488 119.147C79.3333 119.147 79.1798 119.157 79.0361 119.217C78.8039 119.315 78.6806 119.527 78.6711 119.775C78.6618 120.02 78.8794 120.203 79.1094 120.213ZM81.2647 89.8973C81.803 90.0732 82.0315 89.2264 81.4977 89.0519C80.8712 88.8471 80.2309 88.6885 79.6045 88.4837C79.0662 88.3078 78.8377 89.1547 79.3716 89.3292C79.9979 89.5339 80.6383 89.6925 81.2647 89.8973ZM83.2302 106.446C83.3972 106.984 84.2429 106.753 84.0755 106.213C83.9138 105.691 83.9022 105.166 83.9018 104.625C83.9015 104.06 83.025 104.061 83.0254 104.625C83.0257 105.241 83.0464 105.852 83.2302 106.446ZM89.0902 126.266C89.122 126.485 89.2951 126.642 89.5217 126.652C89.7523 126.662 89.9683 126.443 89.9599 126.214C89.9438 125.772 89.5842 125.413 89.1431 125.396C88.8977 125.388 88.7151 125.605 88.7048 125.835C88.6948 126.059 88.8817 126.234 89.0902 126.266ZM92.0557 101.071C92.5188 101.225 93.0136 101.372 93.3767 101.715C93.787 102.103 94.4075 101.484 93.9965 101.095C93.5177 100.643 92.9019 100.43 92.2886 100.225C91.7515 100.046 91.5233 100.893 92.0557 101.071ZM94.0655 118.102C94.1928 118.32 94.4506 118.359 94.665 118.26C94.9524 118.126 95.2698 118.13 95.5798 118.13C96.1445 118.13 96.1437 117.253 95.5798 117.253C95.1017 117.254 94.6606 117.299 94.2226 117.503C94.0071 117.603 93.9546 117.913 94.0655 118.102ZM95.2012 138.772C95.4466 138.781 95.6291 138.564 95.6394 138.334C95.6495 138.11 95.4627 137.935 95.254 137.902C95.2222 137.684 95.049 137.527 94.8225 137.517C94.5918 137.506 94.3759 137.725 94.3843 137.955C94.4004 138.396 94.7599 138.756 95.2012 138.772ZM15.3529 142.087C15.5017 141.551 15.8425 141.118 16.0999 140.636C16.1863 140.474 16.2163 140.372 16.2631 140.253C16.3266 140.381 16.45 140.476 16.6354 140.476C16.9913 140.477 17.4075 140.454 17.7396 140.606C17.9555 140.705 18.2099 140.67 18.3391 140.449C18.45 140.259 18.397 139.948 18.1818 139.849C17.6924 139.625 17.1664 139.6 16.6354 139.6C16.5043 139.6 16.405 139.648 16.3349 139.721C16.132 136.941 16.1371 134.16 16.329 131.379C16.5338 128.407 17.005 125.494 17.498 122.56C17.7367 121.137 18.0468 119.7 17.9865 118.252C17.9262 116.813 17.3094 115.471 17.7466 114.028C17.9219 113.449 18.2221 112.919 18.4171 112.347C18.6263 111.731 18.6077 111.123 18.5124 110.485C18.3163 109.186 17.991 107.903 18.5114 106.635C18.7414 106.073 19.114 105.571 19.2935 104.99C19.517 104.268 19.4863 103.469 19.5236 102.72C19.5992 101.21 19.6189 99.6899 19.7439 98.183C19.7997 97.5079 19.9213 96.8679 20.1985 96.2487C20.4648 95.6525 20.8602 95.11 21.0366 94.4777C21.2119 93.8552 21.2272 93.1987 21.3214 92.562C21.42 91.8891 21.5745 91.226 21.7827 90.5794C22.5868 88.0763 24.0604 85.8275 25.8012 83.8778C27.6516 81.8054 29.8636 80.2448 32.2114 78.7905C33.446 78.0258 34.6805 77.261 35.9142 76.4963C35.9405 76.6398 36.032 76.7716 36.2076 76.8303C36.6709 76.9851 37.1656 77.1322 37.5288 77.4751C37.9389 77.8624 38.5596 77.2433 38.1485 76.8552C37.7197 76.4502 37.1808 76.237 36.6324 76.0497C37.1945 75.6953 37.7627 75.3283 38.397 75.1235C38.9526 74.9438 39.772 75.1005 40.2223 74.6928C40.5761 74.3717 40.688 73.7766 40.8237 73.3405C40.9935 72.7991 41.1403 72.2281 41.3561 71.7021C41.503 71.3426 41.7166 70.9974 41.9861 70.719C42.1044 70.2631 42.3215 69.8466 42.7049 69.5935C43.7083 68.9293 44.9409 69.5891 45.3824 70.536C45.7472 70.5349 46.1317 70.6149 46.4867 70.6368C47.2164 70.6828 47.9471 70.7037 48.6779 70.7015C50.1076 70.6971 51.5384 70.6039 52.9561 70.4143C55.4912 70.0746 57.9508 69.3896 60.4432 68.8559C60.4574 68.823 60.4739 68.7902 60.4936 68.7573C61.0304 67.8564 62.3681 68.0088 63.2107 68.3496C63.5722 68.4954 63.9403 68.6795 64.1473 69.0214C64.3664 69.1694 64.556 69.3491 64.682 69.5387C64.9427 69.9299 65.1443 70.719 65.6735 70.7848C66.0219 70.8275 66.3757 70.7606 66.7296 70.8111C67.1722 70.8724 67.5688 71.0281 67.9774 71.2056C71.0889 72.5569 74.3055 74.0594 77.6821 74.5833C78.4741 74.706 79.2805 74.8331 79.9685 75.277C80.5272 75.6375 80.959 76.1329 81.4201 76.6031C81.8693 77.0611 82.2396 77.2639 82.8805 77.3461C83.6584 77.4458 84.3321 77.6606 84.9008 78.2261C85.3729 78.6963 85.6808 79.2968 86.0511 79.8426C86.4281 80.3994 86.9812 80.7128 87.5553 81.0361C88.9127 81.801 90.177 82.7249 91.2781 83.8329C93.5974 86.1694 95.0019 89.1723 96.4174 92.0984C97.9479 95.2635 99.3787 98.4669 100.371 101.847C101.344 105.165 101.923 108.579 102.19 112.025C102.472 115.64 102.511 119.27 102.745 122.887C102.863 124.695 102.951 126.504 103.041 128.312C103.129 130.099 103.257 131.888 103.236 133.677C103.197 137.135 102.506 140.603 101.297 143.841C100.996 144.646 100.662 145.441 100.306 146.223C99.9934 146.91 98.9252 146.834 98.5899 146.223C98.5132 146.083 98.453 145.938 98.4026 145.791C97.5261 145.799 96.6409 145.731 95.7699 145.812C94.2317 145.956 92.6904 146.036 91.1478 146.131C88.0954 146.321 85.0377 146.447 81.9843 146.621C81.6881 146.638 81.3919 146.655 81.0957 146.672C83.2716 139.935 82.9894 132.652 83.3338 125.645C83.3615 125.081 82.4848 125.084 82.4573 125.645C82.1115 132.682 82.4059 139.984 80.1531 146.732C79.279 146.791 78.4062 146.864 77.5363 146.969C76.8331 147.054 76.1263 147.154 75.4164 147.118C74.6111 147.08 73.8245 146.896 73.039 146.736C71.6115 146.446 70.2365 146.577 68.8035 146.756C67.2708 146.948 65.7326 147.054 64.1901 147.121C58.0132 147.391 51.7948 147.638 45.6201 147.225C44.1258 147.125 42.6347 146.985 41.1502 146.794C39.6208 146.598 38.1078 146.268 36.5796 146.081C35.0732 145.897 33.6882 146.402 32.1994 146.495C30.681 146.59 29.1219 146.274 27.6177 146.092C27.127 146.032 26.6357 145.974 26.1444 145.917C26.7769 141.58 27.1366 137.21 27.486 132.842C27.531 132.278 26.6542 132.283 26.6095 132.842C26.263 137.176 25.9113 141.513 25.2797 145.816C22.675 145.513 20.0678 145.206 17.4902 144.734C16.7562 144.6 16.0265 144.382 15.5872 143.727C15.2619 143.241 15.1961 142.646 15.3529 142.087Z" fill="#343840"/>
<path fill-rule="evenodd" clip-rule="evenodd" d="M35.036 50.1098C35.2719 48.0368 34.9667 43.704 34.9462 43.4407C34.8169 41.7766 35.5964 35.205 37.07 35.8105C39.5418 33.8531 42.8341 33.4208 45.9126 33.2144C52.3072 32.7854 59.1099 33.7701 64.0477 38.0749C66.4896 40.3105 68.8669 43.562 68.6758 46.9476C70.8944 50.1567 74.0222 54.5587 71.2579 58.3104C70.3182 59.509 68.8248 59.9554 67.6444 60.8632C65.2701 62.7788 63.7805 65.5281 61.3837 67.4324C55.0338 73.1403 44.2515 74.3327 38.0126 67.8404C33.1883 63.1384 33.9683 56.1041 34.8169 50.1098C35.3874 46.0798 34.5759 54.1539 35.036 50.1098Z" fill="white"/>
<path fill-rule="evenodd" clip-rule="evenodd" d="M54.455 24.4236C52.7448 24.0784 50.9887 23.8636 49.2422 23.9282L49.1076 23.9334C47.7935 23.986 46.1294 24.1022 44.9831 24.8665C44.9171 24.8004 44.8111 24.7664 44.7149 24.8123C43.3527 25.4627 41.8544 25.933 40.42 26.4003C38.9923 26.8653 37.5111 27.1723 36.0146 27.296C35.4516 27.3426 34.9698 27.9507 35.3263 28.4962C35.4111 28.6261 35.4937 28.7574 35.576 28.889C35.4384 28.8747 35.3008 28.8599 35.1632 28.846C34.7104 28.8004 34.258 29.2838 34.2848 29.7248C34.3016 30.0022 34.3315 30.2763 34.3758 30.5471C34.2033 30.5435 34.0319 30.5693 33.8662 30.6394C33.0274 30.9937 33.0858 31.9931 33.1486 32.7534C33.2356 33.8086 33.6301 34.9262 34.3626 35.7159C33.8157 36.2842 33.4285 36.9628 33.1976 37.7687C33.0301 38.3572 32.9368 38.9841 32.9829 39.5967L32.9975 39.7801C33.0544 40.445 33.1676 41.181 33.6457 41.6593C33.8911 41.9058 34.1935 41.9957 34.4817 41.9672C34.3074 43.4993 34.1957 45.0402 34.0905 46.5756L34.0412 47.3095C33.8065 50.8581 33.6302 54.4298 33.6764 57.9842C33.7192 61.306 34.3753 64.5302 36.412 67.2273C38.2669 69.6833 40.9301 71.4938 43.943 72.182C45.5666 72.5535 47.2242 72.5798 48.8676 72.3431C49.6641 72.228 50.466 72.0516 51.222 71.7732C52.059 71.4642 52.6604 71.0094 53.2235 70.3277C53.4899 70.0044 53.3617 69.3162 52.8313 69.3808C52.0292 69.4781 51.297 69.5954 50.528 69.8327L50.4179 69.8674C49.652 70.1129 48.8588 70.2959 48.058 70.3737C46.4179 70.5326 44.7527 70.3726 43.1815 69.8751C40.6234 69.0641 38.4202 67.2569 37.008 64.9861C35.3318 62.2945 35.1422 59.2391 35.1664 56.1442C35.1924 52.7481 35.3028 49.35 35.4831 45.9574L35.5137 45.392C35.6091 43.6462 35.7011 41.8993 35.782 40.1524C35.8072 39.6044 35.8456 39.052 35.9147 38.5052C36.5467 38.1348 37.1132 37.624 37.4824 36.9939C38.2241 37.3007 39.0041 37.5221 39.7218 37.6986C41.3842 38.1076 43.1102 38.2069 44.8023 37.9507C45.2587 38.1394 45.7242 38.3052 46.1969 38.4479C46.3246 38.5045 46.4524 38.5602 46.58 38.6148C47.7195 39.1025 48.8753 39.5156 50.0782 39.8181L50.3737 39.8918C51.0067 40.0479 51.6942 40.2016 52.3679 40.2499C52.4786 40.2926 52.598 40.3288 52.7285 40.3606C53.3419 40.5096 53.9785 40.5568 54.6073 40.5042C55.2198 40.4526 55.6624 39.8334 55.325 39.2537C55.0785 38.8307 54.8297 38.4087 54.5788 37.9879C55.4519 38.3517 56.3536 38.6542 57.2629 38.9107C58.181 39.1693 59.1122 39.3874 60.0447 39.588C60.5432 39.6943 61.0437 39.7885 61.5411 39.8948C61.8972 39.9704 62.4439 40.0099 62.7343 40.2444C63.0552 40.502 63.1461 41.1025 63.2679 41.473C63.4278 41.9541 63.5779 42.4374 63.7149 42.9262C63.9875 43.9015 64.211 44.8912 64.3841 45.8906C64.5572 46.8912 64.6735 47.9017 64.7381 48.9154C64.8026 49.9281 64.7743 50.9473 64.8782 51.9555C64.9342 52.4903 65.5082 52.7654 65.9322 52.3917C65.9819 52.3479 66.032 52.3035 66.0817 52.2587L66.1557 52.1912C66.5184 51.8624 66.8701 51.5139 67.1603 51.1215C67.2129 51.0492 67.2633 50.9736 67.3104 50.8969C67.3181 50.8969 67.3247 50.8947 67.3323 50.8892L67.4128 50.8286C68.2989 50.1689 69.7792 49.3088 70.6431 50.4048C70.9185 50.7539 71.0594 51.1985 71.1764 51.6274L71.3817 52.3951C71.5145 52.8962 71.6394 53.4001 71.7125 53.9129C71.878 55.0614 71.7947 56.3853 71.0047 57.3059C70.6892 57.6741 70.2542 57.9371 69.769 58.0062C69.4983 58.0434 69.2309 57.9974 68.9625 57.9634C68.6897 57.9294 68.4269 57.9842 68.154 57.9579C67.7202 57.9152 67.5306 58.4347 67.6928 58.7612C67.7804 58.9366 67.8835 59.0878 68.0006 59.2161C67.9065 59.2972 67.8166 59.3848 67.73 59.4769C67.4736 59.5591 67.2437 59.7355 67.0716 59.969C66.9324 60.1575 66.8602 60.3624 66.8481 60.5783C66.8328 60.632 66.8197 60.6868 66.8075 60.7427L66.5725 61.1243C66.5208 61.208 66.4693 61.2907 66.4176 61.3718C65.8194 62.3143 65.1554 63.1121 64.3305 63.8639C63.5362 64.5872 62.6741 65.2349 61.9279 66.0108L61.84 66.103C61.1443 66.8362 60.411 67.7239 60.6833 68.7901C60.7534 69.0641 61.1359 69.2614 61.3856 69.0761C62.1886 68.48 62.593 67.5353 63.2743 66.812C63.9756 66.0667 64.7524 65.3971 65.4556 64.6541C66.1207 63.9527 66.6455 63.1581 67.0409 62.2836C67.1988 62.4578 67.4287 62.5817 67.7475 62.6299C68.2953 62.7121 68.806 62.391 69.0447 61.9164C69.1982 61.9844 69.3547 62.0458 69.5126 62.094C70.3431 62.3482 70.8655 61.4244 70.5522 60.7416C70.3847 60.3756 70.1754 60.0577 69.9157 59.7903C70.7276 59.6785 71.5537 59.2588 72.0872 58.7349C73.4259 57.4187 73.6099 55.4406 73.3087 53.6816C73.1487 52.749 72.8727 51.8054 72.5144 50.9297C72.452 50.7774 72.3851 50.624 72.3118 50.4727C72.3523 50.4716 72.394 50.4541 72.4203 50.4201C72.6624 50.0892 72.957 49.8185 73.1368 49.448C73.3022 49.1083 73.4861 48.7642 73.6166 48.4102C73.8849 47.6858 74.0164 46.8682 74.104 46.1022C74.2848 44.5339 74.2148 42.9755 73.9748 41.4171C73.5662 38.7627 72.5793 36.2226 71.1254 33.9937C71.2046 33.9521 71.2804 33.9018 71.3511 33.8424L71.386 33.812L71.4428 33.7607C71.8577 33.3851 71.8219 32.6812 71.4428 32.3008L71.3231 32.1807C71.1715 32.0301 71.0407 31.9107 70.7959 31.7467C70.7597 31.7225 70.7228 31.6997 70.6854 31.6784C70.8136 31.4415 70.8581 31.1644 70.7688 30.8588C70.4577 29.794 68.926 29.8317 67.9553 30.296C66.8813 29.3372 65.6904 28.5048 64.3996 27.8308C61.3253 26.2264 57.8492 25.1074 54.455 24.4236ZM70.3464 52.4684C69.7723 52.281 69.0098 52.6745 68.4938 52.9112C67.8397 53.2115 67.2832 53.6553 66.7441 54.1244C66.4757 54.3589 66.4276 54.7425 66.4943 55.0702C66.501 55.103 66.5075 55.137 66.5153 55.171C66.5865 55.5206 66.9765 55.7957 67.3216 55.7858C68.0436 55.7661 68.3875 55.1425 68.7963 54.6143C68.8444 54.6997 68.9046 54.7786 68.9792 54.8378L69.0296 54.8773C69.1992 55.0065 69.3862 55.1097 69.6103 55.0997C69.7691 55.0921 69.9213 55.0515 70.0616 54.9781C70.4122 54.7929 70.5666 54.3392 70.4714 53.9698C70.4122 53.7375 70.2764 53.5556 70.0989 53.4295L70.165 53.3843C70.3066 53.2857 70.4357 53.1819 70.5363 53.0285L70.559 52.9923H70.5503C70.6598 52.8038 70.5885 52.5473 70.3464 52.4684Z" fill="#343840"/>
<path fill-rule="evenodd" clip-rule="evenodd" d="M43.306 63.4973C44.1131 63.7311 44.9793 63.752 45.802 63.5105C46.5482 63.2915 47.3143 62.8094 47.8635 62.1716C48.3514 61.6049 48.6673 60.9163 48.6549 60.1812C48.6535 60.0973 48.6235 60.0272 48.5773 59.9728C48.5276 59.9143 48.4582 59.8741 48.3839 59.8566C48.3074 59.8387 48.2266 59.845 48.1577 59.8763C48.0954 59.9046 48.042 59.9527 48.0086 60.023C47.9242 60.1339 47.8402 60.2432 47.7558 60.3494C47.0772 61.1876 46.42 61.814 45.3996 62.0387C44.846 62.1606 44.293 62.1065 43.7857 61.9205C43.2426 61.7214 42.7516 61.3713 42.3669 60.9232C42.1931 60.7208 41.9878 60.6381 41.7871 60.6367C41.5597 60.6351 41.3349 60.7409 41.1655 60.9098C40.999 61.0759 40.8875 61.3016 40.8774 61.5378C40.8686 61.745 40.9362 61.9614 41.1159 62.1545C41.7081 62.7907 42.4756 63.2567 43.306 63.4973ZM43.3309 52.9992C42.5036 53.5022 41.243 54.6752 42.133 55.9223C43.1806 57.0219 44.6889 55.7611 45.4322 55.1909C46.1214 54.749 46.8958 55.8856 46.2563 56.4016C40.8854 60.3793 38.7058 53.1307 42.9124 52.4077C43.3756 52.3281 43.5476 52.8436 43.3309 52.9992ZM51.07 50.7857C51.3359 50.6156 51.6487 50.5572 51.9953 50.715C52.2662 50.8382 52.7413 51.249 53.072 51.7891C53.2982 52.1586 53.4586 52.592 53.4252 53.0434C53.4175 53.1483 53.4562 53.2256 53.5173 53.2828C53.5655 53.3279 53.6352 53.3611 53.7171 53.3715C53.7866 53.3803 53.8644 53.3723 53.9276 53.3526C54.0479 53.315 54.1116 53.2369 54.1356 53.1732C54.3671 52.5581 54.2674 51.8718 54.0079 51.2526C53.6577 50.4169 53.0218 49.7169 52.6052 49.4913C51.8922 49.1049 51.0511 49.0872 50.3371 49.4807C49.7294 49.8157 49.3493 50.3565 48.9714 50.9077C48.891 51.0249 48.8113 51.1413 48.7289 51.2555C48.5637 51.4845 48.5473 51.7116 48.6112 51.9064C48.6821 52.1221 48.8628 52.3042 49.0887 52.3995C49.2975 52.4875 49.5399 52.4999 49.7544 52.4095C49.9356 52.333 50.1018 52.184 50.207 51.9312C50.3842 51.5053 50.6795 51.0355 51.07 50.7857ZM37.5653 51.7331C37.7474 51.828 37.8899 51.8566 38.0919 51.7961C38.2036 51.7625 38.314 51.6982 38.4004 51.6117C38.4861 51.526 38.5479 51.4195 38.5719 51.3012C38.631 51.0095 38.7906 50.7363 39.018 50.5583C39.2124 50.4061 39.4578 50.3255 39.7299 50.371C40.0236 50.42 40.3034 50.6084 40.496 50.8305C40.5605 50.9048 40.6109 50.9893 40.6617 51.0731C40.7566 51.2299 40.8489 51.3756 40.9799 51.4908C41.0295 51.5346 41.1043 51.5649 41.1767 51.5649C41.2062 51.5649 41.236 51.5601 41.2645 51.5513C41.5568 51.2578 41.613 51.0352 41.6036 50.8144C41.5937 50.5828 41.5024 50.3484 41.355 50.1297C41.009 49.6165 40.3522 49.1958 39.909 49.1006C39.302 48.9701 38.6992 49.1267 38.2158 49.4658C37.7185 49.8148 37.35 50.3566 37.2352 50.9671C37.2075 51.1142 37.2193 51.2729 37.2752 51.4105C37.3299 51.545 37.4253 51.6601 37.5653 51.7331ZM49.7312 45.3151C50.0955 45.6702 50.5267 45.7252 50.9628 45.7741C51.2052 45.8015 51.3986 45.8236 51.589 45.8666C52.1123 45.9847 52.6296 46.1627 53.1015 46.419C53.5948 46.6869 54.1323 47.0101 54.5191 47.424C54.6111 47.5225 54.6978 47.6259 54.7846 47.7295C54.8637 47.8239 54.94 47.9148 55.0204 48.0025C55.1127 48.1032 55.2003 48.2088 55.2875 48.3141C55.3414 48.4029 55.352 48.4247 55.3629 48.4475C55.3792 48.4817 55.3982 48.5199 55.4199 48.5609C55.4497 48.6171 55.4845 48.6786 55.5209 48.7344C55.5816 48.8364 55.6142 48.8644 55.6423 48.877C55.689 48.8978 55.7332 48.908 55.7762 48.9025C55.8164 48.8973 55.8544 48.8779 55.8918 48.8463C56.0788 48.6882 56.134 48.4288 56.1284 48.1534C56.1198 47.7356 55.9657 47.273 55.8237 46.9886C55.4934 46.3277 55.0354 45.6408 54.4847 45.1476C53.8563 44.5846 53.1688 44.1584 52.3791 43.8647C51.8883 43.6822 51.3201 43.5146 50.7855 43.5357C50.4007 43.551 50.0333 43.6654 49.7299 43.9512C49.5436 44.1266 49.4541 44.3761 49.4541 44.6255C49.4541 44.8798 49.547 45.1356 49.7312 45.3151ZM36.8244 48.5662C36.8476 48.6042 36.8797 48.6304 36.9153 48.6461C36.9527 48.6626 36.9945 48.6673 37.0346 48.6605C37.0744 48.6538 37.1124 48.6357 37.1424 48.6081C37.1713 48.5816 37.1932 48.5465 37.203 48.5034C37.4449 47.4408 37.9145 46.6503 38.9168 46.1405C39.4099 45.8897 39.9769 45.7303 40.5136 45.6033C40.6695 45.5664 40.8344 45.5425 41.0003 45.5182C41.5205 45.4422 42.0444 45.3552 42.3835 44.9346C42.5878 44.6813 42.6736 44.3573 42.6251 44.061C42.5794 43.782 42.4165 43.5261 42.1202 43.3728C41.3826 42.9914 40.466 43.3657 39.7212 43.6846C39.6659 43.7082 39.6117 43.7315 39.5586 43.7539C38.8302 44.0614 38.1658 44.4674 37.6197 45.048C37.1864 45.5086 36.785 46.1895 36.6233 46.89C36.4888 47.4728 36.5204 48.0677 36.8244 48.5662Z" fill="#343840"/>
<path fill-rule="evenodd" clip-rule="evenodd" d="M41.0107 65.2672C42.031 64.3579 43.1747 62.5299 44.6405 63.9763C45.003 64.385 45.1498 65.3012 45.7042 65.4809C46.4404 65.7198 47.17 64.9406 47.4209 64.3422C48.4475 61.0175 44.2039 60.1056 41.7864 60.6427C40.6054 61.1279 39.7355 63.0808 39.6829 64.1C39.6489 64.785 40.2285 65.7922 41.0107 65.2672ZM33.3132 60.1426C33.3232 60.0985 33.3371 60.0586 33.3538 60.0223C33.8051 59.8517 34.1622 60.0257 34.3828 60.3508C34.3756 60.4315 34.3515 60.5134 34.3362 60.5935C34.5065 60.9523 34.6601 61.3963 34.8908 61.7063C34.9364 61.7098 34.9836 61.705 35.029 61.6918C38.8539 62.0914 36.9865 58.0881 40.8661 57.0938C43.865 56.5988 49.2852 57.1658 50.6999 60.2882C51.8157 65.2755 57.4889 61.8003 59.3516 59.2066C61.339 56.8461 62.6241 53.9616 63.8632 51.1626C64.1251 50.5702 64.9423 50.9938 64.8534 51.5622C65.9987 53.8604 65.9606 56.6211 66.2442 59.1389C66.7267 64.1621 67.1968 71.2065 62.5311 74.2737C56.4521 81.147 41.2721 83.5725 34.2607 77.2571C31.8335 72.0372 32.1327 65.6691 33.3132 60.1426Z" fill="#343840"/>
<path fill-rule="evenodd" clip-rule="evenodd" d="M37.3058 44.8489C34.7342 44.8489 33.2667 45.4021 32.729 45.4452L32.7128 45.4463C32.4891 45.4606 32.2885 45.4793 32.078 45.5608C31.3039 45.859 31.1778 46.6711 31.6295 47.1829C31.6612 48.242 31.522 49.4795 31.7609 50.542C32.0556 55.0211 34.1614 55.777 35.3584 56.0529C35.9593 56.1915 36.6716 56.2466 37.3099 56.1003C38.3989 56.0597 39.4755 55.7187 40.3966 55.1249C41.6794 54.2972 42.6322 53.0251 42.9414 51.5154C43.088 50.7958 43.1564 50.0467 43.0767 49.3153L43.0649 49.2145C43.4818 49.015 43.965 48.9772 44.4631 48.9596C44.7011 48.9511 44.9356 48.9435 45.1634 48.9537C45.3861 48.9785 45.6062 49.0117 45.8269 49.0568C46.0679 49.1295 46.2955 49.2496 46.5057 49.4397L46.5202 49.7173C46.5596 50.4106 46.6506 51.1059 46.791 51.7861C46.9982 52.7897 47.3315 53.7482 48.0409 54.4601C48.281 54.8189 48.5782 55.1391 48.9389 55.4164C50.2492 56.4256 52.0295 56.7962 53.6634 56.6566C56.9804 56.3735 58.8978 53.7394 59.3396 52.6136L59.366 52.5453C59.6852 51.7083 59.9396 50.6223 60.9482 50.4425L61.1627 50.4039C61.623 50.3175 62.0477 50.1972 62.3175 49.748C62.4358 49.5519 62.4967 49.3326 62.5116 49.1089C62.6691 49.1211 62.8263 49.1326 62.983 49.1438C64.2328 49.4082 71.7296 49.6324 72.328 49.6324C72.328 49.6324 73.4782 50.1167 73.9638 49.7415C74.3004 49.4806 74.4112 49.1328 74.2259 48.7389C73.9463 48.1461 72.6564 47.7896 72.0837 47.6767C72.0837 47.6767 62.8409 47.7535 62.1757 47.6273C61.7641 47.2027 61.0278 47.2608 60.4126 47.1937C59.9033 46.8305 59.1908 46.5872 58.628 46.4243C58.5134 46.3808 58.3998 46.3388 58.2894 46.2992C57.2576 45.9316 56.1852 45.7369 55.0964 45.6324C53.9737 45.5257 52.8477 45.574 51.7315 45.7269C51.2611 45.7908 50.7951 45.8733 50.3325 45.9812C49.504 46.0905 48.6803 46.2705 47.8515 46.4839L47.6857 46.5271C46.8129 46.756 45.916 46.9539 45.0126 46.7988C44.277 46.6733 43.5697 46.3901 42.8916 46.0839L42.8033 46.0439C41.3121 45.3628 38.9834 44.8489 37.3058 44.8489ZM50.422 47.3391C50.9722 47.2181 51.2071 48.0666 50.6552 48.188C50.2643 48.274 49.9331 48.4711 49.7093 48.8051L49.6857 48.8414C49.3854 49.3195 48.626 48.8782 48.9284 48.3971C49.2686 47.8557 49.7973 47.4764 50.422 47.3391ZM34.3076 46.813C34.5016 46.6763 34.7951 46.7778 34.9077 46.9709C35.0316 47.1836 34.9504 47.4204 34.7687 47.5595L34.7502 47.5731C34.5836 47.6905 34.4213 47.9011 34.401 48.1169L34.3992 48.1439C34.3773 48.7085 33.5001 48.7114 33.522 48.1439C33.5434 47.5887 33.8648 47.1249 34.3076 46.813Z" fill="#343840"/>
<path fill-rule="evenodd" clip-rule="evenodd" d="M170.681 92.1143C169.726 88.4101 168.848 86.8395 167.152 85.552C165.565 84.3478 163.249 83.3363 159.869 82.5975C156.349 81.982 156.249 80.1522 155.367 77.2114C155.109 76.3273 153.833 76.0921 153.283 76.7293C153.205 76.6455 153.124 76.5687 153.04 76.4994C153.115 76.0777 152.501 74.8692 152.522 74.4659C152.736 70.2562 151.359 68.1422 147.923 67.3563C147.176 67.1853 142.1 67.0847 141.371 67.2862C138.185 68.167 135.05 70.9637 135.529 74.3327C134.529 75.6396 133.551 76.4373 132.008 76.8584C128.575 77.2943 125.142 77.682 121.708 78.0139C114.986 79.0683 108.684 82.6268 104.376 87.8166C103.979 88.2957 103.864 88.9459 104.215 89.4568C103.94 90.6335 102.394 93.4877 103.61 94.2944C101.61 99.0798 97.0068 108.33 96.9981 110.972C96.9618 122.073 98.1609 136.523 109.114 142.667C109.553 143.098 109.615 143.575 109.805 144.216C110.287 146.237 112.036 147.682 113.95 147.564C123.379 147.774 132.513 146.623 141.942 146.567C146.101 146.543 151.102 147.163 154.715 147.577C158.327 147.991 161.974 147.625 165.44 146.567C165.733 147.028 166.324 147.296 166.923 147.163C170.517 146.449 173.424 144.234 175.955 141.813C176.728 140.406 179.749 136.396 178.548 135.001C179.637 130.398 179.58 125.454 177.646 121.071C177.92 120.268 177.421 119.385 177.646 118.556C177.809 117.955 178.227 117.707 178.438 117.113C178.734 116.276 178.412 115.154 178.079 114.3C177.942 113.875 178.33 113.417 178.438 112.983C178.949 110.935 177.778 111.116 176.934 109.747C176.946 109.743 177.166 108.766 177.165 108.771C177.294 108.073 176.97 107.179 176.688 106.597C176.497 106.203 176.088 105.957 175.681 106.002C176.09 104.612 176.608 103.456 177.165 102.117C178.149 99.7568 179.395 97.4967 180.809 95.3604C181.388 94.4856 180.61 93.4722 179.674 93.4126C176.641 93.2199 173.642 92.7832 170.681 92.1143Z" fill="white"/>
<path fill-rule="evenodd" clip-rule="evenodd" d="M161.831 109.963C160.618 109.487 159.313 109.224 158 109.122C158.707 108.998 159.415 108.879 160.13 108.817C160.628 108.775 161.091 108.779 161.465 109.157C161.715 109.409 161.832 109.734 161.997 110.032C161.943 110.008 161.887 109.985 161.831 109.963ZM174.849 105.515C172.863 105.616 170.874 106.089 169.077 106.944C168.342 107.295 167.676 107.801 167.481 108.634C167.383 109.06 167.407 109.499 167.459 109.929C167.499 110.254 167.509 110.669 167.791 110.89C167.839 110.927 167.891 110.955 167.945 110.976C167.282 111.276 166.651 111.635 166.09 112.005C165.577 112.344 165.05 112.866 164.813 113.454C164.794 113.387 164.774 113.325 164.754 113.266C164.351 112.073 163.73 111.097 162.752 110.44C162.925 110.363 163.044 110.178 162.988 109.924C162.756 108.862 161.775 107.939 160.668 108.005C159.455 108.076 158.152 108.518 157.056 109.076C156.656 109.067 156.257 109.073 155.863 109.09C155.795 109.092 155.798 109.185 155.863 109.192C156.183 109.233 156.502 109.278 156.822 109.33C157.583 109.452 158.341 109.606 159.082 109.798C159.972 110.028 160.892 110.26 161.724 110.662C163.336 111.443 164.335 113.486 164.13 115.264C164.096 115.555 163.983 116.436 163.579 116.345C163.237 116.269 163.101 115.555 162.982 115.291C162.662 114.59 162.085 114.132 161.394 113.821C160.582 113.456 159.714 113.21 158.872 112.923C158.396 112.76 157.919 112.596 157.441 112.434C156.953 112.266 156.488 112.035 155.968 112.152C155.653 112.223 155.617 112.598 155.794 112.813C156.062 113.141 156.461 113.237 156.848 113.372C157.358 113.55 157.867 113.727 158.377 113.905C159.165 114.179 159.99 114.41 160.758 114.745L160.734 114.8C160.671 114.782 160.598 114.845 160.61 114.922C160.725 115.631 160.885 116.45 160.707 117.161C160.567 117.724 160.073 118.348 159.431 118.182C159.532 118.09 159.569 117.931 159.501 117.784C159.247 117.241 155.916 115.095 155.619 115.892C155.61 115.92 155.64 115.941 155.664 115.937C155.917 115.884 156.341 116.316 156.544 116.453C156.836 116.65 157.133 116.843 157.423 117.046C157.739 117.267 158.048 117.499 158.35 117.739C158.586 117.928 158.765 118.124 159.036 118.219C158.894 118.287 158.781 118.413 158.733 118.574C158.61 118.994 158.374 119.35 157.963 119.536C157.532 119.728 157.047 119.607 156.593 119.654C155.975 119.716 155.436 120.01 154.986 120.43C154.041 121.313 153.566 122.869 152.244 123.287C151.454 123.536 150.578 123.379 149.778 123.266C148.885 123.14 148.015 123.04 147.116 123.172C146.254 123.298 145.44 123.596 144.654 123.96C143.916 124.301 143.101 124.687 142.447 125.195C142.313 124.78 142.177 124.369 142.074 123.944C141.831 122.942 141.699 121.92 141.667 120.89C141.638 119.909 141.692 118.924 141.777 117.948C141.818 117.46 141.884 116.974 141.926 116.487C141.937 116.364 141.959 116.232 141.975 116.101C143.143 115.412 144.37 114.883 145.607 114.34C145.61 114.339 145.614 114.336 145.617 114.335C145.655 114.318 145.692 114.301 145.731 114.285C145.73 114.283 145.729 114.281 145.726 114.278C145.868 114.192 145.966 114.077 146.025 113.947C147.808 112.765 149.298 111.151 150.409 109.268C150.874 108.479 151.323 107.66 151.932 106.969C152.58 106.231 153.35 105.793 154.304 105.565C155.418 105.297 156.566 105.137 157.708 105.046C158.331 104.997 159.028 104.92 159.707 104.924C160.18 104.927 160.644 104.967 161.069 105.085C161.699 105.258 162.067 105.737 162.462 106.221C162.84 106.686 163.216 107.152 163.569 107.636C163.903 108.095 164.219 108.57 164.492 109.067C164.657 109.365 164.809 109.672 164.937 109.989C164.982 110.101 165.041 110.228 165.069 110.344C165.096 110.461 165.046 110.585 165.177 110.585C164.635 110.593 164.64 111.46 165.179 111.428C167.289 111.305 164.267 107.185 163.825 106.61C163.2 105.797 162.554 104.736 161.553 104.358C161.539 104.353 161.523 104.347 161.509 104.343C161.801 104.066 162.031 103.736 162.251 103.399C162.478 103.053 162.748 102.656 162.823 102.245C162.87 101.983 162.544 101.834 162.39 102.063C162.165 102.397 162.057 102.82 161.889 103.188C161.718 103.56 161.51 103.912 161.346 104.288C160.95 104.166 160.523 104.11 160.088 104.092C160.637 103.349 161.575 101.915 161.688 101.731C162.207 100.878 162.701 99.9996 163.173 99.1195C163.684 98.166 164.121 97.1731 164.61 96.2087C164.887 95.6619 165.166 95.1105 165.474 94.5801C165.58 94.3982 165.694 94.2163 165.824 94.0508C165.849 94.018 165.881 93.9906 165.91 93.9598C165.944 93.9412 165.979 93.9204 165.999 93.9095C166.176 93.8076 166.239 93.5709 166.364 93.4206C166.563 93.1785 166.798 93.15 167.098 93.1466C167.737 93.1401 168.38 93.1653 169.018 93.1828C169.957 93.2091 170.895 93.2464 171.833 93.2957C172.117 93.311 172.399 93.3264 172.683 93.3439C174.047 93.4251 175.41 93.5313 176.769 93.6618C177.972 93.7768 179.175 93.9643 180.379 94.0542C178.749 97.9283 176.941 101.732 174.895 105.404C174.874 105.441 174.859 105.478 174.849 105.515ZM165.804 115.496C165.541 115.617 165.286 115.767 165.048 115.938C165.087 115.671 165.097 115.391 165.086 115.109C165.282 115.319 165.533 115.44 165.804 115.496ZM177.028 108.832C177.009 108.834 176.992 108.844 176.983 108.862C176.619 109.613 176.771 110.451 177.365 111.04C177.677 111.347 178.355 111.693 178.333 112.197C178.314 112.605 177.87 112.947 177.681 113.283C177.505 113.597 177.439 113.941 177.58 114.281C177.761 114.716 178.266 114.889 178.439 115.316C178.658 115.859 178.302 116.513 178.052 116.985C177.82 117.423 177.52 117.86 177.32 118.322C175.985 119.014 174.79 120.075 173.762 121.152C172.637 122.33 171.672 123.717 169.885 123.682C169.706 123.678 169.57 123.773 169.489 123.903C168.992 123.926 168.493 123.936 167.996 123.938C167.122 123.942 166.248 123.933 165.374 123.906C165.313 123.695 165.358 123.408 165.355 123.229C165.344 122.653 165.338 122.079 165.314 121.504C165.308 121.344 165.301 121.183 165.294 121.023C165.609 121.591 166.222 121.85 166.921 121.811C168.045 121.745 169.176 121.561 170.289 121.395C170.875 121.309 171.46 121.21 172.044 121.105C172.524 121.019 173.201 121.041 173.536 120.657C173.615 120.567 173.62 120.403 173.496 120.342C173.164 120.179 172.955 120.27 172.59 120.34C172.145 120.427 171.699 120.509 171.252 120.586C170.394 120.734 169.534 120.873 168.672 120.994C168.181 121.063 167.689 121.131 167.197 121.185C166.768 121.231 166.284 121.293 165.937 120.97C165.24 120.317 165.631 119.222 166.072 118.562C166.081 118.549 166.081 118.537 166.078 118.526C166.494 118.429 166.909 118.315 167.323 118.235C168.12 118.081 168.922 117.952 169.725 117.837C171.375 117.601 173.036 117.446 174.694 117.289C175.105 117.249 175.109 116.603 174.694 116.641C172.311 116.859 169.917 117.066 167.565 117.526C166.976 117.64 166.391 117.769 165.809 117.915C165.534 117.983 165.24 118.089 164.951 118.092C164.934 118.092 164.916 118.092 164.899 118.091C164.335 118.074 164.252 117.59 164.563 117.188C164.601 117.139 164.64 117.089 164.681 117.042C165.229 116.389 165.911 115.953 166.614 115.501C167.402 115.394 168.188 115.155 168.959 114.98C170.863 114.546 172.767 114.112 174.672 113.679C175.046 113.593 174.887 113.019 174.514 113.104C173.067 113.431 171.621 113.759 170.175 114.087L168.059 114.567C167.636 114.662 167.107 114.854 166.61 114.923C166.365 114.957 166.127 114.961 165.912 114.911C165.219 114.746 165.184 113.879 165.483 113.364C165.818 112.786 166.451 112.424 167.013 112.096C167.987 111.528 169.024 111.119 170.036 110.648C170.216 110.608 170.395 110.569 170.575 110.529C171.62 110.299 172.814 110.186 173.798 109.764C174.093 109.639 173.932 109.175 173.64 109.181C172.877 109.198 172.078 109.469 171.332 109.631C170.525 109.806 169.716 109.98 168.909 110.154C168.828 110.172 168.348 110.325 168.275 110.291C168.229 110.269 168.213 110.11 168.198 110.004C168.148 109.658 168.112 109.294 168.166 108.947C168.284 108.167 168.934 107.801 169.591 107.502C171.055 106.837 172.66 106.421 174.257 106.254C174.625 106.216 174.993 106.192 175.364 106.179C175.799 106.166 176.157 106.09 176.377 106.518C176.723 107.193 176.914 108.061 177.028 108.832ZM174.995 133.309C174.676 132.205 174.763 131.027 174.545 129.902C174.432 129.321 174.278 128.745 174.11 128.178C173.974 127.72 173.748 127.233 173.722 126.756C173.721 126.724 173.758 126.705 173.784 126.72C174.234 126.978 174.58 127.535 174.836 127.972C175.144 128.496 175.378 129.043 175.567 129.62C175.944 130.767 176.254 132.152 175.768 133.309C175.623 133.653 175.115 133.722 174.995 133.309ZM165.139 118.694C165.408 118.668 165.678 118.616 165.947 118.556C165.646 118.85 165.368 119.203 165.213 119.596C165.189 119.295 165.158 118.994 165.118 118.695C165.125 118.695 165.132 118.695 165.139 118.694ZM162.549 141.661C162.073 141.33 161.727 140.866 161.324 140.457C160.928 140.054 161.547 139.434 161.944 139.837C162.288 140.186 162.586 140.622 162.991 140.904C163.186 141.04 163.276 141.286 163.148 141.504C163.035 141.697 162.743 141.797 162.549 141.661ZM159.898 128.911C160.766 128.535 161.619 128.127 162.527 127.856C163.07 127.695 163.299 128.541 162.76 128.702C161.924 128.951 161.14 129.322 160.341 129.668C159.828 129.889 159.382 129.134 159.898 128.911ZM150.736 128.648C150.524 128.124 151.372 127.899 151.581 128.415C151.822 129.009 152.098 129.588 152.338 130.182C152.55 130.706 151.702 130.932 151.493 130.415C151.253 129.821 150.977 129.242 150.736 128.648ZM141.693 139.105C141.551 139.294 141.316 139.396 141.093 139.263C140.907 139.151 140.793 138.854 140.936 138.663C141.354 138.106 141.777 137.556 142.266 137.059C142.663 136.656 143.283 137.277 142.886 137.679C142.449 138.122 142.066 138.608 141.693 139.105ZM140.399 80.4301C140.802 80.705 141.154 81.0389 141.498 81.3825C141.897 81.7819 141.278 82.4018 140.878 82.0023C140.588 81.7128 140.296 81.4189 139.957 81.1872C139.761 81.0533 139.673 80.8042 139.8 80.5874C139.913 80.3932 140.204 80.2966 140.399 80.4301ZM153.556 94.5388C153.329 94.9944 153.124 95.441 153.111 95.9588C153.097 96.5229 152.221 96.5232 152.235 95.9588C152.252 95.2812 152.501 94.6935 152.799 94.0963C153.052 93.5907 153.807 94.0353 153.556 94.5388ZM158.384 83.2076C158.855 82.8934 159.293 83.6532 158.826 83.9647C158.447 84.2171 158.069 84.4697 157.69 84.7222C157.219 85.0363 156.781 84.2766 157.248 83.9652C157.626 83.7126 158.005 83.4601 158.384 83.2076ZM137.446 103.019C137.365 103.576 136.521 103.338 136.6 102.786C136.724 101.933 136.874 101.092 137.105 100.261C137.257 99.7174 138.102 99.9497 137.95 100.494C137.719 101.325 137.569 102.166 137.446 103.019ZM134.373 113.062C133.808 113.05 133.808 112.174 134.373 112.185C134.883 112.196 135.385 112.331 135.877 112.454C136.425 112.591 136.192 113.436 135.644 113.299C135.228 113.195 134.804 113.071 134.373 113.062ZM133.238 133.293C133.044 133.387 132.846 133.472 132.65 133.562C132.257 133.741 131.865 133.921 131.473 134.101C130.657 134.476 129.84 134.852 129.025 135.23C127.393 135.986 125.748 136.715 124.111 137.463C122.443 138.225 120.778 138.998 119.116 139.774C118.333 140.14 117.544 140.492 116.756 140.849C116.083 141.153 115.251 141.685 114.512 141.735C114.474 141.738 114.461 141.69 114.483 141.665C114.762 141.348 115.207 141.163 115.574 140.956C115.949 140.745 116.331 140.547 116.711 140.345C117.504 139.925 118.297 139.509 119.098 139.103C120.698 138.293 122.302 137.489 123.906 136.685C125.542 135.866 127.176 135.041 128.826 134.251C129.603 133.879 130.381 133.508 131.159 133.138C131.58 132.937 132.002 132.737 132.424 132.538C132.606 132.452 132.787 132.358 132.973 132.281C133.22 132.179 133.408 132.2 133.664 132.137C134.08 132.034 134.26 132.563 133.941 132.794C133.677 132.984 133.539 133.146 133.238 133.293ZM127.387 142.283C127.297 142.064 127.486 141.799 127.693 141.744C127.942 141.678 128.142 141.829 128.232 142.05C128.473 142.635 128.815 143.171 129.255 143.624C129.649 144.029 129.03 144.649 128.636 144.244C128.084 143.676 127.687 143.013 127.387 142.283ZM123.083 128.21C122.683 127.811 123.303 127.191 123.702 127.59L124.838 128.726C125.238 129.126 124.618 129.746 124.218 129.346L123.083 128.21ZM111.429 126.358C110.612 126.597 109.66 126.818 109.103 127.514C109.076 127.549 109.03 127.505 109.046 127.471C109.759 125.993 111.803 125.474 113.219 124.956C114.22 124.59 115.247 124.286 116.283 124.015C116.179 122.833 116.465 121.566 116.564 120.39C116.67 119.134 116.756 117.875 116.8 116.616C116.845 115.331 116.856 114.037 116.814 112.752C116.772 111.471 116.606 110.206 116.533 108.93C116.526 108.806 116.698 108.8 116.735 108.902C117.165 110.087 117.349 111.399 117.489 112.648C117.633 113.934 117.681 115.217 117.662 116.511C117.643 117.841 117.566 119.169 117.46 120.495C117.41 121.123 117.351 121.751 117.296 122.379C117.254 122.859 117.234 123.334 117.137 123.798C117.761 123.645 118.388 123.5 119.012 123.359C121.002 122.91 123 122.493 124.982 122.007C125.955 121.769 126.914 121.483 127.883 121.229C128.795 120.991 129.757 120.701 130.693 120.595C131.028 120.556 131.07 121.014 130.849 121.169C130.088 121.703 129.077 122.075 128.198 122.375C127.316 122.675 126.399 122.891 125.495 123.113C123.609 123.577 121.706 123.956 119.805 124.351C117.907 124.746 116.006 125.138 114.129 125.625C113.225 125.859 112.325 126.095 111.429 126.358ZM106.954 102.902C106.466 103.189 106.025 102.431 106.512 102.145C107.148 101.772 107.826 101.491 108.509 101.217C109.034 101.007 109.26 101.856 108.742 102.063C108.128 102.309 107.526 102.567 106.954 102.902ZM105.187 135.475C104.698 135.759 104.257 135.001 104.745 134.718C105.43 134.321 106.18 134.056 106.89 133.708C107.395 133.461 107.839 134.217 107.332 134.465C106.623 134.813 105.872 135.078 105.187 135.475ZM104.392 116.985C104.865 117.435 105.497 117.646 106.092 117.883C106.611 118.088 106.383 118.936 105.859 118.728C105.117 118.434 104.362 118.165 103.772 117.605C103.362 117.216 103.983 116.597 104.392 116.985ZM109.626 91.8747C110.146 92.0788 109.918 92.9264 109.393 92.7202C108.81 92.4916 108.208 92.3176 107.626 92.089C107.106 91.8849 107.334 91.0374 107.859 91.2434C108.441 91.4721 109.043 91.6461 109.626 91.8747ZM118.859 81.9009C119.411 81.8077 119.646 82.6527 119.092 82.7464C118.403 82.8627 117.725 82.9987 117.072 83.2514C116.545 83.4554 116.319 82.6074 116.839 82.406C117.492 82.1533 118.17 82.0171 118.859 81.9009ZM121.909 106.185C121.402 105.936 121.847 105.18 122.351 105.428C122.883 105.689 123.434 105.891 124.014 106.015C124.566 106.133 124.331 106.978 123.781 106.86C123.128 106.721 122.507 106.479 121.909 106.185ZM124.79 92.506C125.336 92.3565 125.567 93.2024 125.023 93.3515C124.068 93.6134 123.083 93.7496 122.121 93.9827C121.572 94.1156 121.34 93.2699 121.887 93.1373C122.85 92.9041 123.835 92.7681 124.79 92.506ZM137.013 88.2134C137.568 88.3161 137.332 89.161 136.78 89.0589C136.193 88.9503 135.599 88.9486 135.004 88.9482C134.439 88.948 134.44 88.0713 135.004 88.0715C135.68 88.0718 136.347 88.0901 137.013 88.2134ZM176.877 92.7938C175.445 92.6569 174.011 92.5473 172.574 92.4651C172.508 92.4617 172.442 92.4574 172.375 92.454C172.367 92.4388 172.358 92.4244 172.348 92.4091C171.879 91.7208 171.534 91.0327 171.235 90.2545C170.949 89.5136 170.671 88.7499 170.231 88.0814C169.729 87.3197 169.051 86.7237 168.307 86.2072C167.857 86.5104 167.438 86.8655 167.055 87.2419C166.652 87.6378 166.033 87.018 166.436 86.6219C166.776 86.2874 167.139 85.9785 167.523 85.6993C167.079 85.43 166.627 85.1768 166.186 84.925C164.533 83.9815 162.84 83.109 161.113 82.3113C160.31 81.9396 159.497 81.6098 158.678 81.2755C158.238 81.0959 157.803 80.8645 157.362 80.6564C157.394 80.3451 157.301 79.9966 157.062 79.7916C156.886 79.6415 156.749 79.5856 156.539 79.4794C156.491 79.4628 156.463 79.453 156.45 79.4475C156.46 79.4497 156.488 79.4585 156.535 79.4738C156.647 79.5254 156.656 79.51 156.562 79.4289C156.556 79.2514 156.207 78.8766 156.127 78.6936C155.848 78.0655 155.762 77.4014 155.351 76.8293C154.785 76.0414 153.834 75.7434 152.947 76.0107C152.855 75.0627 152.831 74.0732 152.474 73.227C152.464 73.2041 152.432 73.1941 152.418 73.2193C152.046 73.854 152.014 74.5608 151.985 75.2928C151.958 75.98 151.984 76.6825 152.074 77.3652C152.017 77.4091 151.959 77.4508 151.899 77.4913C151.616 77.6776 151.312 77.8211 150.992 77.9276C150.383 78.1291 149.744 78.2168 149.105 78.2475C147.456 78.3264 145.757 78.1598 144.136 77.877C142.496 77.591 139.981 77.1614 138.522 76.3405C137.559 75.7993 136.67 75.1383 135.77 74.4983C136.096 73.4462 136.18 72.3152 135.851 71.4264C135.811 71.3201 135.645 71.3004 135.613 71.4264C135.407 72.2746 135.347 73.1273 135.073 73.9657C135.069 73.9777 135.064 73.991 135.06 74.0029C134.974 73.945 134.889 73.8879 134.804 73.8309C134.606 73.7004 134.338 73.7981 134.22 73.9843C132.327 76.9663 129.331 77.1373 126.185 77.67C122.741 78.2529 119.28 78.882 115.97 80.0229C112.803 81.1145 109.777 82.7036 107.38 85.0774C106.838 85.6149 106.33 86.1875 105.851 86.7853C106.315 86.8437 106.774 86.9347 107.228 87.0773C107.765 87.246 107.534 88.0922 106.995 87.9227C106.412 87.7394 105.822 87.6488 105.227 87.6036C103.598 89.8325 102.328 92.3599 101.23 94.8475C99.1233 99.6171 97.7522 104.697 97.1212 109.868C97.4677 109.66 97.8203 109.462 98.1818 109.278C98.684 109.023 99.1269 109.78 98.6242 110.035C98.0658 110.32 97.5235 110.633 96.9981 110.972C96.7686 113.236 96.6796 115.514 96.7335 117.789C96.8617 123.211 97.5935 128.793 99.249 133.967C100.061 136.506 101.137 139.025 102.739 141.17C103.465 142.142 104.289 143.019 105.259 143.75C105.729 144.105 106.227 144.422 106.751 144.689C107.427 145.036 108.308 145.15 108.891 145.639C109.083 145.801 109.231 146.013 109.342 146.253C109.278 146.709 109.27 147.166 109.395 147.622C109.434 147.765 109.542 147.881 109.674 147.937C109.677 147.976 109.677 148.014 109.677 148.052C109.677 148.069 109.703 148.074 109.706 148.056C109.712 148.022 109.717 147.988 109.723 147.953C109.765 147.967 109.81 147.974 109.856 147.974C111.52 147.98 113.187 147.94 114.853 147.883C114.724 147.488 114.585 147.097 114.451 146.702C114.269 146.166 115.115 145.937 115.296 146.469C115.453 146.93 115.616 147.388 115.762 147.851C117.548 147.785 119.333 147.705 121.114 147.646C124.904 147.52 128.692 147.478 132.483 147.399C138.37 147.274 144.299 147.018 150.195 147.268C150.399 146.835 150.627 146.412 150.843 145.985C151.099 145.481 151.854 145.926 151.6 146.428C151.45 146.725 151.294 147.018 151.146 147.314C152.34 147.376 153.533 147.458 154.723 147.57C156.754 147.76 158.766 148.099 160.795 148.309C162.858 148.524 164.876 148.486 166.922 148.145C167.291 148.084 167.507 147.861 167.597 147.585C167.6 147.584 167.603 147.582 167.605 147.578C167.71 147.455 167.809 147.354 167.911 147.265C168.032 147.186 168.164 147.119 168.318 147.06C168.606 146.95 168.907 146.883 169.211 146.838C169.546 146.788 169.886 146.784 170.221 146.742C170.504 146.706 170.78 146.652 171.056 146.586C171.552 146.468 172.023 146.314 172.492 146.109C172.901 145.93 173.27 145.674 173.619 145.394C174.339 144.867 174.964 144.194 175.51 143.495C175.827 143.086 176.126 142.662 176.398 142.22C176.871 141.455 177.274 140.661 177.682 139.86C177.83 139.622 177.965 139.379 178.088 139.131C177.292 138.896 176.488 138.705 175.643 138.691C175.079 138.682 175.079 137.805 175.643 137.814C176.612 137.83 177.528 138.056 178.438 138.326C178.482 138.208 178.525 138.089 178.564 137.969C178.672 137.718 178.762 137.461 178.837 137.2C178.88 137.081 178.924 136.963 178.968 136.845C179.067 136.435 179.165 136.024 179.265 135.613C179.463 134.955 179.62 134.288 179.735 133.612C179.832 133.167 179.906 132.718 179.956 132.265C180.11 131.166 180.235 130.069 180.243 128.957C180.23 128.272 180.187 127.588 180.112 126.908C180.08 126.445 180.027 125.985 179.954 125.528C179.86 124.849 179.767 124.176 179.61 123.505C179.493 123.051 179.376 122.598 179.259 122.144C178.966 121.198 178.621 120.271 178.223 119.365C178.201 119.308 178.091 119.183 178.024 119.182C177.973 119.18 177.903 119.226 177.926 119.288C177.929 119.293 177.931 119.3 177.933 119.305C177.91 119.254 177.888 119.201 177.865 119.15C177.845 119.102 177.769 119.005 177.709 119.006C177.706 119.006 177.703 119.006 177.698 119.007C177.714 118.996 177.728 118.982 177.742 118.966C178.136 118.5 178.391 117.887 178.672 117.348C178.906 116.903 179.126 116.434 179.19 115.931C179.245 115.489 179.17 115.054 178.893 114.697C178.577 114.29 177.983 114.1 178.313 113.512C178.688 112.844 179.239 112.264 178.69 111.505C178.411 111.118 177.968 110.905 177.639 110.569C177.261 110.18 177.082 109.659 177.092 109.127C177.115 109.141 177.145 109.134 177.156 109.101C177.474 108.141 177.244 107.087 176.918 106.152C176.741 105.645 176.365 105.505 175.928 105.48C177.821 101.782 179.593 98.0235 181.171 94.179C181.224 94.053 181.276 93.927 181.327 93.8009C181.404 93.6124 181.242 93.3615 181.054 93.3198C179.689 93.0206 178.267 92.9253 176.877 92.7938Z" fill="#343840"/>
<path fill-rule="evenodd" clip-rule="evenodd" d="M161.083 46.9829C160.823 43.6136 161.226 40.082 159.928 36.8795C157.663 31.5659 151.314 29.7942 146.391 27.7712C144.419 27.1883 137.784 27.1069 135.475 26.3354C130.249 24.5894 129 22.509 124.848 25.8335C124.147 26.4014 123.708 27.0187 123.388 27.862L123.401 27.8656C123.31 28.2172 123.408 28.568 123.614 28.8359C121.813 30.6769 121.06 33.4369 121.984 35.8875C124.998 42.2646 124.857 45.7127 123.885 52.5684C122.617 58.9686 125.515 61.3066 130.316 64.789C130.12 65.1681 130.08 65.6719 130.335 66.0064C135.886 73.8093 146.352 77.5348 155.319 73.5744C158.959 71.9537 160.585 68.0759 161.512 64.5769C162.592 60.6591 162.924 56.5307 162.045 52.5398C161.69 50.694 161.228 48.8616 161.083 46.9829Z" fill="white"/>
<path fill-rule="evenodd" clip-rule="evenodd" d="M129.064 9.65331C129.738 9.5521 130.247 9.97028 130.489 10.5597L130.502 10.5914C130.58 10.792 130.666 10.9871 130.759 11.1788C132.445 10.3514 134.851 10.564 135.918 12.2397C136.68 13.4365 136.215 14.8568 135.928 16.1259L135.74 16.9621C136.104 17.1939 136.379 17.6092 136.366 18.0391L136.364 18.0722L136.288 19.2383C136.531 18.9917 136.753 18.7232 136.951 18.4372C137.088 18.1862 137.236 17.9396 137.395 17.7007C138.33 16.2946 140.428 17.5166 139.656 19.0224C139.508 19.3128 139.342 19.5879 139.163 19.8531C138.962 20.2444 138.796 20.6466 138.669 21.0598C139.034 21.2187 139.315 21.5716 139.344 22.1042C139.413 23.3481 138.76 24.3859 137.722 25.038C137.416 25.2298 137.1 25.267 136.814 25.1958C136.764 25.2637 136.714 25.3317 136.665 25.4007C137.08 25.7372 137.453 26.1208 137.774 26.546C138.741 26.4013 139.712 26.3334 140.684 26.3312C141.872 25.7492 143.294 25.7613 144.57 25.9794C145.392 26.1197 146.181 26.3925 146.989 26.5887C147.841 26.7948 148.707 26.8024 149.569 26.9427C150.656 27.1192 151.609 27.6211 152.208 28.4222C152.867 28.4419 153.559 28.7115 154.133 29.0776C155.47 29.9302 156.799 30.7949 158.132 31.653C158.644 31.9825 158.835 32.5084 158.741 33.095L158.735 33.1325L158.69 33.3758L158.795 33.5256C159.203 34.102 159.647 34.7057 159.911 35.3419C160.4 36.0466 160.841 36.7853 161.233 37.5469C161.76 38.5705 162.195 39.6555 162.489 40.769C162.563 41.0506 162.636 41.3345 162.684 41.6216C162.753 42.0271 162.647 42.3416 162.589 42.7307C162.517 43.2238 162.49 43.7236 162.414 44.2178C162.362 44.5455 162.084 44.7066 161.792 44.7154C161.902 45.5494 161.981 46.3889 162.056 47.2218C162.163 48.412 162.235 49.6054 162.297 50.7989C162.62 51.2669 163.278 51.6373 163.754 51.7655C164.412 51.942 165.102 51.7502 165.724 51.5255C166.116 51.3841 166.437 51.8762 166.246 52.205C165.647 53.2374 164.365 53.233 163.394 52.776C162.983 52.5831 162.623 52.3036 162.356 51.9398C162.372 52.2861 162.39 52.6324 162.407 52.9798L162.423 53.2945C162.621 56.9693 163.047 60.7706 162.357 64.4093C161.161 70.712 155.947 75.511 149.578 75.8837C146.236 76.0792 143.452 75.0917 142.068 74.5408C140.684 73.9899 141.222 72.8666 142.183 73.1877C143.838 73.7409 146.879 74.5649 149.6 74.2091C156.013 73.3704 161.452 70.1638 160.893 56.3531C160.814 54.3946 160.57 52.4351 160.517 50.4767C160.467 48.5621 160.485 46.6464 160.401 44.7329L160.373 44.0801C160.34 43.3172 160.305 42.5508 160.248 41.7871C160.179 41.4912 160.122 41.1909 160.037 40.9005C159.808 40.1103 159.509 39.3421 159.138 38.6089C159.056 38.6713 158.964 38.7163 158.864 38.7338C158.107 38.8697 157.397 38.8314 156.688 38.5157C156.357 38.37 156.066 38.176 155.794 37.936C155.665 37.8231 155.578 37.7135 155.51 37.5995C155.168 37.605 154.825 37.502 154.61 37.2554C154.365 36.9744 154.324 36.6841 154.42 36.4153L154.43 36.3885L154.406 36.3798C154.117 37.1283 153.541 37.7869 152.908 38.2319C151.909 38.9377 150.659 39.1415 149.461 39.1601C148.137 39.1799 146.741 38.976 145.436 38.7678C145.09 38.713 144.748 38.6505 144.411 38.5661C144.398 38.5793 144.385 38.5946 144.371 38.6078C143.25 39.6807 141.673 39.9569 140.251 39.3442C139.43 38.9903 138.741 38.4204 138.131 37.7672C138.123 38.1091 138.105 38.4511 138.075 38.7897L138.063 38.9242C138.003 39.5549 137.886 40.2239 137.409 40.6791C136.639 41.4167 135.522 41.1208 134.633 40.6407C134.634 40.6637 134.634 40.6879 134.634 40.712C134.874 41.5273 135.115 42.3438 135.356 43.1603L135.408 43.3342C135.583 43.9139 135.776 44.4944 135.828 45.1012C135.929 46.2607 135.158 47.4059 133.87 47.0169C133.194 46.8135 132.652 46.2451 132.133 45.7898L131.806 45.5067C132.652 48.2761 133.24 51.1441 133.294 54.0341C133.298 54.1908 133.163 54.3092 133.014 54.3147C132.666 54.3289 132.291 54.2599 131.94 54.1207C131.921 54.1196 131.901 54.1185 131.88 54.1152C131.282 54.0286 130.726 53.8127 130.237 53.4938C130.35 53.8522 130.4 54.2368 130.37 54.639C130.363 54.7366 130.21 54.7706 130.188 54.6632C129.906 53.2724 128.279 52.2214 126.877 52.4877C125.371 52.7738 124.263 54.0692 123.991 55.5432C123.699 57.1268 124.257 58.9581 125.29 60.1801C125.766 60.7434 126.391 61.2135 127.134 61.3319C127.474 61.3856 127.826 61.367 128.156 61.2705C128.296 61.2289 128.428 61.1708 128.562 61.116C128.757 61.0371 128.984 61.025 129.168 60.9417C129.586 60.7543 130.006 61.139 129.794 61.5675C129.61 61.9412 129.445 62.1933 129.139 62.3862C129.387 62.6887 129.611 63.1095 129.694 63.2224C130.119 63.7966 130.551 64.3391 131.035 64.8641C131.528 65.3967 132.066 65.8833 132.635 66.3337L132.874 66.5226C133.422 66.9571 133.898 67.3598 134.285 67.9831C134.589 68.4752 134.195 69.1426 133.624 69.1349C131.838 69.1097 130.54 67.5403 129.615 66.1693C129.484 65.9732 129.36 65.766 129.245 65.5534C129.204 65.6203 129.158 65.6827 129.106 65.7397L129.208 66.0137C129.51 66.8203 128.208 67.3475 127.83 66.5945C127.555 66.0488 127.236 65.5293 126.881 65.0383C126.672 65.0087 126.467 64.8816 126.353 64.7172C126.065 64.2997 125.742 63.8777 125.469 63.4328C125.318 63.2892 125.162 63.1511 125.003 63.0163C124.957 63.0569 124.91 63.0974 124.865 63.1402C124.666 63.595 124.419 64.0103 124.114 64.4016L124.048 64.4851C123.462 65.2233 122.7 65.9789 121.756 66.1595C121.468 66.2143 121.191 65.8559 121.446 65.6268C122.106 65.0328 122.888 64.6284 123.497 63.9654C123.797 63.6387 124.072 63.279 124.309 62.902L124.363 62.8147C124.403 62.75 124.443 62.6854 124.485 62.6196C124.21 62.4322 123.935 62.2437 123.66 62.0552C122.903 62.7022 121.917 62.9981 121.08 63.534L120.997 63.5884C120.24 64.0947 119.442 62.9747 120.049 62.3599C120.718 61.6847 121.277 60.8795 121.869 60.129C121.591 59.6154 121.459 59.0082 121.409 58.3945C121.39 58.2208 121.374 58.047 121.359 57.8731C120.934 57.8797 120.507 57.734 120.145 57.483L120.008 57.3854C119.569 57.5257 119.108 57.5937 118.666 57.5816C117.628 57.5509 117.203 56.364 117.852 55.6133C118.515 54.8462 119.675 54.6785 120.595 55.0511C120.624 55.0358 120.655 55.0193 120.684 55.0029C120.641 54.8012 120.65 54.6183 120.7 54.4577L120.686 54.3597C120.484 54.0494 120.351 53.6952 120.3 53.321C120.26 53.0245 120.269 52.7307 120.337 52.438C120.36 52.3406 120.407 52.2396 120.444 52.138C120.369 51.9493 120.325 51.7542 120.311 51.5581C120.29 51.5332 120.27 51.5076 120.25 51.48C119.794 50.8395 119.886 50.0676 120.32 49.5492C120.322 49.5162 120.325 49.4832 120.33 49.4505C120.304 49.3933 120.281 49.3355 120.26 49.2771C119.835 48.8491 119.524 48.3342 119.582 47.696C119.616 47.3205 119.77 46.9826 120.004 46.7299C119.963 46.6074 119.959 46.4655 120.009 46.347C119.636 45.3556 119.683 44.1616 119.951 43.0529C119.892 42.8841 119.862 42.7011 119.868 42.5071C119.899 41.6841 120.611 40.9279 121.455 40.9377C121.556 40.9386 121.651 40.9519 121.743 40.9713L121.744 40.9517C121.776 40.7046 121.844 40.4763 121.943 40.2715C121.894 40.2539 121.849 40.2286 121.81 40.1949C121.269 40.4834 120.697 40.7039 120.097 40.8541C119.657 40.9646 119.205 40.4632 119.479 40.0492C119.606 39.857 119.746 39.6845 119.898 39.5269C119.683 39.5281 119.464 39.5427 119.244 39.5711C118.847 39.6226 118.404 39.3519 118.147 38.9859C117.827 39.2971 117.506 39.6073 117.185 39.9174C116.372 40.7054 115.144 40.1256 115.016 39.0867C114.774 39.022 114.548 38.9125 114.35 38.7557C113.068 39.3125 111.689 39.6182 110.279 39.6763C109.266 39.718 108.675 38.5387 109.148 37.7058C109.466 37.1469 109.86 36.645 110.315 36.2088C109.609 36.4247 108.881 36.5803 108.137 36.68C107.735 36.7337 107.166 36.4006 107.005 36.0313C106.389 34.6109 106.442 33.1303 107.151 31.7484C107.178 31.6936 107.209 31.641 107.238 31.5884C107.312 31.4053 107.392 31.2245 107.478 31.047C106.606 30.1373 106.531 28.785 107.001 27.6529C106.812 27.3471 106.74 26.9789 106.868 26.6457C107.233 25.6868 107.759 24.8013 108.423 24.0407C108.359 23.9179 108.303 23.7875 108.256 23.6472C107.883 22.513 108.315 21.1441 109.189 20.354C109.737 19.8564 110.368 19.5583 111.042 19.3676C111.326 18.8657 111.691 18.4131 112.116 18.0317C112.132 17.9955 112.149 17.9594 112.167 17.9232C112.829 16.676 114.034 16.0075 115.326 15.853C115.376 15.3653 115.705 14.8995 116.183 14.7483C116.314 14.3264 116.51 13.9231 116.78 13.557C117.204 12.9806 117.908 12.7088 118.572 13.0869C118.936 13.294 119.284 13.5318 119.611 13.7948C119.757 13.726 119.924 13.6815 120.111 13.6673L120.159 13.6644L121.239 13.6096C121.691 13.4091 122.143 13.1986 122.595 12.9937C122.867 12.769 123.17 12.5816 123.501 12.4425C123.876 12.2857 124.259 12.197 124.644 12.1674C124.956 12.0655 125.27 11.9756 125.59 11.9055C126.342 11.7411 127.129 11.649 127.909 11.6567C127.925 11.4547 127.932 11.2503 127.931 11.0435L127.929 10.9399C127.912 10.2769 128.441 9.74756 129.064 9.65331ZM128.307 62.7018C128.2 62.7248 128.091 62.7434 127.983 62.7566C128.016 62.8377 128.049 62.9188 128.08 62.9999C128.168 63.0492 128.257 63.0963 128.345 63.1402C128.319 62.9911 128.304 62.841 128.307 62.7018ZM122.678 61.0286L122.606 61.1628C122.594 61.1848 122.582 61.2064 122.571 61.2278C122.725 61.2157 122.881 61.219 123.034 61.2365L123.034 61.2202C123.014 61.2135 122.994 61.2074 122.975 61.1982C122.87 61.1473 122.771 61.0903 122.678 61.0286ZM125.721 54.9076C126.69 54.964 127.511 55.1127 128.393 55.5368L128.468 55.5739C129.247 55.9608 130.536 56.6753 130.427 57.7C130.396 57.9915 130.185 58.2984 129.852 58.2754C128.939 58.2129 128.418 57.2923 127.8 56.718C127.177 56.1394 126.411 55.5443 125.656 55.1465C125.549 55.0905 125.591 54.9132 125.707 54.9075L125.721 54.9076ZM121.325 41.4068C121.093 41.4145 121.171 41.6402 121.29 41.4517C121.3 41.4364 121.312 41.421 121.325 41.4068ZM133.862 26.3353C131.663 26.3932 129.449 27.6924 127.801 29.0057C126.367 30.1482 125.13 31.5071 124.033 32.9719C123.751 33.7013 123.509 34.446 123.305 35.1961C123.17 35.6915 123.086 36.1924 122.973 36.6921L122.938 36.8453C122.849 37.011 122.783 37.1893 122.735 37.3735C122.935 37.5739 123.194 37.7173 123.479 37.7854C123.571 37.8073 123.648 37.8548 123.708 37.9177C123.938 37.5343 124.138 37.1297 124.255 36.7008L124.259 36.6809C124.701 35.9577 125.18 35.257 125.694 34.5802C127.112 32.7117 128.673 31.0086 130.55 29.5916C131.973 28.5176 133.564 27.6759 135.255 27.129C134.841 26.7949 134.371 26.5305 133.862 26.3353Z" fill="#343840"/>
<path fill-rule="evenodd" clip-rule="evenodd" d="M153.693 66.9729C152.886 67.2067 152.019 67.2276 151.197 66.9861C150.451 66.7671 149.684 66.285 149.135 65.6471C148.647 65.0805 148.331 64.3919 148.344 63.6568C148.345 63.5729 148.375 63.5028 148.421 63.4484C148.471 63.3899 148.541 63.3496 148.615 63.3322C148.691 63.3142 148.772 63.3206 148.841 63.3519C148.903 63.3802 148.957 63.4283 148.99 63.4986C149.074 63.6095 149.159 63.7188 149.243 63.825C149.922 64.6632 150.579 65.2896 151.599 65.5143C152.153 65.6362 152.706 65.5821 153.213 65.3961C153.756 65.197 154.247 64.8469 154.632 64.3988C154.806 64.1963 155.011 64.1137 155.212 64.1123C155.439 64.1107 155.664 64.2165 155.833 64.3854C156 64.5515 156.111 64.7772 156.121 65.0133C156.13 65.2206 156.063 65.437 155.883 65.6301C155.291 66.2663 154.523 66.7323 153.693 66.9729ZM153.668 56.4748C154.495 56.9778 155.756 58.1508 154.866 59.3979C153.818 60.4975 152.31 59.2367 151.567 58.6665C150.877 58.2246 150.103 59.3612 150.742 59.8772C156.113 63.8549 158.293 56.6063 154.086 55.8833C153.623 55.8037 153.451 56.3192 153.668 56.4748ZM145.929 54.2613C145.663 54.0912 145.35 54.0328 145.003 54.1906C144.733 54.3138 144.257 54.7246 143.927 55.2647C143.701 55.6341 143.54 56.0676 143.574 56.519C143.581 56.6239 143.543 56.7012 143.481 56.7583C143.433 56.8035 143.364 56.8367 143.282 56.847C143.212 56.8558 143.134 56.8479 143.071 56.8282C142.951 56.7906 142.887 56.7125 142.863 56.6488C142.632 56.0337 142.731 55.3474 142.991 54.7282C143.341 53.8925 143.977 53.1925 144.394 52.9669C145.107 52.5805 145.948 52.5628 146.662 52.9563C147.269 53.2913 147.649 53.8321 148.027 54.3833C148.108 54.5005 148.187 54.6168 148.27 54.7311C148.435 54.9601 148.451 55.1872 148.388 55.382C148.317 55.5977 148.136 55.7798 147.91 55.8751C147.701 55.9631 147.459 55.9755 147.244 55.885C147.063 55.8086 146.897 55.6596 146.792 55.4067C146.614 54.9809 146.319 54.5111 145.929 54.2613ZM159.433 55.2087C159.251 55.3036 159.109 55.3322 158.907 55.2717C158.795 55.2381 158.685 55.1738 158.598 55.0873C158.513 55.0016 158.451 54.895 158.427 54.7768C158.368 54.485 158.208 54.2119 157.981 54.0339C157.786 53.8817 157.541 53.801 157.269 53.8465C156.975 53.8956 156.695 54.084 156.503 54.3061C156.438 54.3804 156.388 54.4648 156.337 54.5487C156.242 54.7055 156.15 54.8512 156.019 54.9664C155.969 55.0102 155.894 55.0405 155.822 55.0405C155.793 55.0405 155.763 55.0357 155.734 55.0268C155.442 54.7334 155.386 54.5108 155.395 54.29C155.405 54.0584 155.496 53.824 155.644 53.6052C155.99 53.0921 156.647 52.6714 157.09 52.5761C157.697 52.4457 158.3 52.6023 158.783 52.9414C159.28 53.2904 159.649 53.8321 159.764 54.4427C159.791 54.5897 159.779 54.7485 159.723 54.8861C159.669 55.0206 159.573 55.1357 159.433 55.2087ZM147.268 48.7907C146.903 49.1457 146.472 49.2007 146.036 49.2497C145.794 49.2771 145.6 49.2992 145.41 49.3422C144.886 49.4603 144.369 49.6383 143.897 49.8946C143.404 50.1625 142.866 50.4856 142.48 50.8996C142.388 50.9981 142.301 51.1015 142.214 51.205C142.135 51.2995 142.059 51.3904 141.978 51.4781C141.886 51.5788 141.798 51.6844 141.711 51.7896C141.657 51.8785 141.647 51.9003 141.636 51.9231C141.62 51.9572 141.601 51.9955 141.579 52.0365C141.549 52.0927 141.514 52.1542 141.478 52.21C141.417 52.3119 141.385 52.34 141.356 52.3526C141.31 52.3734 141.266 52.3836 141.223 52.3781C141.182 52.3729 141.144 52.3535 141.107 52.3219C140.92 52.1638 140.865 51.9044 140.87 51.629C140.879 51.2112 141.033 50.7485 141.175 50.4641C141.505 49.8033 141.963 49.1164 142.514 48.6232C143.142 48.0602 143.83 47.634 144.62 47.3403C145.11 47.1577 145.679 46.9902 146.213 47.0113C146.598 47.0266 146.965 47.141 147.269 47.4268C147.455 47.6022 147.545 47.8517 147.545 48.1011C147.545 48.3554 147.452 48.6112 147.268 48.7907ZM160.174 52.0418C160.151 52.0798 160.119 52.1059 160.083 52.1217C160.046 52.1381 160.004 52.1429 159.964 52.1361C159.924 52.1294 159.886 52.1113 159.856 52.0837C159.827 52.0572 159.806 52.022 159.796 51.979C159.554 50.9164 159.084 50.1259 158.082 49.6161C157.589 49.3653 157.022 49.2059 156.485 49.0789C156.329 49.042 156.164 49.018 155.998 48.9938C155.478 48.9178 154.954 48.8308 154.615 48.4102C154.411 48.1569 154.325 47.8329 154.374 47.5366C154.419 47.2576 154.582 47.0017 154.879 46.8484C155.616 46.4669 156.533 46.8413 157.278 47.1602C157.333 47.1838 157.387 47.207 157.44 47.2294C158.169 47.537 158.833 47.943 159.379 48.5236C159.812 48.9842 160.214 49.6651 160.375 50.3656C160.51 50.9484 160.478 51.5433 160.174 52.0418Z" fill="#343840"/>
</g>
<defs>
<clipPath id="clip0_4221_42886">
<rect width="195.699" height="125" fill="white" transform="translate(0.650391)"/>
</clipPath>
</defs>
</svg>
