<svg width="190" height="178" viewBox="0 0 190 178" fill="none" xmlns="http://www.w3.org/2000/svg">
<path fill-rule="evenodd" clip-rule="evenodd" d="M13.4273 85.1985C13.4273 85.1985 5.35214 78.3004 16.6811 54.4833C28.0101 30.6661 50.9534 35.8864 65.6186 26.5182C87.2871 12.6764 78.4056 1.84404 105.425 0.0979784C139.443 -2.10045 141.37 33.4263 158.39 33.4263C159.509 33.4263 186.013 22.7771 189.892 51.9299C191.846 66.6115 158.39 89 158.39 89C158.39 89 144.466 101.621 143.701 107.853C140.494 133.99 147.182 163.926 72.2386 177.707C62.5462 179.489 46.452 173.042 37.5729 161.133C30.6167 151.803 2.71285 158.422 0.108095 127.748C-1.20475 112.287 13.4273 85.1985 13.4273 85.1985Z" fill="#F7B32B"/>
<path d="M63.4166 64.4757C63.6693 64.3265 63.9951 64.4105 64.1442 64.6633L64.7457 65.678C67.1343 69.6854 68.0897 70.9867 69.1051 71.575C69.9396 72.0585 70.8025 71.9084 72.3821 70.9821L72.5931 70.8554C73.5865 70.2362 78.1324 67.1136 79.8901 65.9923C80.1375 65.8345 80.466 65.9071 80.6238 66.1545C80.7816 66.4019 80.709 66.7304 80.4616 66.8882L80.1911 67.0623C78.2325 68.332 73.8326 71.3537 73.0537 71.8194C71.1413 72.9628 69.9014 73.2198 68.659 72.5432L68.5723 72.4944C67.2375 71.7211 66.1992 70.2374 63.229 65.2033C63.0798 64.9505 63.1638 64.6248 63.4166 64.4757Z" fill="white"/>
<path d="M72.0216 70.6176C72.3124 70.5786 72.5798 70.7828 72.6187 71.0737C72.7997 72.4253 73.2332 73.7806 73.9213 75.1411C74.0538 75.403 73.9488 75.7227 73.687 75.8551C73.4251 75.9875 73.1055 75.8826 72.973 75.6208C72.2325 74.1568 71.7626 72.6876 71.5654 71.2147C71.5265 70.9238 71.7307 70.6565 72.0216 70.6176Z" fill="white"/>
<path fill-rule="evenodd" clip-rule="evenodd" d="M133.924 103.071C133.838 103.288 133.651 103.588 133.432 103.872L133.62 104.067L133.838 104.3L133.887 104.346C133.908 104.365 133.925 104.376 133.937 104.379C134.007 104.39 134.056 104.455 134.047 104.526C134.037 104.595 133.972 104.645 133.902 104.635C133.838 104.634 133.606 104.543 133.329 104.318C133.279 104.278 133.229 104.231 133.179 104.18C133.019 104.357 132.858 104.51 132.719 104.605C132.514 104.746 132.337 104.758 132.253 104.7C132.169 104.645 132.089 104.458 132.225 104.079C132.246 104.011 132.319 103.975 132.387 103.996C132.454 104.018 132.491 104.09 132.47 104.158C132.449 104.228 132.447 104.292 132.446 104.344L132.525 104.29C132.553 104.27 132.581 104.248 132.607 104.222C132.702 104.128 132.808 104.015 132.915 103.892C132.746 103.696 132.574 103.465 132.435 103.2C132.367 103.07 132.313 102.933 132.262 102.788C132.226 102.708 132.263 102.613 132.344 102.577C132.425 102.541 132.52 102.578 132.555 102.659C132.71 102.983 132.908 103.263 133.103 103.502L133.168 103.58C133.346 103.348 133.499 103.112 133.568 102.933C133.607 102.835 133.717 102.786 133.815 102.824C133.914 102.863 133.963 102.973 133.924 103.071Z" fill="white"/>
<path fill-rule="evenodd" clip-rule="evenodd" d="M54.8617 36.0392L54.5379 35.9806C52.7293 35.6444 51.3426 35.2316 48.7522 34.3335C48.4551 34.2305 48.2978 33.9062 48.4008 33.6091C48.5038 33.3121 48.8281 33.1548 49.1252 33.2577L49.7707 33.4799C52.0431 34.2554 53.3182 34.6109 55.0595 34.918C60.9188 35.9511 65.3059 32.943 65.6648 27.206C65.6844 26.8922 65.9548 26.6537 66.2686 26.6733C66.5824 26.693 66.8208 26.9633 66.8012 27.2771C66.3975 33.7292 61.3579 37.1847 54.8617 36.0392Z" fill="#343840"/>
<path fill-rule="evenodd" clip-rule="evenodd" d="M69.5025 42.1832L69.8294 42.9097L70.5746 43.1236C70.6149 43.1351 70.6382 43.1772 70.6267 43.2175C70.6231 43.2299 70.6164 43.2412 70.6073 43.2503L70.041 43.814L70.0728 44.6252C70.0744 44.6671 70.0418 44.7024 69.9999 44.704C69.9857 44.7046 69.9717 44.7011 69.9593 44.6941L69.3183 44.329C69.2983 44.3176 69.2742 44.316 69.2527 44.3245L68.5671 44.5968C68.5282 44.6122 68.4841 44.5932 68.4686 44.5542C68.4633 44.5411 68.4619 44.5267 68.4644 44.5127L68.6087 43.7138L68.1265 43.0769C68.1012 43.0434 68.1078 42.9958 68.1412 42.9705C68.1515 42.9627 68.1636 42.9577 68.1764 42.9559L68.9442 42.8478L69.369 42.1739C69.3914 42.1384 69.4383 42.1278 69.4737 42.1501C69.4863 42.1581 69.4963 42.1696 69.5025 42.1832Z" fill="#343840"/>
<path d="M144.39 23.9238C144.683 23.9029 144.937 24.1232 144.958 24.4159C144.979 24.7087 144.759 24.9629 144.466 24.9837C142.369 25.1333 140.722 25.9458 139.991 27.9557C139.947 28.0767 139.91 28.1935 139.881 28.3045L139.861 28.3807L139.893 28.3138C140.814 26.4331 142.591 25.1264 144.649 24.7948L144.784 24.7745C145.075 24.734 145.343 24.9367 145.384 25.2273C145.424 25.5179 145.222 25.7864 144.931 25.827C143.018 26.094 141.382 27.365 140.669 29.188L140.623 29.3103C140.283 30.2421 139.469 30.6889 138.945 29.8915C138.626 29.4051 138.647 28.5413 138.992 27.5923C139.869 25.1849 141.879 24.1029 144.39 23.9238Z" fill="white"/>
<path d="M141.97 19.9652C142.263 19.9444 142.517 20.1647 142.538 20.4574C142.559 20.7501 142.338 21.0043 142.046 21.0252C138.71 21.2632 135.786 23.4292 134.622 26.6264C134.277 27.5741 134.213 28.3844 134.336 28.7948L134.351 28.8406L134.375 28.8067C134.434 28.7167 134.501 28.5875 134.567 28.4199L134.595 28.3457C135.824 24.9686 138.804 22.6036 142.299 22.1156C142.59 22.0751 142.859 22.2778 142.899 22.5684C142.94 22.8591 142.737 23.1275 142.446 23.1681C139.388 23.5949 136.775 25.6357 135.649 28.5597L135.593 28.7091C135.137 29.9615 134.152 30.5025 133.521 29.5435C133.09 28.8864 133.12 27.6459 133.623 26.2629C134.932 22.6683 138.22 20.2328 141.97 19.9652Z" fill="white"/>
<path d="M138.708 14.6874C139.001 14.6665 139.255 14.8869 139.276 15.1796C139.297 15.4723 139.077 15.7265 138.784 15.7474C134.027 16.0867 129.856 19.1761 128.196 23.7362C127.631 25.2881 127.584 26.6034 127.892 27.1502L127.92 27.1964C127.966 27.2659 127.951 27.268 127.963 27.2584L127.97 27.2537C128.126 27.1679 128.332 26.8757 128.521 26.3909L128.558 26.2914C130.253 21.6339 134.364 18.3722 139.184 17.6993C139.475 17.6587 139.744 17.8614 139.784 18.1521C139.825 18.4427 139.622 18.7112 139.331 18.7518C134.954 19.3628 131.214 22.2931 129.619 26.4886L129.557 26.6549C128.967 28.2752 127.784 28.9243 127.032 27.78C126.472 26.9268 126.512 25.2539 127.197 23.3727C129.002 18.4152 133.537 15.0563 138.708 14.6874Z" fill="white"/>
<path d="M132.886 9.72698C133.174 9.67058 133.453 9.85831 133.509 10.1463C133.566 10.4343 133.378 10.7134 133.09 10.7698C128.783 11.6132 125.32 14.9025 124.316 19.2533C123.976 20.7258 124.078 21.9231 124.412 22.3799L124.456 22.4372L124.46 22.4451L124.466 22.4403C124.586 22.3325 124.725 22.0571 124.833 21.6302L124.856 21.5364C125.889 17.0617 129.301 13.598 133.658 12.4348C133.942 12.3591 134.233 12.5276 134.309 12.8111C134.384 13.0946 134.216 13.3858 133.932 13.4615C130.007 14.5095 126.922 17.6003 125.932 21.6057L125.892 21.7754C125.527 23.3536 124.481 24.107 123.634 23.108C123.014 22.3773 122.862 20.8269 123.28 19.0143C124.38 14.2513 128.171 10.6502 132.886 9.72698Z" fill="white"/>
<path d="M73.9845 75.2583L74.2913 75.1467C77.1903 74.1064 79.6364 73.6473 80.2577 74.2795C80.8026 74.8339 81.2882 75.8379 81.7486 77.3105C81.8361 77.5906 81.68 77.8886 81.3999 77.9761C81.1198 78.0637 80.8218 77.9076 80.7343 77.6275C80.3362 76.354 79.93 75.4969 79.5458 75.0732L79.5299 75.0566L79.5163 75.0573C79.4435 75.0424 79.3345 75.035 79.1955 75.0376C78.8893 75.0435 78.4708 75.0975 77.9709 75.1966C76.9427 75.4003 75.643 75.7792 74.3523 76.2553C72.1943 77.0514 70.3964 77.9867 69.4033 78.8316C69.0387 79.1418 68.373 78.2777 69.0136 77.7827C70.1662 76.8921 71.9145 76.0219 73.9845 75.2583Z" fill="white"/>
<path d="M72.5257 65.2205C72.5257 66.9927 74.4 68.9117 74.7988 69.0209C75.0819 69.0984 70.2053 72.2757 70.2053 72.2757C68.4433 72.5075 67.4086 71.0182 67.4086 68.7995C67.4086 68.506 72.5257 64.927 72.5257 65.2205Z" fill="white"/>
<path fill-rule="evenodd" clip-rule="evenodd" d="M66.7755 66.1519C67.3928 66.0319 67.8121 65.5177 67.7121 65.0033C67.6122 64.4889 67.0307 64.1691 66.4134 64.2891C65.7961 64.4091 65.3768 64.9234 65.4768 65.4378C65.5768 65.9522 66.1582 66.2719 66.7755 66.1519Z" fill="#00A896"/>
<path d="M129.672 6.78043C129.961 6.73007 130.236 6.92361 130.286 7.21271C130.337 7.50181 130.143 7.77699 129.854 7.82735C128.479 8.06685 127.093 8.89908 125.663 10.2228C123.806 11.9418 122.58 14.3169 121.904 17.4837C121.36 20.0351 121.862 23.2232 123.286 26.0258C124.906 29.2144 127.771 30.0024 131.112 30.6127C134.542 31.2391 135.49 30.8523 138.731 29.7001L139.029 29.5917C139.472 29.4239 141.543 28.6137 142.041 28.4631C143.089 28.1462 143.804 28.1727 144.322 28.725C144.523 28.939 144.512 29.2753 144.298 29.4761C144.098 29.6643 143.789 29.6667 143.586 29.49L143.547 29.4522C143.394 29.2893 143.078 29.2704 142.442 29.4528L142.349 29.4803C141.87 29.6251 139.624 30.5065 139.333 30.6127C135.833 31.8905 134.645 32.3382 130.921 31.6581C127.231 30.984 124.1 29.975 122.339 26.5071C120.808 23.4932 120.268 20.0582 120.865 17.2619C121.587 13.882 122.923 11.3117 124.941 9.44311C126.521 7.98043 128.094 7.05518 129.672 6.78043Z" fill="white"/>
<path d="M154.668 49.0593C151.639 48.9044 149.254 51.2438 149.229 54.3842C149.208 57.0301 150.698 59.2089 152.745 59.631C153.573 59.8017 155.163 59.5964 156.342 58.9353C158.132 57.9751 159.501 56.0013 159.673 54.3196C159.954 51.5796 157.736 49.2161 154.668 49.0593Z" fill="white"/>
<path d="M99.7785 48.5061C100.746 50.4602 102.248 54.9738 101.599 54.9521C99.7935 54.8918 97.3786 52.1177 95.6893 48.3668L95.556 48.0651C94.0811 44.6595 93.1979 42.52 94.2235 42.1102C95.2844 41.6863 97.7815 44.4729 99.7785 48.5061Z" fill="white"/>
<path fill-rule="evenodd" clip-rule="evenodd" d="M94.2236 42.0677C95.2845 41.6438 97.8184 44.3031 99.8153 48.3363C100.783 50.2904 101.439 52.165 101.611 53.5093C101.611 53.5093 98.343 46.6244 96.3499 44.1026C95.5843 43.1339 94.2236 42.0677 94.2236 42.0677Z" fill="#E7EAEE"/>
<path d="M93.667 59.4068C93.7448 59.1239 94.0373 58.9576 94.3202 59.0354C94.6032 59.1132 94.7694 59.4057 94.6916 59.6886C94.5915 60.0526 93.1841 61.0073 90.1131 62.9003L88.1747 64.0865C84.3481 66.416 81.7947 67.9066 81.4754 67.9066C79.3626 67.9066 77.4588 65.9135 76.0688 62.7687C74.8552 60.0227 74.225 56.7542 74.5096 54.6122C74.5984 53.9437 76.8258 52.2131 80.265 49.8945L80.7576 49.5643C83.8002 47.5374 86.4009 46.0342 87.3418 45.8443C87.6295 45.7863 87.9097 45.9724 87.9678 46.2601C88.0041 46.44 79.6174 53.5092 78.7981 58.2011C78.2434 61.378 80.3405 66.7927 81.3814 66.8417L81.4754 66.8439C81.3909 66.8439 81.418 66.8242 81.4279 66.8186L81.5237 66.7692C81.5942 66.7322 81.6781 66.687 81.7745 66.634L82.2167 66.3867C82.3858 66.2909 82.5743 66.1829 82.7804 66.0638L83.3078 65.7575C84.3147 65.1698 85.5709 64.4214 86.8522 63.6461L88.0708 62.9052C89.5527 61.9998 90.8916 61.165 91.8979 60.5167L92.4163 60.1799C92.7373 59.9693 93.0086 59.787 93.2254 59.636L93.3042 59.5808C93.4238 59.4965 93.5232 59.424 93.6007 59.3644C93.6007 59.3644 93.6882 59.3298 93.667 59.4068Z" fill="white"/>
<path fill-rule="evenodd" clip-rule="evenodd" d="M94.7204 48.803C93.4365 45.9522 92.8692 43.3397 93.2992 41.7577C92.5222 42.0046 91.5509 42.4483 90.5869 43.0014C89.3053 43.7366 88.2883 44.5583 88.2646 44.7367C88.0169 46.6015 88.9676 50.2292 90.5475 53.4634C92.2374 56.9229 94.248 59.1449 95.8044 59.1449C95.9533 59.1449 96.3798 59.057 96.8072 58.9077C97.4152 58.6953 97.9848 58.3859 98.4514 57.9805C98.6834 57.779 98.9236 57.5511 99.1744 57.2969L99.4766 56.9845C99.6548 56.796 99.8388 56.593 100.126 56.2715L100.526 55.8249L100.543 55.8061C98.5409 55.0745 96.4469 52.4957 94.8805 49.1515L94.7204 48.803ZM87.2112 44.5968C87.3764 43.3528 92.0338 40.6638 94.1593 40.4901C94.2482 40.4344 94.3433 40.386 94.4448 40.3455C96.2854 39.61 99.0902 42.7606 101.34 47.1936L101.494 47.5013C102.51 49.5523 103.202 51.5312 103.391 53.0114C103.617 54.7803 103.105 55.9531 101.762 56.0132C101.726 56.1525 101.635 56.2691 101.514 56.3393L101.493 56.3499L101.441 56.4023C101.388 56.4563 101.326 56.5235 101.231 56.6299L100.57 57.3668C100.331 57.6309 100.161 57.81 99.9309 58.0432C99.6621 58.3157 99.4025 58.5619 99.1483 58.7827C98.1197 59.6763 96.5989 60.2076 95.8044 60.2076C95.383 60.2076 94.9569 60.1096 94.5299 59.9226C94.0739 60.3983 92.6702 61.324 90.1132 62.9002L88.1748 64.0864C84.3481 66.4159 81.7948 67.9065 81.4755 67.9065C80.7519 67.9065 80.0528 67.6728 79.3905 67.239C79.3844 67.2433 79.3782 67.2474 79.3718 67.2515L79.1013 67.4256C78.1604 68.0355 76.6561 69.0498 75.2605 69.9908L75.2603 69.9909L75.2599 69.9912L75.2586 69.992L75.2585 69.9921L75.2583 69.9923L75.258 69.9924L75.1709 70.0512C75.3517 71.3415 75.7626 72.6353 76.4054 73.9337C78.6875 73.2279 80.4952 72.9896 81.0169 73.5203C81.5617 74.0747 82.0474 75.0787 82.5077 76.5513C82.5953 76.8314 82.4392 77.1294 82.1591 77.2169C81.879 77.3045 81.581 77.1484 81.4934 76.8683C81.0953 75.5948 80.6891 74.7377 80.3049 74.3139L80.2891 74.2974L80.2754 74.2981C80.2027 74.2832 80.0936 74.2757 79.9547 74.2784C79.6485 74.2843 79.2299 74.3383 78.7301 74.4374C77.7018 74.6411 76.4021 75.02 75.1115 75.4961C72.1611 76.5844 69.884 77.933 69.416 78.955C69.2791 79.2541 69.2966 79.6919 69.4604 80.3621L69.4908 80.4829C69.5154 80.5778 69.541 80.672 69.5746 80.7911L69.7666 81.4701C69.7745 81.4999 69.7824 81.5302 69.7923 81.5685C69.866 81.8525 69.6955 82.1426 69.4115 82.2163C69.1275 82.29 68.8374 82.1195 68.7637 81.8355L68.6694 81.4919L68.5122 80.9372C68.4942 80.8717 68.478 80.8111 68.4621 80.7496C68.2132 79.7896 68.1731 79.1169 68.4498 78.5126C68.919 77.4881 70.3866 76.4268 72.4302 75.4617L71.9857 74.3136L71.8759 74.0233C71.7077 73.5705 71.5117 72.9567 71.3916 72.5088C69.7951 73.3693 68.6832 73.5131 67.5692 72.9064L67.4825 72.8577C67.2622 72.7301 67.05 72.5831 66.8358 72.404L60.6083 76.1864C60.6661 76.3111 60.7246 76.4368 60.7837 76.5636C61.0631 77.1629 60.5703 77.5871 59.8144 77.9173L59.7329 77.952C59.0832 78.2211 58.4969 78.2828 58.1478 77.8997C56.6997 76.3102 55.1667 72.5081 55.9914 71.6385C56.1497 71.4716 56.5678 71.2229 57.3584 70.8083L57.4214 70.7755C57.4375 70.7643 57.4545 70.7539 57.4721 70.7443L63.2935 67.5905C63.3068 67.5832 63.3204 67.5766 63.334 67.5707C62.9745 66.9762 62.5803 66.3142 62.1446 65.5758C62.0783 65.4686 62.0538 65.3433 62.0706 65.2229C62.0812 65.1464 62.1085 65.0718 62.1523 65.0051C62.1764 64.9684 62.2053 64.9343 62.2387 64.9039C63.4354 63.7689 65.0663 62.5854 67.1121 61.3111L67.3601 61.1574C68.2455 60.6115 70.0409 59.5875 71.5663 58.7175L71.5667 58.7173L71.5667 58.7172L71.5671 58.7171C72.7502 58.0423 73.7708 57.4602 74.0782 57.2658L74.1526 57.2164C74.2638 57.135 74.396 57.1032 74.523 57.1169C74.4219 56.1952 74.4131 55.3388 74.5097 54.6121C74.5985 53.9436 76.8258 52.213 80.2651 49.8944L80.7577 49.5642C83.6402 47.6439 86.1262 46.1937 87.1798 45.885C87.1516 45.4092 87.1608 44.9758 87.2112 44.5968ZM87.2962 46.9625C86.264 47.3398 83.6794 48.8742 80.8591 50.7755L80.4075 51.0819C79.1382 51.9479 77.9657 52.7922 77.0801 53.4804L76.834 53.6734C76.4388 53.9866 76.119 54.2564 75.8871 54.4729C75.7708 54.5814 75.6791 54.6743 75.6144 54.7482L75.5691 54.8015C75.5593 54.8118 75.5567 54.8078 75.5604 54.7744L75.5631 54.7521C75.562 54.7607 75.5611 54.7681 75.5604 54.7744L75.5463 54.8884C75.0354 59.3725 78.2778 66.6956 81.3815 66.8416L81.4545 66.8433C81.4606 66.8437 81.4675 66.8438 81.4755 66.8438L81.4545 66.8433C81.3959 66.8403 81.419 66.8236 81.428 66.8185L81.5238 66.7691C81.5943 66.7321 81.6781 66.6869 81.7746 66.6339L82.2168 66.3866C82.3858 66.2908 82.5744 66.1828 82.7805 66.0638L83.3079 65.7575C84.3147 65.1697 85.5709 64.4213 86.8522 63.646L88.0709 62.9051C89.5528 61.9997 90.8917 61.1649 91.898 60.5166L92.4163 60.1798C92.7374 59.9692 93.0086 59.787 93.2255 59.6359L93.3043 59.5807C93.4191 59.4998 93.5153 59.4297 93.5915 59.3715C92.2228 58.3672 90.8751 56.5123 89.6787 54.1046L89.5926 53.9299C88.4396 51.5695 87.6058 49.0134 87.2962 46.9625ZM74.6696 58.1471C74.2861 58.3884 73.1552 59.0342 71.8967 59.7527C70.4056 60.6042 68.7354 61.5579 67.9178 62.0619C65.9866 63.2525 64.4292 64.3562 63.273 65.3953L63.656 66.0413C65.3317 68.8527 66.302 70.3322 67.0825 71.168C66.8232 70.553 66.6889 69.7725 66.6889 68.7936C66.6889 68.7485 66.6945 68.7048 66.7051 68.6629C66.6535 68.4594 66.7261 68.2359 66.9057 68.1039L67.2676 67.835C67.4847 67.6709 67.8419 67.3979 68.248 67.0876C69.1368 66.4084 70.2596 65.5504 70.6602 65.2634C71.9203 64.3608 72.8491 63.8543 73.6948 63.6785C74.0988 63.5946 74.4126 63.8336 74.5036 64.2037L74.5185 64.271C74.5396 64.3811 74.5436 64.4895 74.5431 64.7261L74.5428 64.8011C74.5384 65.6852 74.6261 66.1955 75.0005 66.7848C75.2568 67.1882 75.6333 67.5562 76.1579 67.8858C76.2128 67.9203 76.2592 67.9632 76.2965 68.0117C77.1429 67.4434 77.9357 66.9148 78.5205 66.5357C77.5989 65.6436 76.7688 64.3521 76.0689 62.7686C75.417 61.2937 74.9335 59.668 74.6696 58.1471ZM102.337 53.1458C102.166 51.8015 101.509 49.927 100.542 47.9728C98.5449 43.9397 95.9 40.9084 94.8391 41.3323C93.8135 41.7421 94.0812 44.6595 95.5561 48.065L95.6894 48.3667C97.3787 52.1176 99.7936 54.8917 101.599 54.952C102.249 54.9737 102.503 54.443 102.337 53.1458ZM63.883 68.469C64.8048 69.9593 65.4783 70.944 66.065 71.6288L60.1613 75.2145C59.5566 73.8887 59.0156 72.6548 58.4906 71.4011L63.7997 68.5248C63.8297 68.5086 63.8575 68.4898 63.883 68.469ZM75.3864 74.2688C74.8135 73.084 74.4177 71.8959 74.2003 70.7052C73.4374 71.2186 72.7735 71.663 72.3468 71.9403C72.4199 72.3069 72.6916 73.177 72.9256 73.7957L73.3616 74.9182L73.4032 75.0277C73.8318 74.8468 74.2796 74.6703 74.7437 74.4991L75.0505 74.3875C75.1631 74.3471 75.2751 74.3075 75.3864 74.2688ZM75.3673 68.637C74.8231 68.2597 74.4058 67.8305 74.1035 67.3547C73.6142 66.5846 73.4857 65.927 73.4801 64.9334L73.4799 64.8445L73.4047 64.8726C72.8659 65.0818 72.223 65.46 71.4152 66.0305L71.2791 66.1273C70.8944 66.4029 69.7998 67.2393 68.9169 67.914C68.426 68.2891 68.0006 68.6142 67.799 68.7651L67.7516 68.8001C67.7527 70.5679 68.1939 71.379 69.0145 71.7725L69.0802 71.8027C69.2758 71.8893 69.4154 71.9328 69.8142 72.042L69.8235 72.0446L69.8377 72.049C70.2516 71.9099 70.7259 71.6775 71.2923 71.3453L71.5033 71.2186C71.9711 70.9271 73.2268 70.0803 74.608 69.1488L74.6081 69.1488L75.3673 68.637ZM57.5515 71.9094L57.633 72.1032C58.1973 73.4413 58.7837 74.7664 59.4493 76.2116L59.7081 76.7723C59.6233 76.8293 59.5117 76.8899 59.389 76.9434C59.2129 77.0204 59.0341 77.0744 58.8996 77.0925L58.8568 77.0968L58.7921 77.0192C58.2891 76.4 57.7053 75.3478 57.2834 74.3015C57.0587 73.7442 56.8987 73.2331 56.8265 72.8404C56.7971 72.6804 56.7835 72.546 56.7847 72.444L56.7878 72.3768C56.7889 72.3605 56.7889 72.352 56.7849 72.3508L56.8008 72.34C56.8906 72.2781 57.1201 72.1438 57.461 71.9585L57.5515 71.9094ZM64.8812 70.7388C64.6757 70.5293 64.3393 70.526 64.1298 70.7315C63.7613 71.093 63.2449 71.4296 62.343 71.9303L61.4252 72.4397C61.1827 72.5778 60.9841 72.6969 60.8043 72.8136C60.654 72.9111 60.5197 73.0052 60.3991 73.0984C60.1669 73.2778 60.1241 73.6115 60.3035 73.8437C60.483 74.0759 60.8167 74.1187 61.0489 73.9393C61.1447 73.8652 61.2555 73.7876 61.3826 73.7051C61.5 73.629 61.629 73.55 61.7783 73.4627L62.0709 73.2953L63.0033 72.7788C63.8991 72.276 64.4388 71.917 64.874 71.4902C65.0835 71.2847 65.0867 70.9483 64.8812 70.7388Z" fill="#343840"/>
<path d="M52.9957 124.697C55.6529 139.511 65.6118 150.648 78.3199 153.274C80.6527 153.756 84.6919 153.819 88.8747 153.278C94.2638 152.58 99.5086 150.98 104.121 148.387C116.792 141.577 126.407 127.679 127.653 115.512C128.748 104.825 124.665 94.9526 117.274 87.9094C117.274 87.9094 94.0554 99.3134 82.6577 105.795C72.7398 111.436 52.9957 124.697 52.9957 124.697Z" fill="white"/>
<path d="M107.069 80.5199C102.306 78.1702 96.339 76.3141 90.488 76.015C69.0288 74.9178 52.1514 92.0604 51.9755 114.172C51.9755 114.172 75.9262 98.9161 88.3691 91.5558C94.5596 87.894 107.069 80.5199 107.069 80.5199Z" fill="white"/>
<path fill-rule="evenodd" clip-rule="evenodd" d="M151.207 69.2512C151.135 72.9455 147.226 79.0942 140.942 86.0522C136.39 91.0924 131.093 95.9645 126.651 99.2475L126.375 99.4499L126.558 100.266C127.639 104.999 129.049 110.145 128.516 115.334C127.223 127.929 117.371 142.138 104.353 149.119C99.605 151.783 94.2079 153.425 88.6718 154.14L88.144 154.205C84.0161 154.692 80.066 154.611 77.652 154.113C68.2823 152.182 60.3496 145.632 55.5536 136.153C55.5375 136.121 55.5249 136.088 55.5157 136.055C54.8842 136.415 54.0348 136.818 53.6468 136.949L52.5839 137.309C41.1291 141.161 29.7731 144.385 25.134 142.373C23.3679 141.607 22.7643 140.134 23.5029 138.155C24.2207 136.232 26.2108 133.754 29.5498 130.671L29.7333 130.502C32.8972 127.601 39.9235 122.302 50.812 114.603L50.8148 114.461C51.3461 91.6476 69.0672 74.2562 91.342 75.6759C98.1552 76.1101 103.581 78.5312 106.291 80.0179L107.483 79.3784C118.661 73.4017 127.629 69.2005 134.472 66.6859C145.726 62.5506 151.291 64.484 151.207 69.2512ZM134.839 69.1364C122.255 73.7605 102.368 84.1602 74.6795 100.889L73.838 101.398C52.2775 114.449 38.0006 124.365 30.4514 131.285L30.0793 131.629L29.7265 131.959C24.0595 137.313 23.0551 140.313 25.5568 141.398C29.8394 143.255 41.3401 140.124 52.6027 136.43L53.6468 136.086C54.6512 135.753 55.3173 135.562 55.7296 135.474C55.7475 135.461 55.7672 135.449 55.7878 135.439C55.9287 135.367 56.0864 135.365 56.2226 135.419C56.2521 135.424 56.2713 135.433 56.2814 135.446C56.3732 135.496 56.4512 135.573 56.5018 135.673C61.1576 144.875 68.8295 150.483 77.8666 152.346C80.2125 152.83 84.1702 152.9 88.2884 152.391L88.5357 152.36C93.9444 151.661 99.2122 150.784 103.842 148.187C116.564 141.365 126.202 127.463 127.459 115.225C127.996 109.996 127.31 104.862 125.489 100.084C125.339 100.189 125.189 100.292 125.042 100.393C124.762 100.584 124.866 100.275 125.355 99.4664C125.381 99.361 125.439 99.2649 125.522 99.1928L125.673 98.9545C125.725 98.8715 125.781 98.7851 125.839 98.6953L126.469 98.1641C132.404 93.1439 136.966 88.8691 140.153 85.3399L140.517 84.9349C146.415 78.3354 150.08 72.5059 150.141 69.2316C150.207 65.6396 145.468 65.2305 134.839 69.1364ZM81.4824 136.333C82.9082 140.69 80.7514 143.493 76.9547 143.637C73.4467 143.771 70.2522 141.561 70.415 138.42C70.5557 135.705 72.4146 132.803 74.7031 131.737C77.4709 130.448 80.0686 132.012 81.4824 136.333ZM75.2639 132.941C73.4326 133.794 71.8575 136.253 71.7416 138.489C71.6262 140.715 74.0871 142.418 76.9041 142.31C79.8492 142.198 81.361 140.233 80.2199 136.746C79.0319 133.115 77.2255 132.028 75.2639 132.941ZM110.469 127.454C112.288 130.891 111.812 134.268 109.015 135.781L108.936 135.823L108.896 135.863C105.145 139.578 100.459 140.028 97.4031 137.336L97.2983 137.242C93.7784 134.017 94.617 128.478 100.218 124.135C103.823 121.341 108.226 123.215 110.469 127.454ZM100.916 125.035C95.8308 128.977 95.1161 133.699 98.0674 136.402C100.184 138.341 103.312 138.449 106.233 136.567L106.29 136.529L106.269 136.524C106.066 136.471 105.904 136.308 105.858 136.095L105.849 136.041C105.812 135.729 106.035 135.446 106.347 135.409C107.061 135.324 107.681 135.151 108.207 134.905L108.279 134.87L108.366 134.78C108.708 134.419 109.043 134.026 109.368 133.602L109.475 133.459C109.597 133.296 109.789 133.217 109.978 133.232L109.993 133.234L110 133.219C110.682 131.871 110.521 130.045 109.522 128.101L109.463 127.986C107.512 124.3 103.865 122.748 100.916 125.035ZM134.776 84.1769C134.483 85.2164 133.593 86.643 132.228 88.3324C129.848 91.2774 126.273 94.7052 123.148 97.0492L123.841 96.2869C123.834 96.2808 123.829 96.2727 123.824 96.2634L123.584 95.8241C122.021 92.9699 120.279 90.1544 117.463 87.8593C110.176 90.864 101.82 94.9712 94.2067 99.2656L91.7113 100.676C73.3353 111.085 63.6672 117.317 53.3287 124.978C53.7189 126.735 54.2106 128.45 54.7995 130.112C54.8919 130.373 53.6845 131.348 53.4634 131.228C51.401 132.61 48.1714 133.614 46.3328 133.666C44.5408 133.717 43.5055 132.991 44.0389 131.545C44.485 130.335 46.1657 128.609 49.1902 126.297L49.535 126.035L50.2322 125.511C61.6152 116.989 72.8841 110.074 93.6846 98.3401L94.5551 97.8516C108.821 89.8884 125.342 82.7142 132.909 82.0522C134.464 81.9161 135.17 82.7768 134.776 84.1769ZM51.9444 126.009L49.5594 127.809C47.4319 129.422 45.898 130.615 45.0694 131.38L45.0086 131.437C43.9973 132.386 45.142 132.636 46.3026 132.603C48.0606 132.554 50.7538 131.22 53.0333 130.007C52.612 128.702 52.2485 127.368 51.9444 126.009ZM89.2498 120.24C89.5343 120.312 89.7063 120.601 89.6341 120.886C89.5619 121.17 89.2727 121.342 88.9883 121.27C87.5595 120.907 86.7154 121.046 86.4416 121.431C86.2599 121.686 86.3605 122.122 86.7002 122.399C86.9657 122.617 87.3192 122.72 87.5624 122.667C87.7738 122.621 87.8923 122.458 87.8923 122.05C87.8923 121.757 88.1302 121.519 88.4237 121.519C88.7172 121.519 88.955 121.757 88.955 122.05C88.955 122.938 88.5111 123.548 87.7884 123.706C87.2074 123.832 86.5305 123.634 86.0274 123.222C85.2846 122.614 85.0419 121.565 85.5757 120.815C86.1608 119.993 87.4432 119.781 89.2498 120.24ZM65.9091 118.289C66.7286 118.535 67.0815 119.164 67.1929 120.108L67.2039 120.21L67.2174 120.365C67.2193 120.391 67.2211 120.418 67.2229 120.446L67.2508 120.986L67.2591 121.107C67.2635 121.161 67.2682 121.204 67.2737 121.243L67.2879 121.324L67.2965 121.36L67.3113 121.373C67.4753 121.534 67.5189 121.786 67.4128 121.994L67.3857 122.041C67.2266 122.287 66.8977 122.358 66.6511 122.199C66.3118 121.98 66.2346 121.755 66.1935 121.109L66.1598 120.476C66.1559 120.419 66.1517 120.37 66.1462 120.314C66.0858 119.695 65.9349 119.406 65.6042 119.307C64.676 119.029 64.1434 119.313 63.9747 119.933C63.8244 120.486 64.0419 121.067 64.4227 121.228L64.5191 121.264C64.768 121.371 64.8998 121.651 64.8159 121.914C64.7268 122.194 64.4279 122.348 64.1483 122.259C63.1364 121.936 62.6557 120.734 62.9492 119.655C63.2769 118.449 64.4164 117.842 65.9091 118.289ZM104.244 110.153C105.716 112.222 105.442 114.854 103.081 116.045C102.819 116.177 102.5 116.072 102.368 115.81C102.236 115.548 102.341 115.228 102.603 115.096C104.312 114.234 104.507 112.356 103.378 110.769C102.282 109.227 100.755 109.058 99.7065 110.724C98.5945 112.49 98.6753 113.526 99.4759 113.993C100.111 114.364 101.135 114.286 101.416 113.983L101.444 113.95C101.614 113.71 101.946 113.655 102.185 113.825C102.424 113.995 102.48 114.327 102.309 114.566C101.719 115.396 100.033 115.548 98.9406 114.911C97.5421 114.096 97.4083 112.379 98.8072 110.157C100.305 107.779 102.748 108.05 104.244 110.153ZM82.2143 107.106C82.4905 107.106 82.7175 107.317 82.7433 107.586L82.7457 107.638C82.7457 107.731 82.8326 107.836 83.1445 108.064L83.4395 108.276C83.7612 108.511 83.9163 108.656 84.0628 108.888C84.3978 109.418 84.5877 109.957 84.5877 110.591C84.5877 112.215 82.1481 114.424 79.4853 115.407C76.2931 116.585 73.6778 115.711 72.9661 112.435C72.9038 112.149 73.0858 111.866 73.3725 111.803C73.6593 111.741 73.9423 111.923 74.0046 112.21C74.5569 114.752 76.4638 115.389 79.1173 114.41C81.4087 113.564 83.525 111.648 83.525 110.591C83.525 110.182 83.4006 109.829 83.1646 109.456L83.1326 109.411C83.0785 109.343 82.994 109.269 82.8416 109.156L82.4911 108.903C81.9086 108.474 81.683 108.184 81.683 107.638C81.683 107.344 81.9209 107.106 82.2143 107.106ZM84.7086 77.6559L84.373 77.6936C66.2414 79.8741 52.6393 94.3759 51.8974 113.836L53.843 112.467C59.4269 108.548 65.9085 104.071 73.2877 99.0357L74.7256 98.1668C79.0182 95.5769 83.1226 93.1398 87.0407 90.8534C86.9692 90.728 86.9491 90.5741 86.9976 90.4261C87.2715 89.5899 87.5247 89.0281 87.9886 88.4653C89.4404 86.7041 91.4294 85.8439 92.8385 86.9497C92.9773 87.0586 93.0472 87.2227 93.0416 87.3865L94.2934 86.6722C98.2351 84.4284 101.965 82.3561 105.485 80.4523L104.11 80.0612C102.071 79.4872 99.5345 78.8066 97.0077 78.2826C97.0307 79.964 95.7721 81.3067 93.681 82.2302C91.9035 83.0153 89.5871 83.4377 87.94 83.3395C84.8587 83.1558 83.1244 80.4533 84.7086 77.6559ZM116.515 100.731C117.815 104.283 116.742 107.514 113.495 107.493C108.87 107.462 104.352 103.423 105.083 99.8051C105.408 98.1908 106.622 96.763 108.732 96.0504C112.102 94.9123 115.191 97.1147 116.515 100.731ZM109.072 97.0572C107.328 97.6461 106.376 98.766 106.124 100.015C105.545 102.887 109.478 106.404 113.502 106.43C115.808 106.445 116.601 104.058 115.517 101.096C114.37 97.9624 111.805 96.1341 109.072 97.0572ZM70.0006 84.4786L70.0385 84.5333L70.2942 84.94C70.4195 85.1466 70.5317 85.3491 70.6385 85.5674C71.8153 87.9736 71.7849 91.1278 69.7934 95.5061C68.8912 97.4896 66.5928 100.155 64.5857 101.746C62.0228 103.777 60.1094 104.238 57.8254 103.988L57.1477 103.908L57.065 103.901C57.0197 103.897 56.9908 103.897 56.959 103.898L56.9125 103.9C56.8772 103.902 56.8649 103.9 56.8628 103.895L56.8627 103.892L56.8456 103.919C56.6916 104.14 56.3922 104.213 56.1518 104.079C55.8954 103.936 55.8031 103.613 55.9458 103.356C56.1368 103.013 56.4559 102.858 56.8622 102.838C56.9698 102.833 57.0836 102.837 57.2191 102.848L57.3776 102.864L57.8159 102.917C59.8962 103.169 61.5514 102.795 63.9256 100.913C65.8109 99.419 68.0021 96.8776 68.826 95.0661C70.6898 90.9688 70.7169 88.1466 69.6839 86.0343C69.6151 85.8937 69.5433 85.7601 69.4656 85.6259L69.3543 85.44L69.1315 85.0877C68.9756 84.8391 69.0508 84.5112 69.2994 84.3553C69.5325 84.2091 69.8352 84.266 70.0006 84.4786ZM133.002 83.1108C129.605 83.408 124.28 85.0859 118.141 87.5818L118.32 87.7405C120.029 89.2733 123.476 92.9079 124.555 95.5005L125.629 94.3089C128.281 91.3594 130.205 89.1447 131.401 87.6645L131.643 87.3609C132.786 85.9101 133.525 84.6978 133.753 83.889L133.785 83.7662C133.927 83.1824 133.763 83.0442 133.002 83.1108ZM82.1233 84.8369C83.4458 85.4762 83.9825 86.8995 83.1125 88.1901C82.9484 88.4334 82.6182 88.4977 82.3749 88.3336C82.1316 88.1696 82.0673 87.8394 82.2313 87.596C82.7099 86.8862 82.4399 86.1703 81.6608 85.7936C80.8403 85.3969 79.9413 85.625 79.4773 86.491C79.0498 87.2889 79.0204 88.3692 79.3618 89.0768C79.6614 89.6979 80.0976 89.8169 80.763 89.316C80.9975 89.1395 81.3306 89.1865 81.5071 89.421C81.6836 89.6554 81.6366 89.9885 81.4022 90.165C80.1895 91.0778 78.9892 90.7503 78.4046 89.5385C77.9146 88.5228 77.9537 87.0845 78.5406 85.9891C79.2892 84.5918 80.8154 84.2045 82.1233 84.8369ZM88.8086 89.1412C88.5609 89.4418 88.3838 89.7589 88.2198 90.166C89.5891 89.3705 90.935 88.5933 92.2579 87.8347L92.2195 87.8123L92.1825 87.7857C91.3711 87.1491 89.9409 87.7676 88.8086 89.1412ZM86.5426 77.4933L86.0779 77.526L86.0468 77.5652C84.21 79.8865 84.9175 81.7706 87.4259 82.0381C89.2275 82.2302 94.0101 80.8937 94.571 80.4246C95.1174 79.9677 95.8085 78.9169 95.9149 78.0657C94.2918 77.7605 92.7041 77.5361 91.2878 77.4637C89.8405 77.3897 88.4132 77.3915 87.0096 77.4659L86.5426 77.4933Z" fill="#343840"/>
<path d="M134.517 69.2681C145.77 65.1328 145.512 66.3597 134.883 70.2656C122.3 74.8897 74.7995 103.864 74.7995 103.864C53.2389 116.915 51.626 114.901 72.5239 102.2L73.8121 101.419C74.0548 101.272 97.8474 86.2559 114.849 78.2223C116.762 77.3183 133.235 69.7389 134.517 69.2681Z" fill="white"/>
<path fill-rule="evenodd" clip-rule="evenodd" d="M153.948 48.6809C150.461 48.5026 147.739 51.2124 147.711 54.7579C147.687 57.7285 149.391 60.2508 151.833 60.7542C152.476 60.8868 154.332 60.8868 155.941 59.9839L156.075 59.9104C158.104 58.7613 159.485 56.5752 159.669 54.7768C159.997 51.5884 157.435 48.8592 153.948 48.6809ZM148.47 54.7639C148.47 54.7411 148.47 54.7182 148.471 54.6954C148.492 54.6884 148.514 54.6794 148.534 54.6682C151.268 53.1954 152.956 52.0731 153.63 51.2627C154.075 50.7277 154.292 50.1242 154.274 49.4684C154.734 49.5191 155.171 49.6199 155.581 49.7642C155.579 49.7838 155.578 49.8039 155.579 49.8243C155.612 50.768 155.36 51.5224 154.826 52.1098C154.211 52.7848 153.466 53.4272 152.62 54.0329C151.715 54.6805 150.743 55.2524 149.771 55.742C149.544 55.8562 149.329 55.9604 149.126 56.0542L148.833 56.1873C148.791 56.206 148.752 56.2231 148.716 56.2386L148.629 56.2754C148.521 55.7967 148.465 55.2896 148.47 54.7639ZM148.842 57.0091C149.082 57.6756 149.43 58.2663 149.861 58.7474L150.088 58.6169C153.656 56.5513 155.871 54.9287 156.709 53.784C157.557 52.6266 157.859 51.738 157.669 51.1337C157.665 51.1195 157.661 51.1052 157.659 51.0909C157.285 50.6989 156.841 50.3619 156.34 50.0959C156.318 51.0991 156.001 51.9463 155.387 52.6208C154.733 53.3385 153.949 54.0152 153.062 54.6502C152.122 55.3226 151.117 55.9138 150.113 56.4199C149.82 56.5675 149.544 56.6991 149.29 56.8142L148.994 56.9453L148.842 57.0091ZM151.683 59.9344C151.235 59.8004 150.818 59.5804 150.442 59.2894C154.114 57.165 156.4 55.4912 157.322 54.2325C157.893 53.4517 158.259 52.7495 158.408 52.1229C158.592 52.4679 158.732 52.8357 158.822 53.22C158.803 53.2591 158.79 53.3023 158.785 53.3482C158.693 54.2355 158.235 55.1162 157.399 55.9932C156.596 56.835 154.864 58.0496 152.218 59.6198L151.683 59.9344ZM152.966 60.0572C153.781 60.0054 154.778 59.7665 155.583 59.315C157.08 58.5119 158.283 56.9994 158.737 55.542C158.517 55.8711 158.254 56.1962 157.948 56.517C157.124 57.3814 155.468 58.5565 152.966 60.0572ZM148.69 53.7192L148.555 53.7927C148.986 51.2846 150.99 49.4849 153.513 49.4329C153.54 49.9257 153.387 50.3678 153.046 50.7774C152.496 51.4395 151.035 52.4305 148.69 53.7192Z" fill="#343840"/>
<path fill-rule="evenodd" clip-rule="evenodd" d="M181.348 41.4082C181.419 41.4163 181.468 41.4804 181.46 41.5507C181.46 41.6543 181.393 41.7103 181.304 41.7467C181.223 41.779 181.094 41.7666 181.019 41.7768C180.197 41.8402 179.551 41.2354 179.266 40.4559C178.993 39.7071 179.066 38.8117 179.562 38.2595C179.619 38.1944 179.718 38.1879 179.783 38.2449C179.848 38.302 180.218 38.4011 180.161 38.4662C179.752 38.9432 179.475 39.2327 179.861 40.3649C180.246 41.4972 181.295 41.4021 181.348 41.4082Z" fill="#E7EAEE"/>
<path fill-rule="evenodd" clip-rule="evenodd" d="M50.4783 49.515C50.2623 49.3667 49.9669 49.4216 49.8186 49.6376C49.6703 49.8536 49.7252 50.1489 49.9412 50.2972C50.1785 50.4601 50.3882 50.6105 50.5733 50.7503C50.3739 50.9089 50.1748 51.0906 49.9679 51.2974L49.5484 51.7236C49.3639 51.9096 49.3652 52.21 49.5513 52.3945C49.7374 52.5789 50.0378 52.5776 50.2222 52.3915L50.7256 51.8827C50.9305 51.6832 51.1225 51.5163 51.3156 51.3777C51.7446 51.8029 51.8752 52.1148 51.8822 52.4247L51.8822 52.5042L51.8847 52.5527C51.909 52.792 52.111 52.9786 52.3567 52.9786C52.6187 52.9786 52.8311 52.7662 52.8311 52.5042L52.831 52.4109C52.8222 51.9277 52.6516 51.468 52.1924 50.9427C52.4957 50.8524 52.8375 50.8018 53.2519 50.7801C53.5136 50.7665 53.7146 50.5433 53.701 50.2816C53.6873 50.02 53.4641 49.8189 53.2024 49.8326C52.4829 49.8702 51.9237 49.9901 51.4256 50.218C51.2176 50.048 50.982 49.8695 50.7157 49.6807L50.4783 49.515Z" fill="#343840"/>
<path fill-rule="evenodd" clip-rule="evenodd" d="M121.565 153.469L121.894 153.471C123.734 153.488 125.171 153.654 127.878 154.088C128.189 154.138 128.4 154.43 128.35 154.741C128.3 155.051 128.008 155.262 127.698 155.213L126.811 155.073C124.571 154.729 123.28 154.608 121.565 154.608C115.616 154.608 111.818 158.332 112.46 164.044C112.495 164.357 112.271 164.639 111.958 164.674C111.646 164.709 111.364 164.484 111.329 164.172C110.606 157.748 114.969 153.469 121.565 153.469ZM126.173 155.768L126.118 155.719C126.064 155.673 125.982 155.68 125.936 155.734C125.889 155.788 125.897 155.869 125.95 155.915L126.007 155.963C126.061 156.01 126.142 156.003 126.189 155.949C126.234 155.896 126.229 155.814 126.173 155.768ZM115.857 156.959C115.652 156.795 115.354 156.827 115.19 157.031C114.527 157.856 114.044 158.66 113.743 159.444C113.45 160.207 113.35 161.489 113.426 163.322L113.444 163.709C113.458 163.97 113.681 164.171 113.943 164.157C114.204 164.144 114.405 163.92 114.392 163.659C114.291 161.744 114.377 160.44 114.628 159.784C114.892 159.098 115.325 158.378 115.929 157.626C116.093 157.422 116.061 157.123 115.857 156.959ZM121.034 155.389C121.267 155.269 121.553 155.36 121.674 155.592C121.794 155.825 121.703 156.111 121.471 156.232C120.507 156.731 119.771 157.568 119.258 158.761C118.708 160.041 118.257 161.184 117.907 162.188C117.821 162.435 117.55 162.566 117.303 162.479C117.055 162.393 116.925 162.122 117.011 161.875C117.369 160.848 117.828 159.686 118.387 158.386C118.983 156.999 119.867 155.994 121.034 155.389ZM123.792 155.364C123.62 155.167 123.32 155.147 123.123 155.32C122.331 156.014 121.723 156.645 121.297 157.217C120.874 157.785 120.379 158.635 119.806 159.772C119.688 160.006 119.782 160.291 120.016 160.409C120.25 160.527 120.535 160.433 120.653 160.199C121.204 159.107 121.674 158.3 122.058 157.784C122.439 157.271 123.003 156.687 123.748 156.034C123.945 155.861 123.965 155.561 123.792 155.364ZM122.06 160.722C121.863 160.894 121.563 160.875 121.391 160.678C121.218 160.481 121.238 160.181 121.435 160.008C122.18 159.355 122.744 158.77 123.125 158.258C123.509 157.742 123.979 156.935 124.53 155.843C124.648 155.609 124.933 155.515 125.167 155.633C125.401 155.751 125.495 156.036 125.377 156.27C124.804 157.407 124.309 158.257 123.886 158.825C123.461 159.397 122.852 160.028 122.06 160.722ZM118.468 155.776C118.253 155.627 117.957 155.681 117.808 155.897C116.748 157.433 116.07 158.58 115.771 159.36C115.47 160.142 115.263 161.197 115.142 162.53C115.119 162.791 115.311 163.021 115.572 163.045C115.833 163.069 116.064 162.876 116.087 162.615C116.201 161.362 116.392 160.389 116.657 159.7C116.903 159.058 117.478 158.069 118.376 156.747L118.589 156.436C118.738 156.22 118.684 155.925 118.468 155.776Z" fill="#343840"/>
<path fill-rule="evenodd" clip-rule="evenodd" d="M109.462 152.978L109.789 153.705L110.534 153.918C110.575 153.93 110.598 153.972 110.586 154.012C110.583 154.025 110.576 154.036 110.567 154.045L110.001 154.609L110.032 155.42C110.034 155.462 110.001 155.497 109.959 155.499C109.945 155.499 109.931 155.496 109.919 155.489L109.278 155.124C109.258 155.113 109.234 155.111 109.212 155.119L108.527 155.392C108.488 155.407 108.444 155.388 108.428 155.349C108.423 155.336 108.422 155.322 108.424 155.308L108.568 154.509L108.086 153.872C108.061 153.838 108.067 153.791 108.101 153.765C108.111 153.758 108.123 153.753 108.136 153.751L108.904 153.643L109.329 152.969C109.351 152.933 109.398 152.923 109.433 152.945C109.446 152.953 109.456 152.965 109.462 152.978Z" fill="#343840"/>
<path fill-rule="evenodd" clip-rule="evenodd" d="M135.861 51.2699C136.036 51.4247 136.253 51.7039 136.446 52.0061L136.693 51.8961L136.986 51.7707C137.045 51.7438 137.083 51.7228 137.095 51.7057C137.129 51.6428 137.206 51.6189 137.27 51.6523C137.332 51.6855 137.357 51.7634 137.323 51.8261C137.3 51.8857 137.135 52.0726 136.83 52.2555C136.775 52.2886 136.713 52.3195 136.648 52.3495C136.76 52.5601 136.849 52.7637 136.89 52.9269C136.953 53.1675 136.903 53.3381 136.82 53.398C136.74 53.4573 136.536 53.4683 136.227 53.2116C136.17 53.1683 136.161 53.0874 136.205 53.0311C136.248 52.9751 136.328 52.9647 136.385 53.008C136.444 53.0514 136.503 53.076 136.551 53.0937L136.528 53.0016C136.519 52.9687 136.508 52.9344 136.492 52.9009C136.436 52.7797 136.366 52.6413 136.287 52.4992C136.045 52.5905 135.77 52.6733 135.473 52.7132C135.328 52.7327 135.18 52.7365 135.027 52.7352C134.939 52.741 134.862 52.6741 134.856 52.5857C134.851 52.4976 134.918 52.4211 135.006 52.4153C135.363 52.3809 135.694 52.2906 135.986 52.189L136.081 52.1546C135.923 51.9079 135.754 51.6837 135.609 51.5573C135.531 51.4878 135.523 51.3669 135.592 51.2877C135.662 51.2081 135.782 51.2002 135.861 51.2699Z" fill="#343840"/>
<path fill-rule="evenodd" clip-rule="evenodd" d="M31.4011 115.496C30.905 115.529 30.1181 115.655 29.4749 115.91C28.9247 116.129 28.9245 122.068 30.8054 122.542C32.6755 123.166 34.7205 122.34 34.4764 119.161C34.472 119.095 34.4182 118.914 34.3565 118.707C34.2662 118.403 34.159 118.043 34.1655 117.902C34.1909 117.403 34.0597 116.982 33.7136 116.718C33.3408 115.928 32.61 115.418 31.4011 115.496ZM31.1316 121.096C30.211 120.408 30.2433 117.198 31.2939 116.984C31.9478 117.486 32.5446 118.212 32.746 119.61C32.5207 120.38 32.0451 120.826 31.6292 121.215C31.5847 121.257 31.5409 121.298 31.4982 121.339C31.3795 121.271 31.2572 121.189 31.1316 121.096Z" fill="white"/>
<path fill-rule="evenodd" clip-rule="evenodd" d="M30.0139 119.225C29.9304 118.725 29.9874 118.166 30.2385 117.57C30.3523 117.299 30.6517 117.079 31.0262 116.931C31.464 116.758 31.9995 116.673 32.3372 116.65C33.1599 116.597 33.6571 116.942 33.9106 117.476C34.146 117.655 34.2352 117.939 34.2177 118.277C34.2103 118.437 34.4217 119.018 34.429 119.128C34.5942 121.278 33.2023 121.837 31.9298 121.416C31.4464 121.662 30.98 121.702 30.6291 121.442C30.3143 121.209 30.0726 120.717 30.0173 119.851C30.0025 119.627 30.0014 119.419 30.0139 119.225ZM32.2709 117.809C31.5408 117.952 31.5102 120.06 32.1478 120.509C32.2348 120.57 32.3195 120.624 32.4018 120.668C32.71 120.39 32.9398 120.165 33.0702 119.706C33.2006 119.246 32.7237 118.137 32.2709 117.809Z" fill="#00A896"/>
<path fill-rule="evenodd" clip-rule="evenodd" d="M79.8405 171.865C79.6245 171.716 79.3291 171.771 79.1808 171.987C79.0325 172.203 79.0874 172.498 79.3034 172.647C79.5407 172.81 79.7504 172.96 79.9354 173.1C79.7361 173.258 79.537 173.44 79.3301 173.647L78.9105 174.073C78.7261 174.259 78.7274 174.56 78.9135 174.744C79.0996 174.929 79.4 174.927 79.5844 174.741L80.0878 174.232C80.2927 174.033 80.4847 173.866 80.6778 173.727C81.1068 174.152 81.2374 174.464 81.2444 174.774L81.2444 174.854L81.2469 174.902C81.2712 175.142 81.4732 175.328 81.7188 175.328C81.9809 175.328 82.1933 175.116 82.1933 174.854L82.1932 174.761C82.1843 174.277 82.0138 173.818 81.5546 173.292C81.8579 173.202 82.1997 173.151 82.6141 173.13C82.8758 173.116 83.0768 172.893 83.0631 172.631C83.0495 172.37 82.8263 172.169 82.5646 172.182C81.8451 172.22 81.2859 172.34 80.7877 172.568C80.5798 172.398 80.3442 172.219 80.0779 172.03L79.8405 171.865Z" fill="#343840"/>
<path fill-rule="evenodd" clip-rule="evenodd" d="M79.8405 171.865C79.6245 171.716 79.3291 171.771 79.1808 171.987C79.0325 172.203 79.0874 172.498 79.3034 172.647C79.5407 172.81 79.7504 172.96 79.9354 173.1C79.7361 173.258 79.537 173.44 79.3301 173.647L78.9105 174.073C78.7261 174.259 78.7274 174.56 78.9135 174.744C79.0996 174.929 79.4 174.927 79.5844 174.741L80.0878 174.232C80.2927 174.033 80.4847 173.866 80.6778 173.727C81.1068 174.152 81.2374 174.464 81.2444 174.774L81.2444 174.854L81.2469 174.902C81.2712 175.142 81.4732 175.328 81.7188 175.328C81.9809 175.328 82.1933 175.116 82.1933 174.854L82.1932 174.761C82.1843 174.277 82.0138 173.818 81.5546 173.292C81.8579 173.202 82.1997 173.151 82.6141 173.13C82.8758 173.116 83.0768 172.893 83.0631 172.631C83.0495 172.37 82.8263 172.169 82.5646 172.182C81.8451 172.22 81.2859 172.34 80.7877 172.568C80.5798 172.398 80.3442 172.219 80.0779 172.03L79.8405 171.865Z" fill="#343840"/>
<path fill-rule="evenodd" clip-rule="evenodd" d="M96.0546 158.868L96.3815 159.594L97.1268 159.808C97.1671 159.82 97.1904 159.862 97.1788 159.902C97.1752 159.914 97.1685 159.926 97.1594 159.935L96.5932 160.499L96.6249 161.31C96.6265 161.352 96.5939 161.387 96.552 161.389C96.5378 161.389 96.5238 161.386 96.5115 161.379L95.8704 161.014C95.8504 161.002 95.8263 161.001 95.8049 161.009L95.1193 161.281C95.0803 161.297 95.0362 161.278 95.0207 161.239C95.0155 161.226 95.014 161.211 95.0166 161.197L95.1609 160.398L94.6786 159.761C94.6533 159.728 94.6599 159.68 94.6933 159.655C94.7036 159.647 94.7157 159.642 94.7285 159.64L95.4963 159.532L95.9212 158.858C95.9435 158.823 95.9904 158.812 96.0258 158.835C96.0385 158.843 96.0485 158.854 96.0546 158.868Z" fill="#343840"/>
<path fill-rule="evenodd" clip-rule="evenodd" d="M54.9252 153.876L55.4809 154.447L56.2543 154.393C56.2962 154.39 56.3324 154.422 56.3353 154.463C56.3362 154.476 56.3338 154.489 56.3283 154.501L55.9891 155.224L56.2963 155.976C56.3122 156.014 56.2936 156.059 56.2548 156.075C56.2417 156.08 56.2273 156.082 56.2133 156.079L55.4861 155.955C55.4634 155.952 55.4401 155.958 55.4229 155.974L54.8718 156.464C54.8405 156.492 54.7925 156.489 54.7646 156.458C54.7552 156.447 54.7489 156.434 54.7465 156.42L54.6089 155.62L53.9378 155.186C53.9026 155.164 53.8925 155.117 53.9153 155.081C53.9223 155.071 53.932 155.062 53.9434 155.056L54.6279 154.691L54.7966 153.913C54.8055 153.872 54.8459 153.846 54.8869 153.855C54.9015 153.858 54.9148 153.865 54.9252 153.876Z" fill="#343840"/>
<path fill-rule="evenodd" clip-rule="evenodd" d="M46.2478 101.851L46.5748 102.578L47.32 102.792C47.3603 102.803 47.3836 102.845 47.372 102.885C47.3685 102.898 47.3618 102.909 47.3526 102.918L46.7864 103.482L46.8181 104.293C46.8198 104.335 46.7871 104.37 46.7452 104.372C46.7311 104.373 46.717 104.369 46.7047 104.362L46.0637 103.997C46.0436 103.986 46.0195 103.984 45.9981 103.992L45.3125 104.265C45.2735 104.28 45.2294 104.261 45.2139 104.222C45.2087 104.209 45.2073 104.195 45.2098 104.181L45.3541 103.382L44.8718 102.745C44.8465 102.711 44.8531 102.664 44.8865 102.638C44.8968 102.631 44.909 102.626 44.9218 102.624L45.6895 102.516L46.1144 101.842C46.1367 101.806 46.1836 101.796 46.2191 101.818C46.2317 101.826 46.2417 101.838 46.2478 101.851Z" fill="#343840"/>
<path fill-rule="evenodd" clip-rule="evenodd" d="M46.1718 102.575L46.3107 102.883L46.6272 102.974C46.6444 102.979 46.6542 102.997 46.6493 103.014C46.6478 103.019 46.645 103.024 46.6411 103.028L46.4006 103.267L46.4141 103.612C46.4148 103.63 46.4009 103.645 46.3831 103.645C46.3771 103.646 46.3711 103.644 46.3659 103.641L46.0936 103.486C46.0851 103.481 46.0748 103.481 46.0657 103.484L45.7745 103.6C45.758 103.606 45.7392 103.598 45.7327 103.582C45.7304 103.576 45.7298 103.57 45.7309 103.564L45.7922 103.225L45.5873 102.954C45.5766 102.94 45.5794 102.92 45.5936 102.909C45.598 102.906 45.6031 102.904 45.6086 102.903L45.9347 102.857L46.1151 102.571C46.1246 102.556 46.1445 102.551 46.1596 102.561C46.165 102.564 46.1692 102.569 46.1718 102.575Z" fill="#E7EAEE"/>
<path fill-rule="evenodd" clip-rule="evenodd" d="M7.38345 133.725L7.71037 134.452L8.45562 134.666C8.49592 134.677 8.51921 134.719 8.50764 134.759C8.50408 134.772 8.4974 134.783 8.48823 134.792L7.92202 135.356L7.95374 136.167C7.95537 136.209 7.92274 136.244 7.88085 136.246C7.86668 136.247 7.85264 136.243 7.84032 136.236L7.1993 135.871C7.17927 135.86 7.15514 135.858 7.13372 135.866L6.44813 136.139C6.40917 136.154 6.36504 136.135 6.34956 136.096C6.34433 136.083 6.34289 136.069 6.34541 136.055L6.48972 135.256L6.00746 134.619C5.98215 134.585 5.98873 134.538 6.02216 134.513C6.03246 134.505 6.04459 134.5 6.05739 134.498L6.82516 134.39L7.25001 133.716C7.27237 133.68 7.31924 133.67 7.35471 133.692C7.36733 133.7 7.37732 133.712 7.38345 133.725Z" fill="#343840"/>
<path fill-rule="evenodd" clip-rule="evenodd" d="M40.2308 68.4913L40.4683 68.657C40.7348 68.846 41.7297 69.7837 41.9378 69.9538C42.4352 69.7255 42.9945 69.6056 43.7141 69.568C43.9757 69.5543 44.1989 69.7553 44.2126 70.017C44.2263 70.2786 44.0252 70.5018 43.7636 70.5155C43.349 70.5372 43.0071 70.5878 42.7037 70.6782C43.1633 71.2037 43.3338 71.6632 43.3426 72.1463L43.3427 72.2396C43.3427 72.5016 43.1303 72.714 42.8683 72.714C42.6227 72.714 42.4206 72.5273 42.3963 72.2881L42.3939 72.2396L42.3939 72.1601C42.3869 71.8501 42.2563 71.5383 41.8273 71.1131C41.6342 71.2517 41.4422 71.4186 41.2373 71.6181L40.7339 72.1269C40.5494 72.313 40.2491 72.3143 40.063 72.1298C39.8769 71.9454 39.8756 71.645 40.06 71.4589L40.4796 71.0328C40.6864 70.826 40.8855 70.6443 41.0848 70.4857C40.7348 69.6866 39.4229 68.8299 39.5712 68.6139C39.7195 68.3979 40.0148 68.343 40.2308 68.4913Z" fill="#343840"/>
<path fill-rule="evenodd" clip-rule="evenodd" d="M131.765 123.205L132.412 123.67L133.164 123.483C133.205 123.473 133.246 123.497 133.256 123.538C133.259 123.551 133.259 123.564 133.256 123.576L133.047 124.348L133.48 125.034C133.503 125.07 133.492 125.117 133.457 125.139C133.445 125.146 133.431 125.151 133.417 125.151L132.679 125.155C132.656 125.155 132.634 125.166 132.62 125.184L132.162 125.762C132.136 125.795 132.089 125.801 132.056 125.775C132.045 125.766 132.036 125.754 132.031 125.741L131.757 124.977L131.021 124.666C130.982 124.65 130.964 124.606 130.98 124.567C130.985 124.555 130.993 124.545 131.003 124.537L131.614 124.059L131.645 123.263C131.647 123.221 131.682 123.189 131.724 123.19C131.739 123.191 131.753 123.196 131.765 123.205Z" fill="#343840"/>
<path fill-rule="evenodd" clip-rule="evenodd" d="M139.19 93.4713L139.386 94.2435L140.083 94.5836C140.121 94.602 140.136 94.6474 140.118 94.6851C140.112 94.6967 140.104 94.7067 140.093 94.7141L139.438 95.1709L139.328 95.9752C139.322 96.0168 139.284 96.0459 139.242 96.0402C139.228 96.0383 139.215 96.0325 139.204 96.0234L138.636 95.5526C138.619 95.5379 138.595 95.532 138.573 95.5367L137.85 95.6858C137.809 95.6943 137.769 95.6679 137.76 95.6268C137.758 95.6129 137.759 95.5985 137.764 95.5852L138.044 94.8235L137.68 94.1125C137.661 94.0752 137.676 94.0294 137.713 94.0103C137.725 94.0044 137.737 94.0015 137.75 94.002L138.525 94.0289L139.061 93.439C139.089 93.4079 139.137 93.4056 139.168 93.4338C139.179 93.4438 139.187 93.4569 139.19 93.4713Z" fill="#343840"/>
<path fill-rule="evenodd" clip-rule="evenodd" d="M122.282 62.3927L122.478 63.1649L123.175 63.505C123.212 63.5234 123.228 63.5688 123.21 63.6065C123.204 63.6181 123.195 63.6281 123.185 63.6355L122.529 64.0922L122.42 64.8966C122.414 64.9382 122.376 64.9672 122.334 64.9616C122.32 64.9597 122.307 64.9539 122.296 64.9448L121.728 64.474C121.71 64.4593 121.687 64.4534 121.664 64.4581L120.942 64.6072C120.901 64.6157 120.861 64.5892 120.852 64.5482C120.849 64.5343 120.85 64.5199 120.855 64.5066L121.136 63.7449L120.772 63.0339C120.753 62.9965 120.767 62.9508 120.805 62.9317C120.816 62.9258 120.829 62.9229 120.842 62.9234L121.617 62.9502L122.152 62.3603C122.18 62.3293 122.228 62.327 122.26 62.3551C122.271 62.3652 122.278 62.3782 122.282 62.3927Z" fill="#343840"/>
<path fill-rule="evenodd" clip-rule="evenodd" d="M172.234 69.9591L172.522 69.9334C172.848 69.9069 173.143 69.8921 173.412 69.8887C173.646 69.3941 173.998 68.9427 174.525 68.4514C174.716 68.2727 175.017 68.2832 175.195 68.4749C175.374 68.6665 175.363 68.9667 175.172 69.1454C174.868 69.4285 174.639 69.687 174.464 69.9513C175.154 70.0584 175.58 70.3008 175.898 70.6652L175.958 70.7367C176.126 70.9374 176.1 71.2366 175.899 71.405C175.711 71.5629 175.436 71.5498 175.264 71.3821L175.231 71.3465L175.18 71.2856C174.975 71.0527 174.675 70.8978 174.073 70.8478C174.014 71.0781 173.974 71.3294 173.945 71.6139L173.887 72.3272C173.865 72.5883 173.636 72.7824 173.375 72.7607C173.114 72.739 172.919 72.5098 172.941 72.2487L172.989 71.6526C173.014 71.3611 173.05 71.094 173.101 70.8444C172.869 70.8562 172.612 70.8758 172.325 70.9035C172.064 70.9287 171.833 70.7378 171.807 70.477C171.782 70.2162 171.973 69.9843 172.234 69.9591Z" fill="#343840"/>
<path fill-rule="evenodd" clip-rule="evenodd" d="M133.924 102.708C133.838 102.925 133.651 103.225 133.432 103.509L133.62 103.704L133.838 103.936L133.887 103.983C133.908 104.002 133.925 104.013 133.937 104.016C134.007 104.026 134.056 104.091 134.047 104.162C134.037 104.232 133.972 104.282 133.902 104.272C133.838 104.27 133.606 104.18 133.329 103.955C133.279 103.915 133.229 103.868 133.179 103.816C133.019 103.994 132.858 104.147 132.719 104.242C132.514 104.383 132.337 104.394 132.253 104.337C132.169 104.281 132.089 104.094 132.225 103.716C132.246 103.648 132.319 103.612 132.387 103.633C132.454 103.654 132.491 103.726 132.47 103.795C132.449 103.865 132.447 103.929 132.446 103.98L132.525 103.927C132.553 103.907 132.581 103.884 132.607 103.858C132.702 103.765 132.808 103.651 132.915 103.528C132.746 103.332 132.574 103.102 132.435 102.837C132.367 102.707 132.313 102.57 132.262 102.425C132.226 102.344 132.263 102.249 132.344 102.214C132.425 102.178 132.52 102.215 132.555 102.296C132.71 102.62 132.908 102.9 133.103 103.139L133.168 103.217C133.346 102.984 133.499 102.749 133.568 102.57C133.607 102.472 133.717 102.423 133.815 102.461C133.914 102.5 133.963 102.61 133.924 102.708Z" fill="#E7EAEE"/>
<path fill-rule="evenodd" clip-rule="evenodd" d="M129.292 6.0214C129.581 5.97104 129.856 6.16458 129.907 6.45368C129.957 6.74278 129.764 7.01796 129.475 7.06831C128.099 7.30781 126.445 8.12969 125.015 9.45346C123.159 11.1724 121.789 13.5984 121.113 16.7652C120.568 19.3166 121.069 22.6759 122.493 25.4785C124.112 28.6671 126.716 30.835 130.057 31.4452C133.487 32.0717 136.389 31.6826 139.63 30.5305L139.928 30.4221C140.023 30.3863 140.191 30.3212 140.403 30.2395L140.403 30.2394L140.404 30.2391C141.185 29.938 142.548 29.4118 142.94 29.2935C143.988 28.9766 144.702 29.0031 145.221 29.5554C145.422 29.7694 145.411 30.1056 145.197 30.3064C144.996 30.4947 144.688 30.4971 144.485 30.3203L144.446 30.2826C144.293 30.1197 143.977 30.1008 143.341 30.2832L143.248 30.3106C142.902 30.415 141.639 30.902 140.852 31.2056L140.851 31.2059C140.547 31.3234 140.313 31.4134 140.232 31.443C136.731 32.7208 133.59 33.1708 129.866 32.4906C126.176 31.8166 123.307 29.4277 121.545 25.9598C120.014 22.9459 119.477 19.3397 120.074 16.5434C120.795 13.1635 122.275 10.5423 124.293 8.67372C125.873 7.21104 127.715 6.29614 129.292 6.0214ZM132.886 8.58832C133.174 8.53192 133.453 8.71966 133.509 9.00763C133.566 9.29561 133.378 9.57479 133.09 9.63119C128.783 10.4746 125.32 13.7639 124.316 18.1147C123.976 19.5872 124.078 20.7844 124.412 21.2412L124.456 21.2985L124.46 21.3065L124.466 21.3017C124.586 21.1939 124.725 20.9185 124.833 20.4915L124.856 20.3977C125.889 15.923 129.301 12.4593 133.658 11.2961C133.942 11.2204 134.233 11.3889 134.309 11.6724C134.384 11.956 134.216 12.2472 133.932 12.3228C130.007 13.3708 126.922 16.4616 125.932 20.467L125.892 20.6368C125.527 22.215 124.481 22.9683 123.634 21.9693C123.014 21.2386 122.862 19.6882 123.28 17.8756C124.38 13.1127 128.171 9.51157 132.886 8.58832ZM139.276 14.4204C139.255 14.1277 139.001 13.9073 138.708 13.9282C133.537 14.2971 129.002 17.656 127.197 22.6136C126.512 24.4947 126.472 26.1676 127.032 27.0208C127.784 28.1651 128.967 27.516 129.557 25.8957L129.619 25.7294C131.214 21.5339 134.954 18.6036 139.331 17.9926C139.622 17.952 139.825 17.6835 139.784 17.3929C139.744 17.1023 139.475 16.8995 139.184 16.9401C134.364 17.613 130.253 20.8747 128.558 25.5322L128.521 25.6317C128.332 26.1165 128.126 26.4087 127.97 26.4945L127.963 26.4992C127.961 26.5001 127.96 26.501 127.96 26.5016C127.959 26.5028 127.958 26.5034 127.957 26.5033C127.956 26.5032 127.956 26.5017 127.954 26.4982C127.951 26.4903 127.944 26.4724 127.92 26.4372L127.892 26.391C127.584 25.8442 127.631 24.5289 128.196 22.977C129.856 18.4169 134.027 15.3276 138.784 14.9882C139.077 14.9673 139.297 14.7131 139.276 14.4204ZM141.59 19.5857C141.883 19.5648 142.137 19.7852 142.158 20.0779C142.179 20.3706 141.959 20.6248 141.666 20.6457C138.331 20.8837 135.406 23.0497 134.242 26.2468C133.897 27.1946 133.833 28.0049 133.957 28.4153L133.972 28.4611L133.995 28.4272C134.055 28.3372 134.121 28.2079 134.187 28.0403L134.215 27.9662C135.444 24.5891 138.424 22.224 141.92 21.7361C142.211 21.6956 142.479 21.8983 142.52 22.1889C142.56 22.4795 142.357 22.748 142.067 22.7886C139.009 23.2154 136.395 25.2561 135.27 28.1802L135.214 28.3296C134.758 29.5819 133.772 30.123 133.142 29.164C132.71 28.5069 132.74 27.2664 133.244 25.8834C134.552 22.2888 137.841 19.8532 141.59 19.5857ZM144.391 23.8668C144.37 23.5741 144.116 23.3537 143.823 23.3746C141.312 23.5538 139.109 25.1849 138.233 27.5922C137.888 28.5413 137.867 29.4051 138.186 29.8914C138.71 30.6888 139.524 30.242 139.864 29.3103L139.91 29.1879C140.623 27.3649 142.259 26.0939 144.172 25.827C144.462 25.7864 144.665 25.5179 144.625 25.2273C144.584 24.9366 144.316 24.7339 144.025 24.7745L143.89 24.7947C141.832 25.1264 140.055 26.4331 139.134 28.3138L139.102 28.3807L139.122 28.3044C139.151 28.1935 139.188 28.0767 139.232 27.9557C139.963 25.9458 141.802 24.5842 143.899 24.4346C144.191 24.4137 144.412 24.1595 144.391 23.8668Z" fill="#343840"/>
<path fill-rule="evenodd" clip-rule="evenodd" d="M141.59 19.5858C141.883 19.565 142.137 19.7853 142.158 20.078C142.179 20.3707 141.959 20.625 141.666 20.6458C138.331 20.8838 135.406 23.0498 134.242 26.247C133.897 27.1947 133.833 28.005 133.957 28.4154L133.972 28.4612L133.995 28.4273C134.055 28.3373 134.122 28.2081 134.187 28.0405L134.215 27.9663C135.444 24.5892 138.424 22.2242 141.92 21.7362C142.211 21.6957 142.479 21.8984 142.52 22.189C142.56 22.4797 142.357 22.7482 142.067 22.7887C139.009 23.2155 136.395 25.2563 135.27 28.1803L135.214 28.3297C134.758 29.5821 133.772 30.1231 133.142 29.1641C132.71 28.507 132.74 27.2665 133.244 25.8835C134.552 22.2889 137.841 19.8534 141.59 19.5858Z" fill="#343840"/>
<path d="M108.499 88.765C119.638 83.5546 128.952 80.8024 134.75 80.297C136.526 80.1423 137.332 81.1212 136.882 82.7136C136.548 83.896 135.531 85.5186 133.973 87.44C131.256 90.7896 127.673 93.6559 124.105 96.3218C129.813 91.0541 131.269 88.8504 133.029 86.6803L133.305 86.3351C134.611 84.685 135.454 83.3062 135.714 82.3862L135.751 82.2466C135.913 81.5825 135.725 81.4253 134.856 81.5011C129.189 81.995 119.911 84.7527 108.812 89.956C97.6952 95.1679 97.3773 93.967 108.499 88.765Z" fill="white"/>
<path d="M57.5515 71.9094L57.633 72.1033C58.1973 73.4414 58.7838 74.7664 59.4493 76.2117L59.7081 76.7724C59.6233 76.8294 59.5117 76.8899 59.3891 76.9435C59.2129 77.0204 59.0341 77.0744 58.8996 77.0925L58.8568 77.0968L58.7921 77.0193C58.2891 76.4 57.7053 75.3478 57.2834 74.3015C57.0587 73.7443 56.8987 73.2331 56.8265 72.8404C56.7972 72.6804 56.7836 72.546 56.7847 72.444L56.7878 72.3768C56.7889 72.3605 56.7889 72.352 56.7849 72.3508L56.8008 72.3401C56.8906 72.2781 57.1201 72.1439 57.461 71.9586L57.5515 71.9094Z" fill="white"/>
<path fill-rule="evenodd" clip-rule="evenodd" d="M71.6336 67.0622C71.9823 66.6354 72.4344 66.699 73.007 67.0463L73.1541 67.1392L73.5658 67.4119C73.6809 67.4858 73.7308 67.5113 73.7979 67.538C73.9537 67.6 74.0297 67.7766 73.9677 67.9324C73.9057 68.0882 73.7291 68.1642 73.5733 68.1022L73.5178 68.0794C73.4125 68.0343 73.333 67.9874 73.1197 67.8459L72.8244 67.6491C72.7757 67.6173 72.7336 67.5907 72.6921 67.5655C72.3496 67.3578 72.1941 67.3359 72.1038 67.4464C72.0469 67.516 72.061 67.6643 72.1739 67.9685L72.2978 68.2876C72.544 68.9413 72.5455 69.2336 72.1068 69.4831C71.7291 69.6978 71.5355 69.5975 70.9931 69.0661L70.8615 68.9357C70.5142 68.5888 70.3321 68.4681 70.2148 68.493C70.1759 68.5012 70.1304 68.5288 70.0749 68.588C70.0099 68.6573 69.9915 68.8791 70.0314 69.2726L70.0925 69.7866C70.1639 70.4148 70.1351 70.5776 69.8758 70.7511C69.5187 70.9901 69.0434 70.72 68.1626 69.929C68.0379 69.817 68.0276 69.625 68.1396 69.5002C68.2517 69.3755 68.4436 69.3652 68.5684 69.4772C68.9449 69.8153 69.2293 70.0356 69.4278 70.1484L69.4723 70.1727L69.5095 70.1913L69.5104 70.1532L69.508 70.0623C69.5041 69.9877 69.4948 69.8976 69.4762 69.7446L69.4376 69.4293C69.3637 68.7897 69.3868 68.434 69.632 68.1725C69.7683 68.0273 69.9212 67.9344 70.0892 67.8988C70.4792 67.8164 70.7563 67.983 71.2164 68.4327L71.4487 68.6612C71.6991 68.902 71.7919 68.9635 71.8066 68.9552C71.8635 68.9229 71.8548 68.8223 71.701 68.4273L71.6336 68.2563C71.4191 67.7049 71.3782 67.3747 71.6336 67.0622Z" fill="#343840"/>
<path fill-rule="evenodd" clip-rule="evenodd" d="M104.781 17.6426L104.493 17.6683C104.232 17.6936 104.041 17.9254 104.066 18.1862C104.082 18.3438 104.172 18.4759 104.299 18.5502L104.249 18.5859C104.035 18.7372 103.984 19.0332 104.136 19.2472C104.287 19.4611 104.583 19.512 104.797 19.3608L105.284 19.0154C105.27 19.1271 105.258 19.2424 105.248 19.3618L105.2 19.9579C105.178 20.219 105.373 20.4483 105.634 20.47C105.895 20.4916 106.124 20.2975 106.146 20.0364L106.204 19.3231C106.22 19.1705 106.238 19.0275 106.261 18.8922C106.428 19.2081 106.461 19.4515 106.426 19.6817L106.412 19.76L106.406 19.8082C106.388 20.048 106.555 20.2669 106.797 20.3096C107.055 20.3551 107.301 20.1828 107.346 19.9248L107.362 19.8329C107.413 19.5127 107.39 19.1903 107.26 18.8325C107.328 18.8812 107.387 18.9355 107.439 18.9949L107.49 19.0558L107.523 19.0914C107.695 19.259 107.97 19.2721 108.158 19.1142C108.359 18.9458 108.385 18.6466 108.217 18.4459L108.157 18.3745C108.135 18.35 108.114 18.3261 108.091 18.3027C108.339 18.3171 108.558 18.1367 108.589 17.887C108.621 17.6269 108.436 17.3902 108.176 17.3582C107.729 17.3032 107.338 17.2908 106.978 17.3231C107.107 17.1712 107.257 17.017 107.431 16.8546C107.622 16.676 107.633 16.3758 107.454 16.1841C107.276 15.9925 106.975 15.9819 106.784 16.1606C106.462 16.4603 106.206 16.7452 106.002 17.0341C105.923 16.9505 105.84 16.8647 105.753 16.7768L105.548 16.5724C105.361 16.3888 105.061 16.3916 104.877 16.5786C104.694 16.7655 104.697 17.0659 104.884 17.2494C105.013 17.3769 105.133 17.4975 105.244 17.6118C105.097 17.6192 104.943 17.6295 104.781 17.6426Z" fill="#343840"/>
<path fill-rule="evenodd" clip-rule="evenodd" d="M86.4976 20.9296C86.3837 20.8129 86.1993 20.8161 86.0857 20.9369C85.9721 21.0577 85.9723 21.2502 86.0862 21.367C86.1941 21.4777 86.2908 21.5804 86.377 21.6759C86.1945 21.7532 86.0113 21.8534 85.8153 21.9771L85.5178 22.1679C85.3872 22.2511 85.3586 22.4176 85.4541 22.5397C85.5496 22.6619 85.7329 22.6934 85.8635 22.6102L86.2201 22.3826C86.4065 22.2685 86.5744 22.1822 86.7432 22.1216C86.9997 22.4782 87.0534 22.7068 87.0207 22.9187L87.0118 22.969L87.0079 22.9999C86.9959 23.1538 87.0971 23.2933 87.2454 23.3194C87.4035 23.3473 87.5554 23.2356 87.5846 23.07L87.595 23.011C87.6437 22.7036 87.5915 22.3939 87.3712 22.0113C87.5207 22.009 87.6836 22.0201 87.8683 22.0437C88.0291 22.0643 88.1735 21.9623 88.1907 21.8159C88.208 21.6696 88.0915 21.5343 87.9306 21.5137C87.5779 21.4686 87.2822 21.4635 87.0116 21.5C86.9003 21.3631 86.7712 21.217 86.6225 21.0597L86.4976 20.9296Z" fill="#E7EAEE"/>
<path fill-rule="evenodd" clip-rule="evenodd" d="M25.359 100.019L25.686 100.746L26.4312 100.96C26.4715 100.971 26.4948 101.013 26.4832 101.054C26.4797 101.066 26.473 101.077 26.4638 101.087L25.8976 101.65L25.9293 102.461C25.931 102.503 25.8983 102.539 25.8564 102.54C25.8423 102.541 25.8282 102.537 25.8159 102.53L25.1749 102.165C25.1549 102.154 25.1307 102.152 25.1093 102.161L24.4237 102.433C24.3848 102.448 24.3406 102.429 24.3251 102.39C24.3199 102.377 24.3185 102.363 24.321 102.349L24.4653 101.55L23.983 100.913C23.9577 100.88 23.9643 100.832 23.9977 100.807C24.0081 100.799 24.0202 100.794 24.033 100.792L24.8007 100.684L25.2256 100.01C25.248 99.9746 25.2948 99.964 25.3303 99.9863C25.3429 99.9943 25.3529 100.006 25.359 100.019Z" fill="#343840"/>
<path fill-rule="evenodd" clip-rule="evenodd" d="M29.7183 59.6971L30.0452 60.4236L30.7905 60.6375C30.8308 60.6491 30.854 60.6911 30.8425 60.7314C30.8389 60.7438 30.8322 60.7551 30.8231 60.7642L30.2569 61.3279L30.2886 62.1391C30.2902 62.181 30.2576 62.2163 30.2157 62.2179C30.2015 62.2185 30.1875 62.215 30.1752 62.208L29.5341 61.843C29.5141 61.8316 29.49 61.8299 29.4686 61.8384L28.783 62.1107C28.744 62.1262 28.6999 62.1071 28.6844 62.0682C28.6792 62.055 28.6777 62.0406 28.6802 62.0266L28.8246 61.2278L28.3423 60.5908C28.317 60.5574 28.3236 60.5097 28.357 60.4844C28.3673 60.4766 28.3794 60.4716 28.3922 60.4698L29.16 60.3617L29.5849 59.6878C29.6072 59.6523 29.6541 59.6417 29.6895 59.664C29.7022 59.672 29.7122 59.6835 29.7183 59.6971Z" fill="#343840"/>
<path d="M39.5926 123.895C39.8361 123.718 40.1769 123.772 40.3537 124.015C40.5305 124.259 32.8214 130.538 29.8309 133.415L29.4833 133.752C27.7752 135.424 26.5158 136.871 25.8059 138.015C25.0536 139.227 25.0054 139.886 25.491 140.155C27.3336 141.176 29.9828 141.674 33.777 141.045L34.1669 140.979C35.6111 140.726 46.4752 138.356 46.3032 138.419L46.2364 138.439C45.8939 138.53 41.4702 140.06 39.9434 140.448L39.7588 140.495C37.4247 141.082 35.5982 141.485 33.9551 141.757C29.94 142.422 27.0713 142.277 24.9628 141.108C23.746 140.434 23.8429 139.112 24.8798 137.441C25.6954 136.126 27.13 134.502 29.0753 132.63C32.1058 129.714 36.3683 126.236 39.5926 123.895Z" fill="white"/>
</svg>
