<svg width="320" height="252" viewBox="0 0 320 252" fill="none" xmlns="http://www.w3.org/2000/svg">
<g clip-path="url(#clip0_3087_28869)">
<rect width="318.661" height="252" transform="translate(0.669434)" fill="white"/>
<path fill-rule="evenodd" clip-rule="evenodd" d="M287.594 99.6033C284.249 132.138 280.474 149.323 258.439 183.395C236.404 217.466 135.569 239.88 98.2908 239.88C61.0124 239.88 15.071 202.376 17.9705 158.921C20.87 115.467 35.9971 79.9502 72.2045 75.578C109.207 71.1099 141.71 91.8011 178.037 80.7039C209.444 71.1099 219.053 34.5407 240.624 23.0033C284.249 -0.330288 289.869 77.4702 287.594 99.6033Z" fill="#F7B32B"/>
<path d="M302.037 66.9468C300.429 69.6725 280.072 83.4646 267.724 85.5058C265.334 85.9007 262.725 86.0364 260.649 84.7887C259.423 84.0516 258.509 82.9022 257.641 81.7649C255.657 79.1647 253.764 76.4949 251.967 73.7619C251.022 72.3258 250.086 70.8265 249.765 69.1379C248.915 64.6662 252.52 60.6497 256.082 57.8164C264.271 51.3034 273.859 46.5587 284.004 43.999C285.8 43.5459 287.704 43.1622 289.483 43.6769C292.371 44.5123 294.097 47.4341 295.199 50.2309C296.301 53.0277 297.16 56.0869 299.362 58.1329C299.865 58.6001 303.645 64.2211 302.037 66.9468Z" fill="white"/>
<path fill-rule="evenodd" clip-rule="evenodd" d="M45.9207 92.9545C39.6979 90.4704 32.2822 91.2071 26.6719 94.8667C26.1288 95.221 25.3479 94.8261 25.079 94.2366C24.8102 93.6472 24.9107 92.9615 25.0483 92.3286C26.8401 84.0828 33.9781 77.7736 41.9162 74.8741C49.8543 71.9747 58.5372 71.9665 66.9755 72.4622C67.8127 72.5114 68.6879 72.5768 69.4021 73.0157C70.1163 73.4546 70.5968 74.3932 70.2408 75.1512C66.9214 82.2197 64.421 89.6708 62.8051 97.3089C62.5431 98.5474 61.2598 99.3692 59.9958 99.4724C58.7319 99.5757 57.4934 99.1093 56.3464 98.5694C52.7716 96.8869 49.5903 94.4194 45.9207 92.9545Z" fill="white"/>
<path fill-rule="evenodd" clip-rule="evenodd" d="M297.284 60.1798C294.395 59.0815 292.823 56.0098 291.705 53.128C290.587 50.2462 289.517 47.1001 287.005 45.2989C285.249 52.2919 282.577 59.0543 279.08 65.3593C278.668 66.1013 278.197 66.882 277.426 67.2345C276.826 67.5082 276.139 67.4784 275.481 67.4414C267.219 66.9765 258.975 66.2094 250.77 65.1423C249.897 65.0288 249.185 65.9809 249.203 66.8612C249.222 67.7415 249.733 68.5256 250.226 69.2551C252.177 72.1422 254.129 75.0293 256.08 77.9164C257.024 79.3132 258.024 80.762 259.505 81.5678C261.484 82.6449 263.908 82.3575 266.108 81.8696C277.712 79.2957 287.708 72.1358 297.067 64.8087C297.655 64.3484 298.433 63.8645 299.092 64.2149C299.668 64.5207 299.783 65.3445 299.512 65.9368C299.241 66.5291 298.697 66.9422 298.173 67.3299C288.116 74.7804 277.547 82.4546 265.199 84.4958C262.81 84.8907 260.2 85.0264 258.124 83.7786C256.898 83.0416 255.985 81.8922 255.117 80.7549C253.132 78.1547 251.239 75.4849 249.442 72.7519C248.497 71.3158 247.561 69.8165 247.24 68.1278C246.39 63.6562 249.995 59.6397 253.557 56.8064C261.746 50.2934 271.334 45.5487 281.479 42.989C283.275 42.5359 285.179 42.1522 286.958 42.6669C289.846 43.5022 291.572 46.4241 292.674 49.2209C293.776 52.0177 294.635 55.0769 296.837 57.1229C297.34 57.5901 297.928 58.0278 298.153 58.6765C298.378 59.3251 297.969 60.2328 297.284 60.1798ZM277.62 61.5063C280.607 56.2413 282.92 50.5938 284.483 44.7455C282.809 44.5616 281.152 45.1267 279.572 45.7101C274.582 47.5526 269.691 49.6626 264.927 52.028C259.893 54.5269 254.856 57.4351 251.465 61.9162C258.277 62.6764 265.09 63.4367 271.903 64.1969C273.187 64.3401 274.573 64.463 275.687 63.8106C276.563 63.2979 277.119 62.3888 277.62 61.5063Z" fill="#00A896"/>
<path fill-rule="evenodd" clip-rule="evenodd" d="M266.222 233.303C265.559 233.595 264.841 233.866 264.128 233.743C263.414 233.62 262.747 232.95 262.89 232.241C264.2 225.753 262.555 218.727 258.501 213.495C257.08 211.662 255.388 210.049 254.004 208.187C253.131 207.015 252.355 205.54 252.798 204.147C253.427 202.164 255.963 201.682 258.038 201.541C262.862 201.212 267.686 200.883 272.51 200.554C274.733 200.403 277.293 200.38 278.777 202.042C282.907 206.669 290.958 206.979 295.432 202.685C296.125 202.021 296.997 203.343 296.969 204.303C296.883 207.319 295.64 210.288 293.551 212.466C293.058 212.98 292.428 213.483 291.72 213.41C291.012 213.336 290.489 212.319 291.054 211.885C292.265 210.955 293.499 210.001 294.348 208.732C295.198 207.462 295.609 205.798 295.03 204.385C291.914 208.327 288.768 212.245 285.593 216.14C280.087 222.893 274.199 229.8 266.222 233.303ZM274.923 213.433C274.13 213.652 273.285 213.484 272.494 213.26C266.8 211.651 261.555 207.203 255.73 208.244C262.521 213.713 266.127 222.884 264.88 231.514C269.354 230.556 272.888 227.215 276.057 223.914C280.748 219.029 285.202 213.915 289.398 208.599C286.382 208.574 283.377 207.704 280.814 206.113C277.648 206.897 278.066 212.564 274.923 213.433ZM279.058 204.45C277.172 202.227 273.782 202.295 270.877 202.55C267.089 202.883 263.3 203.216 259.512 203.549C257.974 203.684 256.207 203.954 255.405 205.273C261.962 206.646 268.355 208.802 274.404 211.681C275.182 209.237 276.742 207.049 278.798 205.516C279.029 205.343 279.293 205.122 279.263 204.835C279.247 204.688 279.153 204.563 279.058 204.45Z" fill="#00A896"/>
<path fill-rule="evenodd" clip-rule="evenodd" d="M45.1863 91.7729C39.4801 89.4908 32.68 90.1676 27.5355 93.5295C27.0374 93.855 26.3213 93.4922 26.0748 92.9507C25.8282 92.4092 25.9205 91.7793 26.0466 91.1978C27.6896 83.6228 34.2351 77.8267 41.5142 75.1631C48.7934 72.4995 56.7555 72.492 64.4933 72.9474C65.2611 72.9926 66.0636 73.0526 66.7185 73.4559C67.3734 73.8591 67.8141 74.7213 67.4877 75.4177C64.4438 81.9112 62.1509 88.7563 60.6692 95.7731C60.4289 96.9109 59.2521 97.6658 58.0931 97.7606C56.9341 97.8555 55.7984 97.427 54.7466 96.9311C51.4686 95.3854 48.5514 93.1186 45.1863 91.7729ZM45.8386 84.1081C45.3301 84.5213 44.5352 84.3031 44.0567 83.8555C43.5781 83.4078 43.3055 82.7884 42.9293 82.2519C40.9117 79.3738 36.2818 79.6127 33.5374 81.8085C30.793 84.0044 29.4649 87.4742 28.2556 90.7744C36.3071 87.2772 46.2238 88.5322 53.1502 93.9249C54.0958 94.6612 55.0342 95.4908 56.1987 95.7743C57.3632 96.0577 58.8302 95.5484 59.1252 94.3867C60.701 88.1809 62.6428 82.068 64.9371 76.0905C60.5348 81.5625 51.2895 79.6796 45.8386 84.1081ZM44.0866 80.8012C44.5388 81.3693 45.3597 81.52 46.0743 81.3918C46.7889 81.2636 47.4381 80.9077 48.104 80.6183C50.3964 79.6218 52.9355 79.3995 55.3932 78.9438C57.851 78.4881 60.386 77.717 62.1161 75.913C58.2124 75.9012 54.3088 75.8895 50.4051 75.8777C46.482 75.8659 42.2545 75.949 39.1029 78.2853C41.0215 78.3553 42.891 79.2991 44.0866 80.8012Z" fill="#00A896"/>
<path fill-rule="evenodd" clip-rule="evenodd" d="M269.392 180.498C271.445 179.426 273.45 178.26 275.424 177.047C276.814 176.215 275.583 174.12 274.158 174.877C273.429 175.264 272.703 175.655 271.975 176.04C272.548 175.546 273.079 175.008 273.556 174.422L273.523 174.389C275.36 172.742 273 169.634 270.911 170.987C269.068 172.323 267.209 173.687 265.093 174.567C260.712 176.426 255.88 176.734 251.177 176.787C249.457 176.658 247.813 176.956 246.143 177.289C246.798 174.661 248.436 172.677 249.305 170.132C249.946 167.562 246.24 165.812 244.926 168.282C244.604 168.888 244.296 169.502 243.996 170.118C241.156 172.703 236.415 172.475 233.551 175.25C231.92 176.698 231.122 178.664 230.807 180.637C230.593 181.976 230.925 183.319 230.116 184.506C226.203 190.045 220.019 198.799 216.879 204.895C214.655 190.41 208.718 172.495 202.585 159.251C200.557 155.015 198.237 150.876 195.191 147.286C195.536 146.088 194.317 143.963 193.542 144.617C191.157 141.702 186.941 140.947 183.551 139.497C178.974 137.539 175.177 133.469 173.31 128.842C170.912 120.033 165.008 118.914 156.82 119.303C148.984 119.293 143.186 122.647 141.477 130.629C138.003 136.687 129.802 135.685 123.901 137.289C119.577 138.278 115.381 139.806 111.392 141.746C106.956 137.535 91.0658 155.208 89.6214 159.757C90.4717 159.922 91.3168 160.12 92.1542 160.362C92.9001 160.578 92.5869 161.705 91.8346 161.525C90.8985 161.3 89.9564 161.145 89.0099 161.037C88.981 161.128 88.9558 161.218 88.9369 161.307C88.8307 161.3 88.7246 161.291 88.6183 161.283C88.8539 161.406 89.0807 161.549 89.3016 161.732C89.8357 162.176 89.1404 163.033 88.5728 162.679C88.0381 162.279 87.3378 162.342 86.6964 162.207C86.6583 163.527 81.9522 162.051 81.2212 161.613C77.9722 161.207 74.6298 161.643 71.5967 160.075C67.561 159.225 63.495 158.284 59.5046 157.201C58.4482 157.613 57.4554 159.088 58.2945 160.17C58.7664 160.662 58.1597 161.467 57.5655 161.117C55.5724 159.943 54.031 158.11 52.7242 156.136C52.1091 155.515 51.0172 155.649 50.1907 155.391C50.0803 155.59 50.0151 155.811 50.0161 156.038C46.5105 156.615 49.0112 160.447 50.7736 161.64C49.8387 162.25 49.8032 163.442 49.885 164.438C49.6869 164.793 49.6207 165.233 49.7932 165.631C50.4524 167.151 51.8781 168.431 52.9622 169.662C54.1591 171.023 55.2263 172.39 56.6827 173.493C62.2339 177.727 68.933 180.094 75.8055 181.02C78.2457 181.395 81.7557 181.969 83.2666 184.034C82.8959 186.484 82.2152 188.834 81.5977 191.224C80.7342 194.395 80.7929 197.716 80.7815 200.949C80.6608 200.852 80.429 200.872 80.3945 201.057C80.1936 202.398 80.0443 203.768 79.2301 204.895C78.5163 206.989 78.0414 209.223 77.7745 211.423C76.7055 221.854 76.4503 232.593 78.8606 242.862C79.7907 246.672 81.3034 250.292 83.3644 253.626C83.9789 254.62 84.967 254.912 85.8542 254.716C88.8234 256.26 92.564 256.755 95.7645 256.363C106.675 253.272 102.874 260.714 118.172 258.435C144.578 255.069 171.265 261.684 197.615 257.8C198.264 262.816 206.759 261.378 209.71 259.257C218.559 252.675 222.953 231.835 227.393 221.263C230.446 212.931 235.557 198.173 242.251 192.581C244.258 191.01 246.684 190.183 249.112 189.516C258.172 187.18 267.266 184.97 276.343 182.699C277.883 182.32 277.606 179.693 275.96 179.861C273.776 180.085 271.584 180.288 269.392 180.498Z" fill="white"/>
<path fill-rule="evenodd" clip-rule="evenodd" d="M67.7069 178.936C67.0933 178.86 66.4919 178.641 65.8944 178.469C64.9822 178.202 64.088 177.891 63.2078 177.536C61.3913 176.808 59.629 175.947 57.9769 174.893C55.3084 173.19 52.9506 171.007 51.1722 168.379L51.0501 168.196C50.0349 166.649 48.1621 163.213 50.262 162.038C48.9086 160.906 47.6295 158.874 47.7016 157.305C47.8039 155.086 50.5226 155.116 51.928 156.057C52.8483 156.673 53.538 157.536 54.2297 158.385C54.9956 159.327 55.8136 160.226 56.6637 161.091C56.8892 161.319 57.117 161.544 57.3488 161.764L57.5819 161.983C57.5458 161.897 57.5138 161.809 57.4857 161.719C57.0165 160.256 57.5759 158.352 59.0375 157.682C59.9319 157.272 60.8608 157.522 61.7276 157.871L61.8604 157.925C63.0273 158.408 64.2082 158.836 65.4232 159.179C70.3753 160.577 75.544 160.81 80.6185 161.508C82.5733 161.779 84.5642 162.12 86.509 162.621C87.2508 159.47 89.0692 156.448 91.0421 153.963C100.489 142.072 116.07 138.142 130.323 135.598C131.622 135.367 132.698 137.089 133.454 136.681C134.888 135.911 136.149 134.82 137.256 133.634C139.615 131.104 141.29 128.129 143.256 125.31C144.229 123.918 146.466 125.164 145.564 126.658L145.122 127.389C143.302 130.381 141.287 133.464 138.677 135.785C137.29 137.016 135.75 137.989 133.99 138.597C132.656 139.057 130.786 139.444 129.326 138.998L129.151 138.743C129.209 138.828 129.267 138.913 129.326 138.998C133.135 144.521 137.915 149.196 142.952 153.608C148.035 158.058 153.519 162.043 159.036 165.94L159.496 166.265C168.484 159.705 176.077 151.148 181.404 141.372C180.287 141.237 179.183 140.521 178.228 139.987C177.08 139.342 175.999 138.571 175.157 137.544C173.322 135.307 173.561 132.424 173.23 129.71C173.21 129.541 173.433 129.499 173.535 129.583C174.529 130.41 174.878 131.764 175.293 132.934C175.75 134.22 176.268 135.279 177.316 136.184C178.292 137.027 179.483 137.646 180.64 138.198C181.237 138.481 184.198 139.208 184.536 139.811C189.652 138.609 194.637 140.686 198.428 144.189C202.091 147.573 204.78 151.973 207.153 156.316C209.686 160.95 211.761 165.781 213.549 170.746C215.362 175.786 216.751 180.936 217.515 186.241C218.16 190.713 218.555 195.255 218.811 199.777L218.842 200.342C222.627 194.398 226.507 188.516 230.467 182.686C229.566 180.28 230.563 177.824 232.249 175.967C234.118 173.91 236.702 172.955 239.174 171.844L239.499 171.697C240.69 171.153 241.878 170.554 242.907 169.739C243.898 168.953 244.625 167.87 245.668 167.145C247.184 166.09 249.934 166.315 250.005 168.62C250.041 169.886 249.497 171.274 249 172.412C248.437 173.698 247.677 174.863 246.775 175.935C246.733 175.985 246.687 176.024 246.641 176.055L246.606 176.077C247.853 176.284 249.11 176.45 250.392 176.508C252.976 176.627 255.588 176.436 258.119 175.891C260.709 175.333 263.219 174.426 265.549 173.162C267.54 172.083 269.384 170.686 271.646 170.357C271.854 170.325 272.065 170.305 272.281 170.293C272.642 170.273 273.003 170.698 272.861 171.055C272.783 171.252 272.7 171.447 272.61 171.643C271.828 173.367 270.629 175.038 269.133 176.307L269.017 176.404C269.545 176.222 270.064 176.017 270.575 175.786C273.581 174.432 276.307 172.386 279.529 171.563C279.682 171.523 279.836 171.487 279.99 171.453C280.987 171.238 281.512 172.321 280.927 173.064C280.832 173.184 280.738 173.303 280.64 173.421C279.202 175.206 277.616 176.863 275.868 178.352C275.269 178.862 274.651 179.355 274.022 179.827C273.756 180.027 273.49 180.222 273.22 180.415L273.087 180.509C273.402 180.286 273.713 180.06 274.022 179.827C275.994 179.229 277.939 178.521 279.842 177.736C280.598 177.425 281.185 178.192 281.265 178.822C281.534 180.932 279.192 182.459 277.669 183.474C276.141 184.493 274.459 185.268 272.736 185.889C269.425 187.087 265.947 187.631 262.475 188.118L260.788 188.353C254.112 189.287 247.14 190.404 242.35 195.602C239.665 198.514 237.849 202.134 236.187 205.695C234.527 209.252 233.069 212.903 231.686 216.574C230.252 220.374 229.003 224.244 227.676 228.082C226.457 231.606 225.001 235.085 223.559 238.528L223.331 239.072C220.27 246.391 216.613 253.284 211.516 259.395C210.676 260.404 209.319 258.972 210.095 257.972C215.426 251.095 219.135 242.98 222.196 234.885C223.59 231.202 224.757 227.43 226.096 223.726L226.893 221.526C227.957 218.594 229.03 215.664 230.15 212.755C231.567 209.073 233.125 205.436 234.908 201.917L235.097 201.546C236.842 198.152 238.915 194.806 241.768 192.237C246.904 187.611 253.739 186.501 260.347 185.622L262.426 185.348C265.219 184.977 268.021 184.566 270.738 183.819C272.305 183.39 273.837 182.84 275.277 182.082C275.85 181.781 276.409 181.45 276.951 181.089C275.407 181.542 273.841 181.913 272.247 182.204C271.467 182.346 270.695 182.453 269.926 182.527C267.943 182.724 265.976 182.715 263.945 182.609C263.772 182.599 263.716 182.328 263.901 182.294C265.315 182.043 266.731 181.728 268.141 181.386L268.564 181.283C268.572 181.049 268.664 180.8 268.857 180.563C269.559 179.708 270.892 179.271 271.816 178.667C272.785 178.035 273.723 177.353 274.617 176.623C275.435 175.955 276.221 175.248 276.977 174.51L277.204 174.288C277.128 174.362 277.053 174.436 276.977 174.51C274.936 175.453 273.001 176.663 270.87 177.409C269.176 178.005 267.399 178.406 265.607 178.549L265.496 178.558L265.384 178.565C263.514 178.699 261.631 178.645 259.789 179.05C259.582 179.096 259.518 178.82 259.702 178.741C261.312 178.071 262.987 177.812 264.679 177.5C264.715 177.367 264.807 177.249 264.967 177.172L265.4 176.966C266.69 176.346 267.891 175.721 268.963 174.715C269.91 173.826 270.697 172.787 271.289 171.635C268.921 172.155 266.842 173.951 264.689 174.96C262.343 176.061 259.861 176.851 257.311 177.301L257.02 177.351C252.254 178.146 246.523 178.045 242.254 175.566C242.117 175.485 242.215 175.303 242.356 175.325C243.567 175.523 244.766 175.758 245.965 175.967C245.73 175.752 245.626 175.367 245.896 175.058C246.973 173.823 247.825 172.412 248.369 170.867L248.473 170.565C248.724 169.849 249.148 168.737 248.715 168.09C248.302 167.474 247.33 167.559 246.749 167.82C245.54 168.365 244.736 169.728 243.717 170.55C242.606 171.449 241.343 172.115 240.05 172.711L239.777 172.835C237.54 173.842 235.15 174.689 233.392 176.466C232.445 177.421 231.631 178.615 231.359 179.953C231.234 180.567 231.234 181.199 231.399 181.807C231.529 182.282 231.802 182.575 231.645 183.059C231.441 183.683 230.717 184.429 230.344 184.985C229.911 185.627 229.48 186.271 229.049 186.915C228.189 188.203 227.333 189.495 226.477 190.785C224.765 193.369 223.07 195.965 221.39 198.569C220.844 199.417 220.299 200.265 219.756 201.115L218.942 202.39L218.513 203.063L217.779 204.216C217.806 204.322 217.804 204.435 217.769 204.533C217.644 204.889 217.41 205.133 217.12 205.309L217.068 205.34C212.789 212.107 208.579 218.918 204.326 225.701C204.1 227.771 203.887 229.843 203.703 231.916C203.284 236.606 202.997 241.309 202.905 246.017C202.861 248.297 203.043 250.589 203.141 252.866C203.19 253.953 203.255 255.039 203.341 256.124L203.405 256.893C203.489 257.95 203.537 258.999 203.158 260.007C202.821 260.891 201.794 261.09 201.187 260.416C193.261 260.097 185.33 259.854 177.398 259.704C163.201 259.431 148.998 259.473 134.8 259.748C127.668 259.886 120.535 260.081 113.405 260.322C109.892 260.438 106.378 260.602 102.863 260.651C100.97 260.676 97.9893 259.987 97.8366 257.855L97.8328 257.79C97.5962 257.854 97.3516 257.906 97.101 257.944C96.9894 257.961 96.8823 257.957 96.7833 257.933L96.7341 257.92C93.9114 258.781 90.3409 257.553 87.6587 256.837L87.4373 256.779C84.877 256.111 82.82 255.156 81.1418 253.033C78.2046 249.316 77.2022 244.324 76.6809 239.724C76.1917 235.394 76.1636 230.985 76.7591 226.664C76.4082 223.143 76.751 219.51 77.15 216.009C77.3465 214.277 77.5771 212.548 77.8537 210.826C78.0081 209.866 78.2106 208.915 78.4171 207.966C78.4996 207.586 78.5682 207.178 78.6727 206.784L78.7198 206.615C78.3991 206.658 78.0482 206.587 77.7094 206.401C76.9034 205.958 76.6688 205.061 76.6548 204.202C76.6107 201.614 76.9194 198.952 77.1921 196.38C77.4668 193.812 77.8437 191.234 78.3369 188.698L78.4645 188.044C78.8383 186.147 79.2659 184.189 80.019 182.407C77.1901 181.925 74.3692 181.414 71.6245 180.543C70.2852 180.115 68.9659 179.584 67.7069 178.936ZM215.361 205.869C215.317 205.879 215.275 205.891 215.233 205.903C214.102 206.22 212.96 206.489 211.821 206.778C209.852 207.274 207.927 207.827 206.097 208.688C205.713 213.531 205.145 218.358 204.604 223.188L204.497 224.154C205.327 222.613 206.177 221.084 207.065 219.574C209.77 214.969 212.536 210.401 215.361 205.869ZM79.4096 206.349C79.4157 206.924 79.2954 207.522 79.2312 208.076C79.1269 208.975 79.0427 209.878 78.9365 210.776C78.7199 212.582 78.5355 214.39 78.4012 216.203C78.315 217.361 78.2588 218.522 78.2087 219.684C79.3455 215.433 80.8512 211.274 82.2827 207.109C82.0434 207.084 81.7988 207.025 81.5465 206.958L81.1217 206.844C80.8713 206.779 80.0587 206.579 79.4096 206.349ZM218.942 202.391L218.951 202.581C218.981 203.257 218.576 203.638 218.084 203.737C218.369 203.287 218.656 202.838 218.942 202.391ZM88.8629 170.348C90.0598 170.454 91.2327 170.709 92.3514 171.15L92.4594 171.192C93.2869 171.512 94.4967 171.913 94.7674 172.797C94.8436 173.048 94.6391 173.254 94.4045 173.275C93.5063 173.347 92.4477 172.384 91.6156 172.059C90.6894 171.697 89.719 171.429 88.7366 171.286C86.5291 170.963 84.2275 171.208 82.1504 172.013C82.0281 172.061 81.9519 171.866 82.0622 171.808C84.1553 170.668 86.483 170.137 88.8629 170.348ZM63.4985 176.085C63.3601 175.963 63.2217 175.834 63.0854 175.706C62.0105 174.689 61.0586 173.501 60.3538 172.196L60.1683 171.843C59.5942 170.731 58.8893 169.146 60.2384 168.345C61.0444 167.866 62.0148 167.986 62.913 168.277C62.9711 168.295 63.0292 168.315 63.0874 168.335C63.4884 168.476 63.8753 168.644 64.2202 168.805C65.7178 169.493 67.0391 170.494 68.4225 171.377C69.9214 172.334 71.4015 172.946 73.1315 173.304L73.2945 173.337C74.9184 173.658 76.6788 173.864 77.8116 175.2C78.0963 175.538 77.8356 176.169 77.3444 176.003C74.2127 174.946 70.8986 174.713 68.0235 172.977C66.8326 172.259 65.7058 171.435 64.4888 170.755C63.8432 170.393 63.1767 170.077 62.4664 169.861L62.0783 169.746C61.851 169.68 61.5797 169.614 61.3972 169.679C61.0499 169.8 61.1608 169.986 61.2682 170.31L61.2789 170.343C62.123 172.956 64.5289 175.142 66.7584 176.589C67.2697 176.922 67.7929 177.227 68.3263 177.51C71.9362 179.435 75.9755 180.331 79.9427 181.395C79.9427 181.395 82.2365 182.036 82.9964 182.276C83.8424 182.206 84.8068 182.505 85.4444 182.862C86.0639 183.209 86.5631 183.675 86.94 184.222C86.94 184.222 87.3029 184.525 87.3691 184.995C87.5596 185.43 87.6879 185.899 87.752 186.389C87.7881 186.676 87.7159 186.896 87.5796 187.053C87.9897 193.351 86.2896 199.614 84.3729 205.599L84.183 206.189L84.061 206.563C81.9939 212.909 79.6221 219.209 78.5635 225.825C77.8557 230.245 77.8778 234.819 78.3971 239.258L78.4337 239.565C78.9453 243.762 79.9297 248.471 82.5974 251.85C83.958 253.574 85.5701 254.34 87.6311 254.895L87.744 254.925C89.6086 255.416 91.5333 256.113 93.456 256.323C95.2404 256.518 96.7361 255.854 98.342 255.232L98.344 255.23C101.726 252.235 103.262 247.873 104.397 243.471C107.338 232.08 106.973 220.256 105.305 208.698C104.435 202.659 103.252 196.673 102.073 190.688C101.484 187.697 100.848 184.712 100.321 181.711L100.008 179.944C99.8349 178.963 99.6678 177.981 99.5249 176.994C99.3325 175.668 99.2743 174.364 99.2082 173.03C97.5882 170.343 95.2364 168.131 92.5117 166.544C90.5609 165.406 88.4958 164.618 86.3646 164.046C80.2716 162.403 73.6293 162.519 67.4982 161.255C65.4386 160.831 63.4835 160.202 61.5294 159.447L61.2629 159.343C60.3667 158.994 59.4525 158.8 59.0074 159.857C58.6906 160.609 58.8791 161.392 59.3542 162.024C60.5191 163.572 62.8609 164.291 64.6232 164.848C65.6838 165.185 66.7664 165.452 67.8611 165.651C68.9558 165.85 70.0545 165.9 71.1051 166.287C71.5101 166.435 71.5903 167.079 71.1051 167.193C69.7738 167.505 68.4345 167.238 67.1113 166.979C65.6577 166.692 64.2262 166.285 62.8348 165.769C62.5782 165.675 62.3125 165.575 62.0421 165.469L61.8383 165.388C62.0489 165.541 62.2594 165.691 62.4719 165.842C62.528 165.882 62.4939 165.988 62.4198 165.962C59.1481 164.74 56.1713 162.537 53.8652 159.93L53.7505 159.799C52.9385 158.868 51.0879 156.051 49.5281 156.836C48.0634 157.571 50.5602 160.407 51.5091 161.567L51.6193 161.703C52.6979 161.731 53.7425 162.403 54.6166 162.944C56.1344 163.886 57.7203 164.696 59.3362 165.454C62.5481 166.965 65.9585 168.03 69.1363 169.617C69.1784 169.639 69.1463 169.693 69.1062 169.687C67.0833 169.364 65.0823 168.849 63.1275 168.209L63.0403 168.182L62.9531 168.153C61.7321 167.751 60.5272 167.298 59.3422 166.814C58.025 166.277 56.7378 165.673 55.4888 164.989C54.358 164.371 53.1029 163.258 51.7917 163.093C51.6514 163.075 51.527 163.073 51.4188 163.083C49.9131 163.209 51.1582 165.705 51.5792 166.451C52.2669 167.677 53.0969 168.809 54.0493 169.842C55.98 171.94 58.3198 173.603 60.852 174.897C61.7161 175.339 62.6003 175.728 63.4985 176.085Z" fill="#343840"/>
<path fill-rule="evenodd" clip-rule="evenodd" d="M159.131 46.665C170.515 46.665 185.21 53.8107 186.463 61.1292C187.939 69.7539 195.847 102.848 194.061 113.46C192.276 124.073 182.653 131.713 167.256 131.713C151.858 131.713 140.366 123.311 137.727 120.426C135.088 117.541 130.198 107.241 130.198 107.241C130.198 107.241 121.954 106.144 121.915 99.419C121.876 92.6945 127.275 90.2479 127.275 90.2479C127.275 90.2479 125.35 63.71 130.198 56.8008C135.046 49.8916 147.747 46.665 159.131 46.665Z" fill="white"/>
<path fill-rule="evenodd" clip-rule="evenodd" d="M185.766 59.9483C185.758 59.794 185.982 59.7759 186.025 59.9124C188.481 68.0315 189.994 74.3588 191.588 82.6828L192.059 85.1314C193.317 91.6622 194.587 98.2025 195.66 104.765L195.723 105.157C196.261 108.554 196.571 111.984 195.897 115.388C195.267 118.57 193.547 121.487 191.314 123.81C186.997 128.3 180.998 131.105 174.964 132.358C171.912 132.992 168.764 133.237 165.655 133.016C164.105 132.908 162.557 132.689 161.039 132.366L160.872 132.331C159.342 132 157.984 131.606 157.172 130.165C156.967 129.802 157.05 129.181 157.479 128.994C158.289 128.645 158.884 128.498 159.768 128.599C160.612 128.695 161.436 128.95 162.27 129.108C163.864 129.411 165.484 129.564 167.106 129.6C170.292 129.67 173.486 129.271 176.531 128.32C181.764 126.685 187.081 123.557 190.139 118.879C193.735 113.375 192.303 106.696 191.35 100.618L191.322 100.434C190.357 94.2212 189.403 88.0087 188.477 81.7923L188.082 79.1278C187.043 72.088 186.063 67.0625 185.766 59.9483ZM132.638 42.7172C135.249 40.9947 138.495 40.5714 141.562 40.5952L141.946 40.6C145.874 40.6599 165.646 41.1307 172.266 41.2756L173.841 41.3088C175.925 41.3482 180.129 41.3893 182.295 41.4289L182.42 41.4312C183.482 41.4513 184.545 41.4593 185.608 41.4934L185.763 41.499C186.559 41.533 187.222 41.6522 187.845 42.2136C188.162 42.4982 188.286 42.9321 188.257 43.3455L188.252 43.3993L189.83 43.5377C190.901 43.6325 191.468 44.594 191.042 45.567L191.021 45.6141C190.265 47.2271 189.688 51.9216 189.283 53.657C189.07 54.5698 188.9 55.4967 188.799 56.4296C188.719 57.164 188.711 57.9001 188.302 58.5461C187.43 59.9244 184.976 59.9123 184.932 57.9603C184.93 57.8981 184.932 57.8379 184.938 57.7797C178.763 57.5089 170.332 57.535 164.165 57.9041C158.405 58.2492 152.671 59.0316 147.027 60.2293C145.597 60.5323 144.172 60.8633 142.756 61.2224C141.596 61.5153 140.17 61.6898 139.132 62.3178C137.969 63.024 137.991 64.2899 138.117 65.4956C138.253 66.7736 138.479 66.1151 138.799 67.2797L138.819 67.3534C139.15 68.6173 139.559 69.8671 140.1 71.0548C140.409 71.7329 140.906 72.3849 140.717 73.1653C140.611 73.6047 140.264 74.0741 139.946 74.3811C138.494 75.7754 136.04 74.8867 135.053 76.7966C134.021 78.7937 133.996 81.4991 133.908 83.7089L133.903 83.8383C133.839 85.361 133.857 86.8878 133.957 88.4065C134.047 89.7905 134.416 91.161 133.943 92.4911C133.598 93.4581 132.471 93.5484 131.882 92.7619C131.814 92.6717 131.752 92.5791 131.694 92.486L131.637 92.3928L131.633 92.3948C131.689 92.4831 131.741 92.5736 131.791 92.6656C131.846 92.768 131.711 92.8803 131.629 92.792C130.242 91.2814 128.215 91.5823 126.645 92.6396C125.055 93.7149 124.427 95.7572 124.345 97.5891C124.253 99.6209 124.433 102.003 125.279 103.88C125.636 104.675 126.145 105.405 126.99 105.708C127.373 105.844 127.738 105.826 128.136 105.858C128.551 105.89 129.051 106.099 129.454 106.071C129.977 106.034 130.447 106.632 130.299 107.133L130.288 107.166C130.28 107.191 130.272 107.215 130.264 107.237C130.284 107.255 130.304 107.277 130.318 107.309C131.842 110.425 133.931 113.197 136.24 115.769C137.397 117.055 138.68 118.237 140.022 119.33C140.683 119.87 141.381 120.41 142.117 120.845C142.361 120.987 142.586 121.084 142.861 121.162C142.989 121.198 143.135 121.216 143.26 121.258L143.389 121.302C143.398 121.305 143.406 121.308 143.414 121.31C143.783 121.352 144.094 121.597 144.216 121.98C144.535 122.979 143.955 123.862 142.965 124.137C141.892 124.437 140.881 123.91 140.03 123.305L139.974 123.264C138.239 122.015 136.641 120.612 135.258 118.975C132.521 115.743 130.807 112.001 130.013 107.863C129.817 108.286 129.552 108.655 129.093 108.912C128.379 109.313 127.527 109.313 126.745 109.179C125.171 108.912 123.83 107.951 122.934 106.651C122.003 105.303 121.657 103.666 121.446 102.071C121.238 100.474 121.135 98.8708 121.344 97.2699C121.643 94.9708 122.607 92.6977 124.482 91.4378C123.078 88.3784 122.831 84.9478 122.932 81.5974C123.054 77.4727 123.766 73.3018 124.313 69.2151L125.869 57.5972L125.933 57.1288C126.308 54.3957 126.765 51.6481 127.788 49.0728C128.796 46.535 130.328 44.2399 132.638 42.7172ZM126.09 97.6791C128.66 96.4312 131.437 97.5808 132.82 100.002C134.023 102.108 130.447 103.499 129.85 101.329L129.833 101.262C129.44 99.6191 127.84 98.1987 126.17 97.978C126.031 97.9582 125.929 97.7575 126.09 97.6791Z" fill="#343840"/>
<path fill-rule="evenodd" clip-rule="evenodd" d="M171.871 117.217C170.524 116.667 169.321 115.749 168.442 114.576C168.136 114.169 168.057 113.739 168.121 113.345C168.193 112.902 168.455 112.501 168.812 112.232C169.17 111.962 169.617 111.829 170.05 111.897C170.427 111.956 170.801 112.162 171.097 112.589L171.159 112.675C171.682 113.382 172.363 113.963 173.139 114.337C173.887 114.698 174.724 114.866 175.59 114.768C177.238 114.582 178.375 113.69 179.583 112.478C179.732 112.325 179.882 112.167 180.033 112.007C180.128 111.862 180.26 111.768 180.406 111.719C180.569 111.665 180.753 111.668 180.921 111.727C181.084 111.784 181.229 111.891 181.327 112.034C181.419 112.17 181.472 112.338 181.455 112.532C181.344 113.787 180.688 114.908 179.756 115.788C178.721 116.765 177.349 117.441 176.057 117.679C174.634 117.94 173.184 117.753 171.871 117.217ZM176.729 97.8449C178.243 98.7658 180.55 100.913 178.921 103.196C177.004 105.209 174.244 102.901 172.883 101.857C171.622 101.048 170.205 103.129 171.375 104.073C181.204 111.355 185.193 98.0857 177.495 96.7622C176.647 96.6164 176.332 97.56 176.729 97.8449ZM159.115 89.3745C159.282 87.2969 162.445 86.8251 162.759 88.881C163.041 90.7227 162.709 92.4145 161.88 94.0727C161.088 95.6568 159.097 94.9177 158.947 93.4753C158.745 91.5417 159.011 90.667 159.115 89.3745ZM183.187 88.4547C183.628 87.8769 184.265 87.4825 185.027 87.7054C187.41 88.4022 186.708 91.7872 185.871 93.4349C185.416 94.3297 183.946 94.5566 183.282 93.7688C182.199 92.484 181.681 89.9182 183.057 88.6527C183.095 88.5873 183.136 88.5213 183.187 88.4547ZM161.847 80.2833L162.223 80.2173C163.388 80.0158 164.836 79.8222 165.659 80.7589C166.096 81.2557 166.247 82.1789 165.659 82.6544C164.626 83.491 163.484 83.1668 162.247 83.2376C161.226 83.2962 160.246 83.4651 159.263 83.7462C157.108 84.3627 155.351 85.4882 153.51 86.724C153.268 86.8861 153.022 86.5769 153.137 86.3508C154.2 84.2678 156.26 82.5567 158.323 81.5137C159.424 80.9569 160.629 80.4951 161.847 80.2833ZM181.015 79.3501L181.303 79.4091C184.438 80.0649 188.511 81.3748 189.996 84.4562C190.053 84.8919 189.993 84.9853 189.944 85.0463L189.928 85.0666C189.888 85.1187 189.856 85.1906 189.667 85.2499C189.615 85.2374 189.562 85.2242 189.509 85.2101C188.828 85.0317 188.29 84.7858 187.768 84.5307L187.203 84.2521C186.548 83.9304 185.886 83.6204 185.185 83.3915C183.689 82.9032 182.15 82.5593 180.587 82.3756C180.249 82.3358 179.922 82.2214 179.665 82.0254C179.421 81.8393 179.234 81.5817 179.149 81.2392C179.039 80.796 179.071 80.4605 179.308 80.0607C179.487 79.7604 179.743 79.5523 180.036 79.4328C180.336 79.311 180.676 79.2823 181.015 79.3501Z" fill="#343840"/>
</g>
<defs>
<clipPath id="clip0_3087_28869">
<rect width="318.661" height="252" fill="white" transform="translate(0.669434)"/>
</clipPath>
</defs>
</svg>
